SplineFontDB: 3.2
FontName: koriqr_niyu_heks_jed_ke
FullName: koriqr_niyu_heks_jed_ke
FamilyName: koriqr_niyu_heks_jed_ke
Weight: Book
Copyright: (c) 2008 The Monotype Corporation. All Rights Reserved.
Version: 5.11
ItalicAngle: 0
UnderlinePosition: -519
UnderlineWidth: 84
Ascent: 1638
Descent: 410
InvalidEm: 0
sfntRevision: 0x00051c29
LayerCount: 2
Layer: 0 1 "Back" 1
Layer: 1 1 "Fore" 0
XUID: [1021 467 -1121320856 6851202]
StyleMap: 0x0040
FSType: 8
OS2Version: 2
OS2_WeightWidthSlopeOnly: 0
OS2_UseTypoMetrics: 0
CreationTime: 654287073
ModificationTime: 1599526862
PfmFamily: 17
TTFWeight: 400
TTFWidth: 5
LineGap: 0
VLineGap: 0
Panose: 2 7 3 9 2 2 5 2 4 4
OS2TypoAscent: 1255
OS2TypoAOffset: 0
OS2TypoDescent: -386
OS2TypoDOffset: 0
OS2TypoLinegap: 0
OS2WinAscent: 1705
OS2WinAOffset: 0
OS2WinDescent: 615
OS2WinDOffset: 0
HheadAscent: 1705
HheadAOffset: 0
HheadDescent: -615
HheadDOffset: 0
OS2SubXSize: 1434
OS2SubYSize: 1331
OS2SubXOff: 0
OS2SubYOff: 285
OS2SupXSize: 1434
OS2SupYSize: 1331
OS2SupXOff: 0
OS2SupYOff: 865
OS2StrikeYSize: 102
OS2StrikeYPos: 530
OS2CapHeight: 1170
OS2XHeight: 866
OS2FamilyClass: 1285
OS2Vendor: 'TMC '
OS2CodePages: 400001ff.ffff0000
OS2UnicodeRanges: e0002aff.c0007843.00000009.00000000
Lookup: 1 0 0 "'locl' Localized Forms in Latin lookup 0" { "'locl' Localized Forms in Latin lookup 0 subtable"  } ['locl' ('latn' <'LTH ' > ) ]
Lookup: 1 0 0 "'locl' Localized Forms in Latin lookup 1" { "'locl' Localized Forms in Latin lookup 1 subtable"  } ['locl' ('latn' <'ROM ' > ) ]
Lookup: 4 1 0 "'ccmp' Glyph Composition/Decomposition in Arabic lookup 2" { "'ccmp' Glyph Composition/Decomposition in Arabic lookup 2 subtable"  } ['ccmp' ('arab' <'URD ' 'dflt' > ) ]
Lookup: 1 1 0 "'locl' Localized Forms in Arabic lookup 3" { "'locl' Localized Forms in Arabic lookup 3 subtable"  } ['locl' ('arab' <'URD ' > ) ]

StartChar: .notdef
Encoding: 65536 -1 0
Width: 1229
GlyphClass: 2
Flags: W
LayerCount: 2
Fore
SplineSet
103 0 m 1,0,-1
 103 1280 l 1,1,-1
 1127 1280 l 1,2,-1
 1127 0 l 1,3,-1
 103 0 l 1,0,-1
135 32 m 1,4,-1
 1095 32 l 1,5,-1
 1095 1248 l 1,6,-1
 135 1248 l 1,7,-1
 135 32 l 1,4,-1
EndSplineSet
EndChar

StartChar: exclam
Encoding: 33 33 4
Width: 1229
GlyphClass: 2
Flags: W
LayerCount: 2
Fore
SplineSet
695 1170 m 2,0,-1
 657 492 l 2,1,2
 655 460 655 460 643.5 447 c 128,-1,3
 632 434 632 434 615 434 c 0,4,5
 597 434 597 434 585.5 447 c 128,-1,6
 574 460 574 460 572 492 c 2,7,-1
 535 1170 l 2,8,9
 533 1194 533 1194 533 1205 c 0,10,11
 533 1239 533 1239 556.5 1262 c 128,-1,12
 580 1285 580 1285 615 1285 c 256,13,14
 650 1285 650 1285 673 1262 c 128,-1,15
 696 1239 696 1239 696 1204 c 0,16,17
 696 1194 696 1194 695 1170 c 2,0,-1
595 178 m 2,18,-1
 634 178 l 2,19,20
 677 178 677 178 707.5 147.5 c 128,-1,21
 738 117 738 117 738 74 c 0,22,23
 738 30 738 30 707 0 c 128,-1,24
 676 -30 676 -30 634 -30 c 2,25,-1
 595 -30 l 2,26,27
 552 -30 552 -30 521.5 0.5 c 128,-1,28
 491 31 491 31 491 73 c 0,29,30
 491 118 491 118 522 148 c 128,-1,31
 553 178 553 178 595 178 c 2,18,-1
EndSplineSet
EndChar

StartChar: quotedbl
Encoding: 34 34 5
Width: 1229
GlyphClass: 2
Flags: W
LayerCount: 2
Fore
SplineSet
266 1234 m 1,0,-1
 532 1234 l 1,1,-1
 462 748 l 2,2,3
 456 710 456 710 440 694.5 c 128,-1,4
 424 679 424 679 399 679 c 256,5,6
 374 679 374 679 358 694.5 c 128,-1,7
 342 710 342 710 336 748 c 2,8,-1
 266 1234 l 1,0,-1
695 1234 m 1,9,-1
 961 1234 l 1,10,-1
 891 748 l 2,11,12
 885 710 885 710 869 694.5 c 128,-1,13
 853 679 853 679 829 679 c 0,14,15
 803 679 803 679 787 694.5 c 128,-1,16
 771 710 771 710 766 748 c 2,17,-1
 695 1234 l 1,9,-1
EndSplineSet
EndChar

StartChar: numbersign
Encoding: 35 35 6
Width: 1229
GlyphClass: 2
Flags: W
LayerCount: 2
Fore
SplineSet
800 740 m 1,0,-1
 782 476 l 1,1,-1
 943 476 l 2,2,3
 973 476 973 476 986 464.5 c 128,-1,4
 999 453 999 453 999 434 c 256,5,6
 999 415 999 415 986 403.5 c 128,-1,7
 973 392 973 392 943 392 c 2,8,-1
 776 392 l 1,9,-1
 743 -76 l 2,10,11
 741 -106 741 -106 729.5 -118 c 128,-1,12
 718 -130 718 -130 701 -130 c 2,13,-1
 684 -126 l 1,14,15
 659 -111 659 -111 659 -85 c 2,16,-1
 659 -70 l 1,17,-1
 692 392 l 1,18,-1
 502 392 l 1,19,-1
 470 -76 l 2,20,21
 468 -106 468 -106 456 -118 c 128,-1,22
 444 -130 444 -130 428 -130 c 2,23,-1
 410 -126 l 1,24,25
 385 -111 385 -111 385 -85 c 2,26,-1
 386 -70 l 1,27,-1
 418 392 l 1,28,-1
 243 392 l 2,29,30
 213 392 213 392 200 403.5 c 128,-1,31
 187 415 187 415 187 434 c 256,32,33
 187 453 187 453 200 464.5 c 128,-1,34
 213 476 213 476 243 476 c 2,35,-1
 424 476 l 1,36,-1
 442 740 l 1,37,-1
 286 740 l 2,38,39
 255 740 255 740 242 751.5 c 128,-1,40
 229 763 229 763 229 782 c 256,41,42
 229 801 229 801 242 812.5 c 128,-1,43
 255 824 255 824 286 824 c 2,44,-1
 448 824 l 1,45,-1
 481 1292 l 2,46,47
 483 1321 483 1321 495 1333.5 c 128,-1,48
 507 1346 507 1346 523 1346 c 2,49,-1
 541 1342 l 1,50,51
 566 1326 566 1326 566 1302 c 2,52,-1
 565 1286 l 1,53,-1
 533 824 l 1,54,-1
 722 824 l 1,55,-1
 755 1292 l 2,56,57
 757 1321 757 1321 768.5 1333.5 c 128,-1,58
 780 1346 780 1346 797 1346 c 2,59,-1
 814 1342 l 1,60,61
 840 1326 840 1326 840 1302 c 2,62,-1
 839 1286 l 1,63,-1
 806 824 l 1,64,-1
 985 824 l 2,65,66
 1015 824 1015 824 1028 812.5 c 128,-1,67
 1041 801 1041 801 1041 782 c 256,68,69
 1041 763 1041 763 1028 751.5 c 128,-1,70
 1015 740 1015 740 985 740 c 2,71,-1
 800 740 l 1,0,-1
716 740 m 1,72,-1
 527 740 l 1,73,-1
 508 476 l 1,74,-1
 698 476 l 1,75,-1
 716 740 l 1,72,-1
EndSplineSet
EndChar

StartChar: dollar
Encoding: 36 36 7
Width: 1229
GlyphClass: 2
Flags: W
LayerCount: 2
Fore
SplineSet
571 1198 m 1,0,-1
 571 1304 l 2,1,2
 571 1335 571 1335 582.5 1348 c 128,-1,3
 594 1361 594 1361 613 1361 c 256,4,5
 632 1361 632 1361 643.5 1348 c 128,-1,6
 655 1335 655 1335 655 1304 c 2,7,-1
 655 1198 l 1,8,9
 723 1192 723 1192 767 1176.5 c 128,-1,10
 811 1161 811 1161 871 1121 c 1,11,12
 872 1146 872 1146 884 1158 c 128,-1,13
 896 1170 896 1170 913 1170 c 0,14,15
 932 1170 932 1170 944 1157 c 128,-1,16
 956 1144 956 1144 956 1114 c 2,17,-1
 956 989 l 2,18,19
 956 959 956 959 944 946 c 128,-1,20
 932 933 932 933 913 933 c 0,21,22
 897 933 897 933 886 943.5 c 128,-1,23
 875 954 875 954 871 979 c 0,24,25
 865 1026 865 1026 809 1064 c 0,26,27
 727 1118 727 1118 616 1118 c 0,28,29
 503 1118 503 1118 429.5 1052 c 128,-1,30
 356 986 356 986 356 903 c 256,31,32
 356 820 356 820 421 776 c 0,33,34
 470 742 470 742 627.5 712.5 c 128,-1,35
 785 683 785 683 841 657 c 0,36,37
 921 622 921 622 960.5 562 c 128,-1,38
 1000 502 1000 502 1000 417 c 0,39,40
 1000 303 1000 303 911 216.5 c 128,-1,41
 822 130 822 130 655 113 c 1,42,-1
 655 -134 l 2,43,44
 655 -165 655 -165 643.5 -178 c 128,-1,45
 632 -191 632 -191 613 -191 c 256,46,47
 594 -191 594 -191 582.5 -178 c 128,-1,48
 571 -165 571 -165 571 -134 c 2,49,-1
 571 113 l 1,50,51
 417 123 417 123 312 213 c 1,52,53
 312 169 312 169 308.5 159.5 c 128,-1,54
 305 150 305 150 294 142.5 c 128,-1,55
 283 135 283 135 270 135 c 0,56,57
 252 135 252 135 240 148 c 128,-1,58
 228 161 228 161 228 191 c 2,59,-1
 228 355 l 2,60,61
 228 385 228 385 239.5 398.5 c 128,-1,62
 251 412 251 412 270 412 c 0,63,64
 288 412 288 412 301 399 c 0,65,66
 310 390 310 390 312 359 c 0,67,68
 318 306 318 306 397.5 250.5 c 128,-1,69
 477 195 477 195 613 195 c 0,70,71
 754 195 754 195 835 262 c 128,-1,72
 916 329 916 329 916 418 c 0,73,74
 916 477 916 477 886 519 c 128,-1,75
 856 561 856 561 792 588 c 0,76,77
 750 605 750 605 616 630 c 0,78,79
 422 668 422 668 347 728 c 0,80,81
 271 788 271 788 271 904 c 0,82,83
 271 1012 271 1012 353 1097 c 128,-1,84
 435 1182 435 1182 571 1198 c 1,0,-1
EndSplineSet
EndChar

StartChar: percent
Encoding: 37 37 8
Width: 1229
GlyphClass: 2
Flags: W
LayerCount: 2
Fore
SplineSet
742 1016 m 256,0,1
 742 908 742 908 666.5 832 c 128,-1,2
 591 756 591 756 486 756 c 0,3,4
 380 756 380 756 305 832 c 128,-1,5
 230 908 230 908 230 1016 c 256,6,7
 230 1124 230 1124 305 1199.5 c 128,-1,8
 380 1275 380 1275 486 1275 c 256,9,10
 592 1275 592 1275 667 1199.5 c 128,-1,11
 742 1124 742 1124 742 1016 c 256,0,1
682 1016 m 256,12,13
 682 1099 682 1099 624.5 1157 c 128,-1,14
 567 1215 567 1215 486 1215 c 256,15,16
 405 1215 405 1215 347.5 1157 c 128,-1,17
 290 1099 290 1099 290 1016 c 256,18,19
 290 933 290 933 347.5 875 c 128,-1,20
 405 817 405 817 486 817 c 256,21,22
 567 817 567 817 624.5 875 c 128,-1,23
 682 933 682 933 682 1016 c 256,12,13
1014 725 m 2,24,-1
 236 472 l 2,25,26
 222 468 222 468 215 468 c 0,27,28
 204 468 204 468 195.5 477 c 128,-1,29
 187 486 187 486 187 498 c 0,30,31
 187 508 187 508 194 518 c 0,32,33
 199 524 199 524 217 530 c 2,34,-1
 995 783 l 2,35,36
 1009 787 1009 787 1017 787 c 0,37,38
 1027 787 1027 787 1035.5 778 c 128,-1,39
 1044 769 1044 769 1044 757 c 0,40,41
 1044 747 1044 747 1037 737 c 0,42,43
 1032 731 1032 731 1014 725 c 2,24,-1
1001 235 m 256,44,45
 1001 127 1001 127 925.5 51.5 c 128,-1,46
 850 -24 850 -24 744 -24 c 0,47,48
 639 -24 639 -24 563.5 52 c 128,-1,49
 488 128 488 128 488 235 c 0,50,51
 488 343 488 343 563 419 c 128,-1,52
 638 495 638 495 744 495 c 256,53,54
 850 495 850 495 925.5 419 c 128,-1,55
 1001 343 1001 343 1001 235 c 256,44,45
940 235 m 0,56,57
 940 319 940 319 882.5 376.5 c 128,-1,58
 825 434 825 434 744 434 c 256,59,60
 663 434 663 434 605.5 376 c 128,-1,61
 548 318 548 318 548 235 c 0,62,63
 548 153 548 153 605.5 94.5 c 128,-1,64
 663 36 663 36 744 36 c 256,65,66
 825 36 825 36 882.5 94 c 128,-1,67
 940 152 940 152 940 235 c 0,56,57
EndSplineSet
EndChar

StartChar: ampersand
Encoding: 38 38 9
Width: 1229
GlyphClass: 2
Flags: W
LayerCount: 2
Fore
SplineSet
852 0 m 1,0,-1
 788 99 l 1,1,2
 698 -33 698 -33 556 -33 c 0,3,4
 436 -33 436 -33 345 62 c 128,-1,5
 254 157 254 157 254 294 c 0,6,7
 254 400 254 400 315.5 482 c 128,-1,8
 377 564 377 564 485 596 c 1,9,10
 411 715 411 715 396.5 752.5 c 128,-1,11
 382 790 382 790 382 830 c 0,12,13
 382 929 382 929 457 1003.5 c 128,-1,14
 532 1078 532 1078 637 1078 c 0,15,16
 671 1078 671 1078 705 1068 c 128,-1,17
 739 1058 739 1058 773 1037 c 1,18,19
 816 1059 816 1059 826 1059 c 0,20,21
 843 1059 843 1059 855.5 1046.5 c 128,-1,22
 868 1034 868 1034 868 1016 c 0,23,24
 868 1004 868 1004 861 994 c 128,-1,25
 854 984 854 984 833 973 c 2,26,-1
 768 938 l 1,27,28
 737 966 737 966 704.5 979.5 c 128,-1,29
 672 993 672 993 638 993 c 0,30,31
 569 993 569 993 517.5 942 c 128,-1,32
 466 891 466 891 466 828 c 0,33,34
 466 763 466 763 556 620 c 2,35,-1
 788 251 l 1,36,37
 849 366 849 366 884 517 c 1,38,-1
 966 517 l 2,39,40
 996 517 996 517 1009 505 c 128,-1,41
 1022 493 1022 493 1022 475 c 0,42,43
 1022 462 1022 462 1014.5 451 c 128,-1,44
 1007 440 1007 440 997 436 c 128,-1,45
 987 432 987 432 948 432 c 1,46,47
 900 263 900 263 838 170 c 1,48,-1
 895 84 l 1,49,-1
 966 84 l 2,50,51
 996 84 996 84 1009 72.5 c 128,-1,52
 1022 61 1022 61 1022 42 c 0,53,54
 1022 24 1022 24 1009 12 c 128,-1,55
 996 0 996 0 966 0 c 2,56,-1
 852 0 l 1,0,-1
521 522 m 1,57,58
 437 502 437 502 387.5 440.5 c 128,-1,59
 338 379 338 379 338 294 c 0,60,61
 338 193 338 193 404.5 122 c 128,-1,62
 471 51 471 51 554 51 c 0,63,64
 666 51 666 51 739 177 c 1,65,-1
 521 522 l 1,57,58
EndSplineSet
EndChar

StartChar: quotesingle
Encoding: 39 39 10
Width: 1229
GlyphClass: 2
Flags: W
LayerCount: 2
Fore
SplineSet
481 1255 m 1,0,-1
 747 1255 l 1,1,-1
 677 730 l 2,2,3
 671 688 671 688 654.5 671.5 c 128,-1,4
 638 655 638 655 614 655 c 0,5,6
 589 655 589 655 573 671.5 c 128,-1,7
 557 688 557 688 551 730 c 2,8,-1
 481 1255 l 1,0,-1
EndSplineSet
EndChar

StartChar: parenleft
Encoding: 40 40 11
Width: 1229
GlyphClass: 2
Flags: W
LayerCount: 2
Fore
SplineSet
605 498 m 0,0,1
 605 613 605 613 635 742 c 128,-1,2
 665 871 665 871 750 1040 c 128,-1,3
 835 1209 835 1209 874 1244 c 0,4,5
 886 1255 886 1255 900 1255 c 0,6,7
 918 1255 918 1255 930.5 1243 c 128,-1,8
 943 1231 943 1231 943 1214 c 0,9,10
 943 1204 943 1204 936 1192 c 0,11,12
 826 990 826 990 779 826 c 128,-1,13
 732 662 732 662 732 498 c 0,14,15
 732 333 732 333 779 169 c 128,-1,16
 826 5 826 5 936 -196 c 0,17,18
 943 -208 943 -208 943 -218 c 0,19,20
 943 -235 943 -235 930.5 -247.5 c 128,-1,21
 918 -260 918 -260 900 -260 c 0,22,23
 886 -260 886 -260 874 -249 c 0,24,25
 837 -215 837 -215 753 -50 c 128,-1,26
 669 115 669 115 637 242 c 128,-1,27
 605 369 605 369 605 498 c 0,0,1
EndSplineSet
EndChar

StartChar: parenright
Encoding: 41 41 12
Width: 1229
GlyphClass: 2
Flags: W
LayerCount: 2
Fore
SplineSet
639 497 m 0,0,1
 639 382 639 382 609 253.5 c 128,-1,2
 579 125 579 125 494 -44.5 c 128,-1,3
 409 -214 409 -214 370 -248 c 0,4,5
 358 -260 358 -260 344 -260 c 0,6,7
 326 -260 326 -260 313.5 -247.5 c 128,-1,8
 301 -235 301 -235 301 -218 c 0,9,10
 301 -208 301 -208 308 -196 c 0,11,12
 418 5 418 5 465 169 c 128,-1,13
 512 333 512 333 512 497 c 0,14,15
 512 662 512 662 465 826 c 128,-1,16
 418 990 418 990 308 1192 c 0,17,18
 301 1204 301 1204 301 1214 c 0,19,20
 301 1231 301 1231 313.5 1243 c 128,-1,21
 326 1255 326 1255 344 1255 c 0,22,23
 358 1255 358 1255 370 1244 c 0,24,25
 407 1210 407 1210 491 1045 c 128,-1,26
 575 880 575 880 607 753 c 128,-1,27
 639 626 639 626 639 497 c 0,0,1
EndSplineSet
EndChar

StartChar: asterisk
Encoding: 42 42 13
Width: 1229
GlyphClass: 2
Flags: W
LayerCount: 2
Fore
SplineSet
568 911 m 1,0,-1
 568 1198 l 2,1,2
 568 1229 568 1229 580 1242 c 128,-1,3
 592 1255 592 1255 611 1255 c 0,4,5
 629 1255 629 1255 641 1242 c 128,-1,6
 653 1229 653 1229 653 1198 c 2,7,-1
 653 911 l 1,8,-1
 926 1000 l 2,9,10
 945 1006 945 1006 955 1006 c 0,11,12
 971 1006 971 1006 983 993.5 c 128,-1,13
 995 981 995 981 995 964 c 0,14,15
 995 949 995 949 986.5 938 c 128,-1,16
 978 927 978 927 952 919 c 2,17,-1
 679 830 l 1,18,-1
 848 598 l 2,19,20
 864 575 864 575 864 562 c 0,21,22
 864 544 864 544 851.5 531.5 c 128,-1,23
 839 519 839 519 822 519 c 0,24,25
 800 519 800 519 779 548 c 2,26,-1
 610 781 l 1,27,-1
 441 548 l 2,28,29
 420 519 420 519 399 519 c 0,30,31
 381 519 381 519 368.5 531.5 c 128,-1,32
 356 544 356 544 356 562 c 0,33,34
 356 575 356 575 373 598 c 2,35,-1
 542 830 l 1,36,-1
 268 920 l 2,37,38
 243 928 243 928 234.5 938.5 c 128,-1,39
 226 949 226 949 226 964 c 0,40,41
 226 981 226 981 238 993.5 c 128,-1,42
 250 1006 250 1006 265 1006 c 0,43,44
 276 1006 276 1006 295 1000 c 2,45,-1
 568 911 l 1,0,-1
EndSplineSet
EndChar

StartChar: plus
Encoding: 43 43 14
Width: 1229
GlyphClass: 2
Flags: W
LayerCount: 2
Fore
SplineSet
657 543 m 1,0,-1
 657 123 l 2,1,2
 657 93 657 93 645 80 c 128,-1,3
 633 67 633 67 614 67 c 0,4,5
 596 67 596 67 584 80 c 128,-1,6
 572 93 572 93 572 123 c 2,7,-1
 572 543 l 1,8,-1
 200 543 l 2,9,10
 170 543 170 543 157 554.5 c 128,-1,11
 144 566 144 566 144 585 c 256,12,13
 144 604 144 604 157 615.5 c 128,-1,14
 170 627 170 627 200 627 c 2,15,-1
 572 627 l 1,16,-1
 572 1045 l 2,17,18
 572 1075 572 1075 584 1088 c 128,-1,19
 596 1101 596 1101 615 1101 c 0,20,21
 633 1101 633 1101 645 1088 c 128,-1,22
 657 1075 657 1075 657 1045 c 2,23,-1
 657 627 l 1,24,-1
 1029 627 l 2,25,26
 1059 627 1059 627 1072 615.5 c 128,-1,27
 1085 604 1085 604 1085 585 c 256,28,29
 1085 566 1085 566 1072 554.5 c 128,-1,30
 1059 543 1059 543 1029 543 c 2,31,-1
 657 543 l 1,0,-1
EndSplineSet
EndChar

StartChar: comma
Encoding: 44 44 15
Width: 1229
GlyphClass: 2
Flags: W
LayerCount: 2
Fore
SplineSet
448 302 m 1,0,-1
 721 302 l 1,1,-1
 424 -250 l 2,2,3
 397 -300 397 -300 359 -300 c 0,4,5
 334 -300 334 -300 316.5 -282.5 c 128,-1,6
 299 -265 299 -265 299 -240 c 0,7,8
 299 -230 299 -230 302 -218 c 2,9,-1
 448 302 l 1,0,-1
EndSplineSet
EndChar

StartChar: period
Encoding: 46 46 16
Width: 1229
GlyphClass: 2
Flags: W
LayerCount: 2
Fore
SplineSet
597 241 m 2,0,-1
 633 241 l 2,1,2
 689 241 689 241 729 201.5 c 128,-1,3
 769 162 769 162 769 106 c 0,4,5
 769 48 769 48 728.5 9 c 128,-1,6
 688 -30 688 -30 633 -30 c 2,7,-1
 597 -30 l 2,8,9
 541 -30 541 -30 501 9.5 c 128,-1,10
 461 49 461 49 461 105 c 0,11,12
 461 163 461 163 501.5 202 c 128,-1,13
 542 241 542 241 597 241 c 2,0,-1
EndSplineSet
EndChar

StartChar: slash
Encoding: 47 47 17
Width: 1229
GlyphClass: 2
Flags: W
LayerCount: 2
Fore
SplineSet
992 1316 m 2,0,-1
 316 -132 l 2,1,2
 299 -169 299 -169 272 -169 c 0,3,4
 255 -169 255 -169 242.5 -156.5 c 128,-1,5
 230 -144 230 -144 230 -129 c 0,6,7
 230 -117 230 -117 240 -96 c 2,8,-1
 915 1352 l 2,9,10
 926 1375 926 1375 936 1382 c 128,-1,11
 946 1389 946 1389 960 1389 c 0,12,13
 977 1389 977 1389 989.5 1376.5 c 128,-1,14
 1002 1364 1002 1364 1002 1349 c 0,15,16
 1002 1338 1002 1338 992 1316 c 2,0,-1
EndSplineSet
EndChar

StartChar: zero
Encoding: 48 48 18
Width: 1229
GlyphClass: 2
Flags: W
LayerCount: 2
Fore
SplineSet
179 611 m 0,0,1
 179 894 179 894 300 1074.5 c 128,-1,2
 421 1255 421 1255 615 1255 c 0,3,4
 810 1255 810 1255 930.5 1073.5 c 128,-1,5
 1051 892 1051 892 1051 611 c 0,6,7
 1051 331 1051 331 929 149 c 128,-1,8
 807 -33 807 -33 615 -33 c 256,9,10
 423 -33 423 -33 301 147 c 128,-1,11
 179 327 179 327 179 611 c 0,0,1
966 653 m 1,12,13
 962 877 962 877 869 1023.5 c 128,-1,14
 776 1170 776 1170 615 1170 c 0,15,16
 458 1170 458 1170 361 1023.5 c 128,-1,17
 264 877 264 877 263 653 c 1,18,-1
 966 653 l 1,12,13
263 568 m 1,19,20
 264 345 264 345 361 198 c 128,-1,21
 458 51 458 51 615 51 c 256,22,23
 772 51 772 51 868.5 197.5 c 128,-1,24
 965 344 965 344 966 568 c 1,25,-1
 263 568 l 1,19,20
EndSplineSet
EndChar

StartChar: one
Encoding: 49 49 19
Width: 1229
GlyphClass: 2
Flags: W
LayerCount: 2
Fore
SplineSet
656 1272 m 1,0,-1
 656 84 l 1,1,-1
 944 84 l 2,2,3
 974 84 974 84 987 72.5 c 128,-1,4
 1000 61 1000 61 1000 42 c 0,5,6
 1000 24 1000 24 987 12 c 128,-1,7
 974 0 974 0 944 0 c 2,8,-1
 284 0 l 2,9,10
 254 0 254 0 241 12 c 128,-1,11
 228 24 228 24 228 42 c 0,12,13
 228 61 228 61 241 72.5 c 128,-1,14
 254 84 254 84 284 84 c 2,15,-1
 572 84 l 1,16,-1
 572 1156 l 1,17,-1
 298 1070 l 2,18,19
 278 1064 278 1064 269 1064 c 0,20,21
 254 1064 254 1064 241.5 1076.5 c 128,-1,22
 229 1089 229 1089 229 1106 c 0,23,24
 229 1121 229 1121 239 1134 c 0,25,26
 247 1142 247 1142 272 1151 c 2,27,-1
 656 1272 l 1,0,-1
EndSplineSet
EndChar

StartChar: two
Encoding: 50 50 20
Width: 1229
GlyphClass: 2
Flags: W
LayerCount: 2
Fore
SplineSet
253 84 m 1,0,-1
 898 84 l 1,1,-1
 898 117 l 2,2,3
 898 147 898 147 910 160 c 128,-1,4
 922 173 922 173 941 173 c 0,5,6
 959 173 959 173 971 160 c 128,-1,7
 983 147 983 147 983 117 c 2,8,-1
 983 0 l 1,9,-1
 171 0 l 1,10,-1
 171 124 l 1,11,12
 427 354 427 354 669 592 c 0,13,14
 782 703 782 703 824 755 c 128,-1,15
 866 807 866 807 881.5 846.5 c 128,-1,16
 897 886 897 886 897 926 c 0,17,18
 897 1034 897 1034 810 1117 c 128,-1,19
 723 1200 723 1200 600 1200 c 0,20,21
 490 1200 490 1200 405 1137 c 128,-1,22
 320 1074 320 1074 295 981 c 0,23,24
 289 957 289 957 280 950 c 0,25,26
 268 940 268 940 252 940 c 0,27,28
 235 940 235 940 223.5 951.5 c 128,-1,29
 212 963 212 963 212 979 c 0,30,31
 212 1027 212 1027 264.5 1109 c 128,-1,32
 317 1191 317 1191 409.5 1238 c 128,-1,33
 502 1285 502 1285 599 1285 c 0,34,35
 756 1285 756 1285 869 1176 c 128,-1,36
 982 1067 982 1067 982 929 c 0,37,38
 982 871 982 871 963 822.5 c 128,-1,39
 944 774 944 774 898.5 716.5 c 128,-1,40
 853 659 853 659 735 543 c 0,41,42
 439 251 439 251 253 90 c 1,43,-1
 253 84 l 1,0,-1
EndSplineSet
EndChar

StartChar: three
Encoding: 51 51 21
Width: 1229
GlyphClass: 2
Flags: W
LayerCount: 2
Fore
SplineSet
787 683 m 1,0,1
 903 631 903 631 964 540.5 c 128,-1,2
 1025 450 1025 450 1025 352 c 0,3,4
 1025 201 1025 201 902.5 85.5 c 128,-1,5
 780 -30 780 -30 596 -30 c 0,6,7
 488 -30 488 -30 372 16 c 128,-1,8
 256 62 256 62 210 110 c 0,9,10
 195 126 195 126 195 144 c 0,11,12
 195 160 195 160 206.5 172 c 128,-1,13
 218 184 218 184 234 184 c 256,14,15
 250 184 250 184 270 169 c 0,16,17
 425 54 425 54 598 54 c 0,18,19
 744 54 744 54 842.5 145.5 c 128,-1,20
 941 237 941 237 941 349 c 0,21,22
 941 424 941 424 892.5 496 c 128,-1,23
 844 568 844 568 753 609.5 c 128,-1,24
 662 651 662 651 569 651 c 0,25,26
 539 651 539 651 526 662.5 c 128,-1,27
 513 674 513 674 513 693 c 0,28,29
 513 711 513 711 525.5 723 c 128,-1,30
 538 735 538 735 563 735 c 2,31,-1
 635 734 l 2,32,33
 748 734 748 734 821.5 803 c 128,-1,34
 895 872 895 872 895 963 c 0,35,36
 895 1057 895 1057 818 1129 c 128,-1,37
 741 1201 741 1201 617 1201 c 0,38,39
 530 1201 530 1201 457 1171 c 128,-1,40
 384 1141 384 1141 340 1089 c 0,41,42
 324 1069 324 1069 315.5 1064.5 c 128,-1,43
 307 1060 307 1060 296 1060 c 0,44,45
 279 1060 279 1060 267 1071.5 c 128,-1,46
 255 1083 255 1083 255 1099 c 0,47,48
 255 1139 255 1139 342 1200 c 0,49,50
 463 1285 463 1285 617 1285 c 0,51,52
 776 1285 776 1285 878 1189.5 c 128,-1,53
 980 1094 980 1094 980 962 c 0,54,55
 980 878 980 878 931 803 c 128,-1,56
 882 728 882 728 787 683 c 1,0,1
EndSplineSet
EndChar

StartChar: four
Encoding: 52 52 22
Width: 1229
GlyphClass: 2
Flags: W
LayerCount: 2
Fore
SplineSet
771 351 m 1,0,-1
 214 351 l 1,1,-1
 214 448 l 1,2,-1
 681 1255 l 1,3,-1
 856 1255 l 1,4,-1
 856 435 l 1,5,-1
 926 435 l 2,6,7
 957 435 957 435 970 423.5 c 128,-1,8
 983 412 983 412 983 393 c 0,9,10
 983 375 983 375 970 363 c 128,-1,11
 957 351 957 351 926 351 c 2,12,-1
 856 351 l 1,13,-1
 856 84 l 1,14,-1
 926 84 l 2,15,16
 957 84 957 84 970 72.5 c 128,-1,17
 983 61 983 61 983 42 c 0,18,19
 983 24 983 24 970 12 c 128,-1,20
 957 0 957 0 926 0 c 2,21,-1
 614 0 l 2,22,23
 583 0 583 0 570 12 c 128,-1,24
 557 24 557 24 557 42 c 0,25,26
 557 61 557 61 570 72.5 c 128,-1,27
 583 84 583 84 614 84 c 2,28,-1
 771 84 l 1,29,-1
 771 351 l 1,0,-1
771 435 m 1,30,-1
 771 1170 l 1,31,-1
 727 1170 l 1,32,-1
 302 435 l 1,33,-1
 771 435 l 1,30,-1
EndSplineSet
EndChar

StartChar: five
Encoding: 53 53 23
Width: 1229
GlyphClass: 2
Flags: W
LayerCount: 2
Fore
SplineSet
383 1170 m 1,0,-1
 383 759 l 1,1,2
 457 790 457 790 525 805.5 c 128,-1,3
 593 821 593 821 654 821 c 0,4,5
 812 821 812 821 918.5 710 c 128,-1,6
 1025 599 1025 599 1025 418 c 0,7,8
 1025 218 1025 218 905 94 c 128,-1,9
 785 -30 785 -30 605 -30 c 0,10,11
 486 -30 486 -30 376 23 c 0,12,13
 298 60 298 60 234 115 c 0,14,15
 196 148 196 148 196 170 c 0,16,17
 196 188 196 188 208 200.5 c 128,-1,18
 220 213 220 213 236 213 c 0,19,20
 253 213 253 213 272 195 c 0,21,22
 423 54 423 54 601 54 c 0,23,24
 748 54 748 54 844 154.5 c 128,-1,25
 940 255 940 255 940 422 c 0,26,27
 940 564 940 564 857 650.5 c 128,-1,28
 774 737 774 737 646 737 c 0,29,30
 515 737 515 737 384 668 c 0,31,32
 352 652 352 652 339 652 c 0,33,34
 321 652 321 652 310 664 c 128,-1,35
 299 676 299 676 299 698 c 2,36,-1
 299 1255 l 1,37,-1
 885 1255 l 2,38,39
 915 1255 915 1255 928 1243 c 128,-1,40
 941 1231 941 1231 941 1212 c 0,41,42
 941 1194 941 1194 928 1182 c 128,-1,43
 915 1170 915 1170 885 1170 c 2,44,-1
 383 1170 l 1,0,-1
EndSplineSet
EndChar

StartChar: six
Encoding: 54 54 24
Width: 1229
GlyphClass: 2
Flags: W
LayerCount: 2
Fore
SplineSet
364 531 m 1,0,1
 442 646 442 646 524.5 701 c 128,-1,2
 607 756 607 756 708 756 c 0,3,4
 842 756 842 756 946 644.5 c 128,-1,5
 1050 533 1050 533 1050 369 c 0,6,7
 1050 219 1050 219 955 94.5 c 128,-1,8
 860 -30 860 -30 693 -30 c 0,9,10
 584 -30 584 -30 489.5 37 c 128,-1,11
 395 104 395 104 341 243 c 0,12,13
 274 416 274 416 274 626 c 0,14,15
 274 784 274 784 337 920 c 0,16,17
 385 1025 385 1025 465 1104.5 c 128,-1,18
 545 1184 545 1184 651.5 1234.5 c 128,-1,19
 758 1285 758 1285 882 1285 c 0,20,21
 966 1285 966 1285 1022 1251 c 0,22,23
 1046 1236 1046 1236 1046 1211 c 0,24,25
 1046 1193 1046 1193 1035 1181.5 c 128,-1,26
 1024 1170 1024 1170 1007 1170 c 0,27,28
 994 1170 994 1170 976 1180 c 0,29,30
 935 1200 935 1200 874 1200 c 0,31,32
 679 1200 679 1200 518.5 1032.5 c 128,-1,33
 358 865 358 865 358 634 c 0,34,35
 358 601 358 601 364 531 c 1,0,1
383 392 m 1,36,37
 421 210 421 210 502.5 132 c 128,-1,38
 584 54 584 54 695 54 c 0,39,40
 807 54 807 54 886.5 141.5 c 128,-1,41
 966 229 966 229 966 369 c 0,42,43
 966 500 966 500 886 586 c 128,-1,44
 806 672 806 672 705 672 c 0,45,46
 608 672 608 672 518 589 c 0,47,48
 458 534 458 534 383 392 c 1,36,37
EndSplineSet
EndChar

StartChar: seven
Encoding: 55 55 25
Width: 1229
GlyphClass: 2
Flags: W
LayerCount: 2
Fore
SplineSet
897 1132 m 1,0,-1
 897 1170 l 1,1,-1
 295 1170 l 1,2,-1
 295 1096 l 2,3,4
 295 1066 295 1066 283.5 1053 c 128,-1,5
 272 1040 272 1040 253 1040 c 0,6,7
 235 1040 235 1040 223 1053 c 128,-1,8
 211 1066 211 1066 211 1096 c 2,9,-1
 211 1255 l 1,10,-1
 982 1255 l 1,11,-1
 982 1121 l 1,12,-1
 644 41 l 2,13,14
 636 15 636 15 625 6.5 c 128,-1,15
 614 -2 614 -2 600 -2 c 0,16,17
 582 -2 582 -2 570 10 c 128,-1,18
 558 22 558 22 558 38 c 0,19,20
 558 48 558 48 564 66 c 2,21,-1
 897 1132 l 1,0,-1
EndSplineSet
EndChar

StartChar: eight
Encoding: 56 56 26
Width: 1229
GlyphClass: 2
Flags: W
LayerCount: 2
Fore
SplineSet
787 651 m 1,0,1
 892 600 892 600 945.5 516.5 c 128,-1,2
 999 433 999 433 999 337 c 0,3,4
 999 188 999 188 887 79 c 128,-1,5
 775 -30 775 -30 615 -30 c 256,6,7
 455 -30 455 -30 343 79 c 128,-1,8
 231 188 231 188 231 337 c 0,9,10
 231 432 231 432 284.5 515.5 c 128,-1,11
 338 599 338 599 444 651 c 1,12,13
 352 704 352 704 310 761 c 0,14,15
 252 842 252 842 252 940 c 0,16,17
 252 1078 252 1078 358.5 1181.5 c 128,-1,18
 465 1285 465 1285 615 1285 c 0,19,20
 766 1285 766 1285 872 1181.5 c 128,-1,21
 978 1078 978 1078 978 940 c 0,22,23
 978 842 978 842 920 762 c 0,24,25
 879 704 879 704 787 651 c 1,0,1
892 937 m 0,26,27
 892 1045 892 1045 811.5 1122.5 c 128,-1,28
 731 1200 731 1200 614 1200 c 0,29,30
 498 1200 498 1200 417.5 1122 c 128,-1,31
 337 1044 337 1044 337 938 c 0,32,33
 337 840 337 840 416.5 766.5 c 128,-1,34
 496 693 496 693 614 693 c 0,35,36
 733 693 733 693 812.5 766.5 c 128,-1,37
 892 840 892 840 892 937 c 0,26,27
915 335 m 0,38,39
 915 446 915 446 829 528 c 128,-1,40
 743 610 743 610 615 610 c 256,41,42
 487 610 487 610 401 528 c 128,-1,43
 315 446 315 446 315 336 c 0,44,45
 315 222 315 222 401.5 138 c 128,-1,46
 488 54 488 54 615 54 c 256,47,48
 742 54 742 54 828.5 138 c 128,-1,49
 915 222 915 222 915 335 c 0,38,39
EndSplineSet
EndChar

StartChar: nine
Encoding: 57 57 27
Width: 1229
GlyphClass: 2
Flags: W
LayerCount: 2
Fore
SplineSet
959 710 m 1,0,1
 894 595 894 595 804.5 537 c 128,-1,2
 715 479 715 479 621 479 c 0,3,4
 534 479 534 479 452.5 529 c 128,-1,5
 371 579 371 579 323 675.5 c 128,-1,6
 275 772 275 772 275 878 c 0,7,8
 275 1032 275 1032 370.5 1158.5 c 128,-1,9
 466 1285 466 1285 626 1285 c 0,10,11
 740 1285 740 1285 834 1214 c 128,-1,12
 928 1143 928 1143 980 1008 c 0,13,14
 1047 835 1047 835 1047 606 c 0,15,16
 1047 428 1047 428 990 310 c 0,17,18
 952 230 952 230 878.5 155 c 128,-1,19
 805 80 805 80 713 33 c 0,20,21
 587 -30 587 -30 451 -30 c 0,22,23
 361 -30 361 -30 304 4 c 0,24,25
 278 20 278 20 278 44 c 0,26,27
 278 61 278 61 290 72.5 c 128,-1,28
 302 84 302 84 319 84 c 0,29,30
 331 84 331 84 354 73 c 0,31,32
 393 54 393 54 444 54 c 0,33,34
 657 54 657 54 810 207.5 c 128,-1,35
 963 361 963 361 963 592 c 0,36,37
 963 634 963 634 959 710 c 1,0,1
943 850 m 1,38,39
 890 1053 890 1053 811.5 1126.5 c 128,-1,40
 733 1200 733 1200 628 1200 c 0,41,42
 521 1200 521 1200 440 1110 c 128,-1,43
 359 1020 359 1020 359 879 c 0,44,45
 359 742 359 742 440 652.5 c 128,-1,46
 521 563 521 563 623 563 c 0,47,48
 682 563 682 563 739.5 595 c 128,-1,49
 797 627 797 627 848 691 c 0,50,51
 881 734 881 734 943 850 c 1,38,39
EndSplineSet
EndChar

StartChar: colon
Encoding: 58 58 28
Width: 1229
GlyphClass: 2
Flags: W
LayerCount: 2
Fore
SplineSet
618 781 m 1,0,-1
 618 134 l 2,1,2
 618 51 618 51 698 51 c 0,3,4
 746 51 746 51 805 77 c 0,5,6
 836 91 836 91 847 91 c 0,7,8
 885 91 885 91 885 48 c 0,9,10
 885 9 885 9 819.5 -12 c 128,-1,11
 754 -33 754 -33 687 -33 c 0,12,13
 533 -33 533 -33 533 113 c 2,14,-1
 533 781 l 1,15,-1
 397 781 l 2,16,17
 364 781 364 781 285 774 c 0,18,19
 267 772 267 772 256 772 c 0,20,21
 208 772 208 772 208 814 c 0,22,23
 208 845 208 845 242 855.5 c 128,-1,24
 276 866 276 866 378 866 c 2,25,-1
 874 866 l 2,26,27
 930 866 930 866 930 823 c 0,28,29
 930 781 930 781 874 781 c 2,30,-1
 618 781 l 1,0,-1
EndSplineSet
EndChar

StartChar: semicolon
Encoding: 59 59 29
AltUni2: 00037e.ffffffff.0
Width: 1229
GlyphClass: 2
Flags: W
LayerCount: 2
Fore
SplineSet
1051 824 m 0,0,1
 1051 781 1051 781 1010 781 c 2,2,-1
 862 781 l 1,3,-1
 862 244 l 2,4,5
 862 129 862 129 773 48 c 128,-1,6
 684 -33 684 -33 566 -33 c 0,7,8
 405 -33 405 -33 257 103 c 1,9,-1
 257 332 l 2,10,11
 257 374 257 374 300 374 c 256,12,13
 343 374 343 374 343 332 c 2,14,-1
 343 143 l 1,15,16
 442 52 442 52 566 52 c 0,17,18
 659 52 659 52 718 103.5 c 128,-1,19
 777 155 777 155 777 244 c 2,20,-1
 777 781 l 1,21,-1
 534 781 l 2,22,23
 491 781 491 781 491 824 c 0,24,25
 491 866 491 866 534 866 c 2,26,-1
 1010 866 l 2,27,28
 1051 866 1051 866 1051 824 c 0,0,1
EndSplineSet
EndChar

StartChar: less
Encoding: 60 60 30
Width: 1229
GlyphClass: 2
Flags: W
LayerCount: 2
Fore
SplineSet
940 713 m 1,0,-1
 940 866 l 1,1,-1
 1137 866 l 2,2,3
 1168 866 1168 866 1181 854 c 128,-1,4
 1194 842 1194 842 1194 823 c 0,5,6
 1194 805 1194 805 1181 793 c 128,-1,7
 1168 781 1168 781 1137 781 c 2,8,-1
 1025 781 l 1,9,-1
 1025 -302 l 1,10,-1
 1137 -302 l 2,11,12
 1168 -302 1168 -302 1181 -313.5 c 128,-1,13
 1194 -325 1194 -325 1194 -344 c 0,14,15
 1194 -362 1194 -362 1181 -374 c 128,-1,16
 1168 -386 1168 -386 1137 -386 c 2,17,-1
 737 -386 l 2,18,19
 707 -386 707 -386 694 -374.5 c 128,-1,20
 681 -363 681 -363 681 -344 c 256,21,22
 681 -325 681 -325 694 -313.5 c 128,-1,23
 707 -302 707 -302 737 -302 c 2,24,-1
 940 -302 l 1,25,-1
 940 204 l 1,26,27
 801 21 801 21 575 21 c 0,28,29
 387 21 387 21 257.5 149.5 c 128,-1,30
 128 278 128 278 128 459 c 0,31,32
 128 641 128 641 257.5 768.5 c 128,-1,33
 387 896 387 896 577 896 c 0,34,35
 801 896 801 896 940 713 c 1,0,-1
940 459 m 256,36,37
 940 604 940 604 834 707.5 c 128,-1,38
 728 811 728 811 576 811 c 256,39,40
 424 811 424 811 318 707.5 c 128,-1,41
 212 604 212 604 212 459 c 256,42,43
 212 314 212 314 318 210 c 128,-1,44
 424 106 424 106 576 106 c 256,45,46
 728 106 728 106 834 210 c 128,-1,47
 940 314 940 314 940 459 c 256,36,37
EndSplineSet
EndChar

StartChar: equal
Encoding: 61 61 31
Width: 1229
GlyphClass: 2
Flags: W
LayerCount: 2
Fore
SplineSet
904 0 m 1,0,-1
 800 -1 l 1,1,-1
 615 539 l 1,2,-1
 431 -1 l 1,3,-1
 327 0 l 1,4,-1
 153 781 l 1,5,-1
 112 781 l 2,6,7
 82 781 82 781 69 793 c 128,-1,8
 56 805 56 805 56 824 c 0,9,10
 56 842 56 842 69 854 c 128,-1,11
 82 866 82 866 112 866 c 2,12,-1
 343 866 l 2,13,14
 373 866 373 866 386 854 c 128,-1,15
 399 842 399 842 399 823 c 0,16,17
 399 805 399 805 386 793 c 128,-1,18
 373 781 373 781 343 781 c 2,19,-1
 236 781 l 1,20,-1
 385 115 l 1,21,-1
 564 647 l 1,22,-1
 664 647 l 1,23,-1
 848 115 l 1,24,-1
 991 781 l 1,25,-1
 885 781 l 2,26,27
 855 781 855 781 841.5 793 c 128,-1,28
 828 805 828 805 828 824 c 0,29,30
 828 842 828 842 841 854 c 128,-1,31
 854 866 854 866 885 866 c 2,32,-1
 1115 866 l 2,33,34
 1146 866 1146 866 1159 854 c 128,-1,35
 1172 842 1172 842 1172 823 c 0,36,37
 1172 805 1172 805 1159 793 c 128,-1,38
 1146 781 1146 781 1115 781 c 2,39,-1
 1075 781 l 1,40,-1
 904 0 l 1,0,-1
EndSplineSet
EndChar

StartChar: greater
Encoding: 62 62 32
Width: 1229
GlyphClass: 2
Flags: W
LayerCount: 2
Fore
SplineSet
672 453 m 1,0,-1
 1057 84 l 1,1,2
 1095 84 1095 84 1105 80.5 c 128,-1,3
 1115 77 1115 77 1122.5 66 c 128,-1,4
 1130 55 1130 55 1130 42 c 0,5,6
 1130 24 1130 24 1117 12 c 128,-1,7
 1104 0 1104 0 1073 0 c 2,8,-1
 803 0 l 2,9,10
 772 0 772 0 759 12 c 128,-1,11
 746 24 746 24 746 42 c 0,12,13
 746 61 746 61 759 72.5 c 128,-1,14
 772 84 772 84 803 84 c 2,15,-1
 942 84 l 1,16,-1
 615 397 l 1,17,-1
 290 84 l 1,18,-1
 430 84 l 2,19,20
 460 84 460 84 473 72.5 c 128,-1,21
 486 61 486 61 486 42 c 0,22,23
 486 24 486 24 473 12 c 128,-1,24
 460 0 460 0 430 0 c 2,25,-1
 157 0 l 2,26,27
 127 0 127 0 114 12 c 128,-1,28
 101 24 101 24 101 42 c 0,29,30
 101 55 101 55 108.5 66 c 128,-1,31
 116 77 116 77 125.5 80.5 c 128,-1,32
 135 84 135 84 173 84 c 1,33,-1
 558 453 l 1,34,-1
 216 781 l 1,35,36
 180 781 180 781 170.5 785 c 128,-1,37
 161 789 161 789 153.5 800 c 128,-1,38
 146 811 146 811 146 824 c 0,39,40
 146 842 146 842 159 854 c 128,-1,41
 172 866 172 866 203 866 c 2,42,-1
 432 866 l 2,43,44
 463 866 463 866 475.5 854 c 128,-1,45
 488 842 488 842 488 823 c 0,46,47
 488 805 488 805 475.5 793 c 128,-1,48
 463 781 463 781 432 781 c 2,49,-1
 332 781 l 1,50,-1
 615 508 l 1,51,-1
 900 781 l 1,52,-1
 800 781 l 2,53,54
 770 781 770 781 756.5 793 c 128,-1,55
 743 805 743 805 743 824 c 0,56,57
 743 842 743 842 756 854 c 128,-1,58
 769 866 769 866 800 866 c 2,59,-1
 1029 866 l 2,60,61
 1059 866 1059 866 1072 854 c 128,-1,62
 1085 842 1085 842 1085 823 c 0,63,64
 1085 811 1085 811 1077.5 800 c 128,-1,65
 1070 789 1070 789 1060.5 785 c 128,-1,66
 1051 781 1051 781 1015 781 c 1,67,-1
 672 453 l 1,0,-1
EndSplineSet
EndChar

StartChar: question
Encoding: 63 63 33
Width: 1229
GlyphClass: 2
Flags: W
LayerCount: 2
Fore
SplineSet
49.263671875 825.389648438 m 260,0,1
 49.8720703125 867.384765625 49.8720703125 867.384765625 104.866210938 866.587890625 c 6,2,-1
 773.795898438 856.893554688 l 5,3,-1
 771.056640625 667.913085938 l 6,4,5
 770.24609375 611.918945312 770.24609375 611.918945312 727.25 612.541992188 c 4,6,7
 685.254882812 613.150390625 685.254882812 613.150390625 686.06640625 669.14453125 c 6,8,-1
 687.587890625 774.133789062 l 5,9,-1
 230.635742188 780.755859375 l 5,10,-1
 225.607421875 433.79296875 l 5,11,-1
 452.583007812 430.502929688 l 5,12,-1
 453.379882812 485.497070312 l 6,13,14
 454.19140625 541.491210938 454.19140625 541.491210938 496.1875 540.8828125 c 4,15,16
 539.182617188 540.259765625 539.182617188 540.259765625 538.37109375 484.265625 c 6,17,-1
 535.560546875 290.286132812 l 6,18,19
 534.749023438 234.291992188 534.749023438 234.291992188 491.752929688 234.915039062 c 4,20,21
 449.7578125 235.5234375 449.7578125 235.5234375 450.569335938 291.517578125 c 6,22,-1
 451.366210938 346.51171875 l 5,23,-1
 224.389648438 349.801757812 l 5,24,-1
 220.53515625 83.8291015625 l 5,25,-1
 275.529296875 83.0322265625 l 6,26,27
 316.525390625 82.4384765625 316.525390625 82.4384765625 315.887695312 38.4423828125 c 4,28,29
 315.29296875 -2.552734375 315.29296875 -2.552734375 274.297851562 -1.958984375 c 6,30,-1
 78.318359375 0.8818359375 l 6,31,32
 37.322265625 1.4755859375 37.322265625 1.4755859375 37.9169921875 42.4716796875 c 4,33,34
 38.5546875 86.466796875 38.5546875 86.466796875 79.5498046875 85.873046875 c 6,35,-1
 136.543945312 85.046875 l 5,36,-1
 146.64453125 781.973632812 l 5,37,-1
 104.6484375 782.58203125 l 6,38,39
 48.654296875 783.393554688 48.654296875 783.393554688 49.263671875 825.389648438 c 260,0,1
EndSplineSet
EndChar

StartChar: at
Encoding: 64 64 34
Width: 1229
GlyphClass: 2
Flags: W
LayerCount: 2
Fore
SplineSet
859 302 m 1,0,-1
 859 313 l 1,1,2
 834 309 834 309 813 307 c 128,-1,3
 792 305 792 305 774 305 c 0,4,5
 651 305 651 305 572.5 381 c 128,-1,6
 494 457 494 457 494 565 c 0,7,8
 494 688 494 688 591.5 776.5 c 128,-1,9
 689 865 689 865 859 865 c 1,10,-1
 859 962 l 2,11,12
 859 1072 859 1072 791 1142 c 128,-1,13
 723 1212 723 1212 621 1212 c 0,14,15
 550 1212 550 1212 487 1176 c 0,16,17
 444 1151 444 1151 416 1115 c 0,18,19
 368 1052 368 1052 333.5 963.5 c 128,-1,20
 299 875 299 875 299 744 c 2,21,-1
 299 413 l 2,22,23
 299 219 299 219 388.5 86.5 c 128,-1,24
 478 -46 478 -46 630 -46 c 0,25,26
 780 -46 780 -46 855 25 c 0,27,28
 872 41 872 41 888 41 c 0,29,30
 905 41 905 41 917 29 c 128,-1,31
 929 17 929 17 929 1 c 0,32,33
 929 -31 929 -31 869 -69 c 0,34,35
 773 -130 773 -130 618 -130 c 0,36,37
 538 -130 538 -130 471.5 -100.5 c 128,-1,38
 405 -71 405 -71 360 -19 c 0,39,40
 332 12 332 12 293 87 c 128,-1,41
 254 162 254 162 238 220 c 0,42,43
 215 301 215 301 215 413 c 2,44,-1
 215 749 l 2,45,46
 215 1005 215 1005 351 1167 c 0,47,48
 459 1297 459 1297 617 1297 c 0,49,50
 699 1297 699 1297 768 1262.5 c 128,-1,51
 837 1228 837 1228 890 1147.5 c 128,-1,52
 943 1067 943 1067 943 962 c 2,53,-1
 943 386 l 1,54,55
 963 384 963 384 973 373 c 128,-1,56
 983 362 983 362 983 345 c 0,57,58
 983 332 983 332 976.5 321.5 c 128,-1,59
 970 311 970 311 960.5 306.5 c 128,-1,60
 951 302 951 302 927 302 c 2,61,-1
 859 302 l 1,0,-1
859 782 m 1,62,63
 727 781 727 781 652.5 716 c 128,-1,64
 578 651 578 651 578 567 c 0,65,66
 578 491 578 491 632.5 440 c 128,-1,67
 687 389 687 389 785 389 c 0,68,69
 802 389 802 389 820.5 391.5 c 128,-1,70
 839 394 839 394 859 398 c 1,71,-1
 859 782 l 1,62,63
EndSplineSet
EndChar

StartChar: A
Encoding: 65 65 35
Width: 1229
GlyphClass: 2
Flags: W
LayerCount: 2
Fore
SplineSet
597 866 m 2,0,-1
 633 866 l 2,1,2
 689 866 689 866 729 826 c 128,-1,3
 769 786 769 786 769 731 c 0,4,5
 769 672 769 672 728.5 633 c 128,-1,6
 688 594 688 594 633 594 c 2,7,-1
 597 594 l 2,8,9
 541 594 541 594 501 634 c 128,-1,10
 461 674 461 674 461 729 c 0,11,12
 461 788 461 788 501.5 827 c 128,-1,13
 542 866 542 866 597 866 c 2,0,-1
597 241 m 2,14,-1
 633 241 l 2,15,16
 689 241 689 241 729 201.5 c 128,-1,17
 769 162 769 162 769 106 c 0,18,19
 769 48 769 48 728.5 9 c 128,-1,20
 688 -30 688 -30 633 -30 c 2,21,-1
 597 -30 l 2,22,23
 541 -30 541 -30 501 9.5 c 128,-1,24
 461 49 461 49 461 105 c 0,25,26
 461 163 461 163 501.5 202 c 128,-1,27
 542 241 542 241 597 241 c 2,14,-1
EndSplineSet
EndChar

StartChar: B
Encoding: 66 66 36
Width: 1229
GlyphClass: 2
Flags: W
LayerCount: 2
Fore
SplineSet
596 866 m 2,0,-1
 633 866 l 2,1,2
 689 866 689 866 728.5 826 c 128,-1,3
 768 786 768 786 768 731 c 0,4,5
 768 672 768 672 728 633 c 128,-1,6
 688 594 688 594 633 594 c 2,7,-1
 596 594 l 2,8,9
 540 594 540 594 500.5 634 c 128,-1,10
 461 674 461 674 461 729 c 0,11,12
 461 788 461 788 501.5 827 c 128,-1,13
 542 866 542 866 596 866 c 2,0,-1
450 302 m 1,14,-1
 714 302 l 1,15,-1
 431 -162 l 2,16,17
 410 -196 410 -196 397.5 -205 c 128,-1,18
 385 -214 385 -214 368 -214 c 0,19,20
 344 -214 344 -214 328 -199 c 128,-1,21
 312 -184 312 -184 312 -163 c 0,22,23
 312 -151 312 -151 318 -132 c 2,24,-1
 450 302 l 1,14,-1
EndSplineSet
EndChar

StartChar: C
Encoding: 67 67 37
Width: 1229
GlyphClass: 2
Flags: W
LayerCount: 2
Fore
SplineSet
98 583 m 1,0,-1
 1006 1089 l 2,1,2
 1028 1101 1028 1101 1039 1101 c 0,3,4
 1056 1101 1056 1101 1068.5 1088.5 c 128,-1,5
 1081 1076 1081 1076 1081 1059 c 0,6,7
 1081 1034 1081 1034 1047 1015 c 2,8,-1
 269 583 l 1,9,-1
 1046 151 l 2,10,11
 1080 132 1080 132 1080 107 c 0,12,13
 1080 90 1080 90 1067.5 77.5 c 128,-1,14
 1055 65 1055 65 1038 65 c 0,15,16
 1027 65 1027 65 1005 77 c 2,17,-1
 98 583 l 1,0,-1
EndSplineSet
EndChar

StartChar: D
Encoding: 68 68 38
Width: 1229
GlyphClass: 2
Flags: W
LayerCount: 2
Fore
SplineSet
1073 695 m 2,0,-1
 157 695 l 2,1,2
 127 695 127 695 114 707 c 128,-1,3
 101 719 101 719 101 738 c 0,4,5
 101 756 101 756 114 768 c 128,-1,6
 127 780 127 780 157 780 c 2,7,-1
 1073 780 l 2,8,9
 1103 780 1103 780 1116 768 c 128,-1,10
 1129 756 1129 756 1129 737 c 0,11,12
 1129 719 1129 719 1116 707 c 128,-1,13
 1103 695 1103 695 1073 695 c 2,0,-1
1073 394 m 2,14,-1
 157 394 l 2,15,16
 127 394 127 394 114 405.5 c 128,-1,17
 101 417 101 417 101 436 c 256,18,19
 101 455 101 455 114 466.5 c 128,-1,20
 127 478 127 478 157 478 c 2,21,-1
 1073 478 l 2,22,23
 1103 478 1103 478 1116 466.5 c 128,-1,24
 1129 455 1129 455 1129 436 c 256,25,26
 1129 417 1129 417 1116 405.5 c 128,-1,27
 1103 394 1103 394 1073 394 c 2,14,-1
EndSplineSet
EndChar

StartChar: E
Encoding: 69 69 39
Width: 1229
GlyphClass: 2
Flags: W
LayerCount: 2
Fore
SplineSet
1131 583 m 1,0,-1
 223 77 l 2,1,2
 201 65 201 65 190 65 c 0,3,4
 173 65 173 65 160.5 77.5 c 128,-1,5
 148 90 148 90 148 107 c 0,6,7
 148 132 148 132 182 151 c 2,8,-1
 960 583 l 1,9,-1
 183 1015 l 2,10,11
 149 1034 149 1034 149 1059 c 0,12,13
 149 1076 149 1076 161.5 1088.5 c 128,-1,14
 174 1101 174 1101 191 1101 c 0,15,16
 202 1101 202 1101 224 1089 c 2,17,-1
 1131 583 l 1,0,-1
EndSplineSet
EndChar

StartChar: F
Encoding: 70 70 40
Width: 1229
GlyphClass: 2
Flags: W
LayerCount: 2
Fore
SplineSet
660 514 m 1,0,-1
 660 429 l 2,1,2
 660 399 660 399 648 386 c 128,-1,3
 636 373 636 373 618 373 c 0,4,5
 599 373 599 373 587 386 c 128,-1,6
 575 399 575 399 575 429 c 2,7,-1
 575 570 l 1,8,9
 794 651 794 651 874 732 c 0,10,11
 919 777 919 777 919 845 c 0,12,13
 919 957 919 957 837.5 1036.5 c 128,-1,14
 756 1116 756 1116 626 1116 c 0,15,16
 560 1116 560 1116 501.5 1101 c 128,-1,17
 443 1086 443 1086 359 1045 c 1,18,-1
 359 959 l 2,19,20
 359 929 359 929 347.5 916 c 128,-1,21
 336 903 336 903 317 903 c 0,22,23
 299 903 299 903 287 916 c 128,-1,24
 275 929 275 929 275 959 c 2,25,-1
 275 1100 l 1,26,27
 431 1169 431 1169 477 1181 c 0,28,29
 555 1200 555 1200 633 1200 c 0,30,31
 800 1200 800 1200 901.5 1100 c 128,-1,32
 1003 1000 1003 1000 1003 847 c 0,33,34
 1003 753 1003 753 942.5 680.5 c 128,-1,35
 882 608 882 608 660 514 c 1,0,-1
574 178 m 2,36,-1
 658 178 l 2,37,38
 702 178 702 178 732.5 147.5 c 128,-1,39
 763 117 763 117 763 74 c 0,40,41
 763 30 763 30 731.5 0 c 128,-1,42
 700 -30 700 -30 658 -30 c 2,43,-1
 574 -30 l 2,44,45
 531 -30 531 -30 500.5 0.5 c 128,-1,46
 470 31 470 31 470 73 c 0,47,48
 470 118 470 118 501 148 c 128,-1,49
 532 178 532 178 574 178 c 2,36,-1
EndSplineSet
EndChar

StartChar: G
Encoding: 71 71 41
Width: 1229
GlyphClass: 2
Flags: W
LayerCount: 2
Fore
SplineSet
1073 846 m 2,0,-1
 157 846 l 2,1,2
 127 846 127 846 114 858 c 128,-1,3
 101 870 101 870 101 888 c 0,4,5
 101 907 101 907 114 919 c 128,-1,6
 127 931 127 931 157 931 c 2,7,-1
 1073 931 l 2,8,9
 1103 930 1103 930 1116 918.5 c 128,-1,10
 1129 907 1129 907 1129 888 c 0,11,12
 1129 870 1129 870 1116 858 c 128,-1,13
 1103 846 1103 846 1073 846 c 2,0,-1
1073 544 m 2,14,-1
 157 544 l 2,15,16
 127 544 127 544 114 556 c 128,-1,17
 101 568 101 568 101 587 c 0,18,19
 101 605 101 605 114 617 c 128,-1,20
 127 629 127 629 157 629 c 2,21,-1
 1073 629 l 2,22,23
 1103 629 1103 629 1116 617 c 128,-1,24
 1129 605 1129 605 1129 587 c 0,25,26
 1129 568 1129 568 1116 556 c 128,-1,27
 1103 544 1103 544 1073 544 c 2,14,-1
1073 243 m 2,28,-1
 157 243 l 2,29,30
 127 243 127 243 114 254.5 c 128,-1,31
 101 266 101 266 101 285 c 256,32,33
 101 304 101 304 114 315.5 c 128,-1,34
 127 327 127 327 157 327 c 2,35,-1
 1073 327 l 2,36,37
 1103 327 1103 327 1116 315.5 c 128,-1,38
 1129 304 1129 304 1129 285 c 256,39,40
 1129 266 1129 266 1116 254.5 c 128,-1,41
 1103 243 1103 243 1073 243 c 2,28,-1
EndSplineSet
EndChar

StartChar: H
Encoding: 72 72 42
Width: 1229
GlyphClass: 2
Flags: W
LayerCount: 2
Fore
SplineSet
712 695 m 1,0,-1
 612 478 l 1,1,-1
 1073 478 l 2,2,3
 1103 478 1103 478 1116 466.5 c 128,-1,4
 1129 455 1129 455 1129 436 c 256,5,6
 1129 417 1129 417 1116 405.5 c 128,-1,7
 1103 394 1103 394 1073 394 c 2,8,-1
 573 394 l 1,9,-1
 376 -35 l 2,10,11
 359 -72 359 -72 331 -72 c 0,12,13
 314 -72 314 -72 301.5 -60 c 128,-1,14
 289 -48 289 -48 289 -32 c 0,15,16
 289 -21 289 -21 299 0 c 2,17,-1
 480 394 l 1,18,-1
 157 394 l 2,19,20
 127 394 127 394 114 405.5 c 128,-1,21
 101 417 101 417 101 436 c 256,22,23
 101 455 101 455 114 466.5 c 128,-1,24
 127 478 127 478 157 478 c 2,25,-1
 519 478 l 1,26,-1
 619 695 l 1,27,-1
 157 695 l 2,28,29
 127 695 127 695 114 707 c 128,-1,30
 101 719 101 719 101 738 c 0,31,32
 101 756 101 756 114 768 c 128,-1,33
 127 780 127 780 157 780 c 2,34,-1
 657 780 l 1,35,-1
 854 1207 l 2,36,37
 871 1244 871 1244 898 1244 c 0,38,39
 916 1244 916 1244 928 1231.5 c 128,-1,40
 940 1219 940 1219 940 1204 c 0,41,42
 940 1193 940 1193 931 1171 c 2,43,-1
 750 780 l 1,44,-1
 1073 780 l 2,45,46
 1103 780 1103 780 1116 768 c 128,-1,47
 1129 756 1129 756 1129 737 c 0,48,49
 1129 719 1129 719 1116 707 c 128,-1,50
 1103 695 1103 695 1073 695 c 2,51,-1
 712 695 l 1,0,-1
EndSplineSet
EndChar

StartChar: I
Encoding: 73 73 43
Width: 1534
GlyphClass: 2
Flags: W
LayerCount: 2
Fore
SplineSet
657 780 m 5,0,-1
 657 84 l 1,1,-1
 945 84 l 2,2,3
 975 84 975 84 988 72.5 c 128,-1,4
 1001 61 1001 61 1001 42 c 0,5,6
 1001 24 1001 24 988 12 c 128,-1,7
 975 0 975 0 945 0 c 2,8,-1
 285 0 l 2,9,10
 255 0 255 0 242 12 c 128,-1,11
 229 24 229 24 229 42 c 0,12,13
 229 61 229 61 242 72.5 c 128,-1,14
 255 84 255 84 285 84 c 2,15,-1
 573 84 l 1,16,-1
 573 780 l 5,17,-1
 285 780 l 6,18,19
 255 780 255 780 242 791.5 c 132,-1,20
 229 803 229 803 229 822 c 260,21,22
 229 841 229 841 242 852.5 c 132,-1,23
 255 864 255 864 285 864 c 6,24,-1
 945 864 l 6,25,26
 975 864 975 864 988 852.5 c 132,-1,27
 1001 841 1001 841 1001 822 c 260,28,29
 1001 803 1001 803 988 791.5 c 132,-1,30
 975 780 975 780 945 780 c 6,31,-1
 657 780 l 5,0,-1
EndSplineSet
EndChar

StartChar: J
Encoding: 74 74 44
Width: 1229
GlyphClass: 2
Flags: W
LayerCount: 2
Fore
SplineSet
270 568 m 1,0,-1
 319 568 l 1,1,2
 281 491 281 491 262 461 c 128,-1,3
 243 431 243 431 193 368 c 1,4,-1
 1227 368 l 1,5,-1
 1227 302 l 1,6,-1
 193 302 l 1,7,8
 260 231 260 231 321 102 c 1,9,-1
 271 102 l 1,10,11
 188 195 188 195 127 243.5 c 128,-1,12
 66 292 66 292 2 322 c 1,13,-1
 2 352 l 1,14,15
 119 402 119 402 270 568 c 1,0,-1
EndSplineSet
EndChar

StartChar: K
Encoding: 75 75 45
Width: 1229
GlyphClass: 2
Flags: W
LayerCount: 2
Fore
SplineSet
98 884 m 1,0,-1
 1006 1390 l 2,1,2
 1028 1403 1028 1403 1039 1403 c 0,3,4
 1056 1403 1056 1403 1068.5 1390.5 c 128,-1,5
 1081 1378 1081 1378 1081 1361 c 0,6,7
 1081 1335 1081 1335 1047 1317 c 2,8,-1
 269 885 l 1,9,-1
 1046 453 l 2,10,11
 1080 434 1080 434 1080 409 c 0,12,13
 1080 392 1080 392 1067.5 379.5 c 128,-1,14
 1055 367 1055 367 1038 367 c 0,15,16
 1027 367 1027 367 1005 379 c 2,17,-1
 98 884 l 1,0,-1
961 181 m 2,18,-1
 217 181 l 2,19,20
 139 181 139 181 131 183 c 0,21,22
 118 186 118 186 109.5 197.5 c 128,-1,23
 101 209 101 209 101 223 c 256,24,25
 101 237 101 237 109.5 248.5 c 128,-1,26
 118 260 118 260 130 263 c 0,27,28
 139 265 139 265 217 265 c 2,29,-1
 961 265 l 2,30,31
 1040 265 1040 265 1048 263 c 0,32,33
 1061 260 1061 260 1069.5 248.5 c 128,-1,34
 1078 237 1078 237 1078 223 c 256,35,36
 1078 209 1078 209 1069.5 197.5 c 128,-1,37
 1061 186 1061 186 1048 183 c 0,38,39
 1040 181 1040 181 961 181 c 2,18,-1
EndSplineSet
EndChar

StartChar: L
Encoding: 76 76 46
Width: 1229
GlyphClass: 2
Flags: W
LayerCount: 2
Fore
SplineSet
959 568 m 1,0,1
 1109 402 1109 402 1227 352 c 1,2,-1
 1227 322 l 1,3,4
 1162 292 1162 292 1101.5 243.5 c 128,-1,5
 1041 195 1041 195 958 102 c 1,6,-1
 908 102 l 1,7,8
 969 232 969 232 1036 302 c 1,9,-1
 2 302 l 1,10,-1
 2 368 l 1,11,-1
 1036 368 l 1,12,13
 987 429 987 429 967.5 460.5 c 128,-1,14
 948 492 948 492 909 568 c 1,15,-1
 959 568 l 1,0,1
EndSplineSet
EndChar

StartChar: Q
Encoding: 81 81 47
Width: 1229
GlyphClass: 2
Flags: W
LayerCount: 2
Fore
SplineSet
99 434 m 1,0,-1
 547 844 l 2,1,2
 573 868 573 868 591 868 c 256,3,4
 609 868 609 868 621 856 c 128,-1,5
 633 844 633 844 633 825 c 0,6,7
 633 809 633 809 610 784 c 2,8,-1
 297 434 l 1,9,-1
 610 85 l 2,10,11
 633 60 633 60 633 43 c 0,12,13
 633 25 633 25 621 13 c 128,-1,14
 609 1 609 1 591 1 c 256,15,16
 573 1 573 1 547 24 c 2,17,-1
 99 434 l 1,0,-1
568 434 m 1,18,-1
 1016 844 l 2,19,20
 1042 868 1042 868 1060 868 c 256,21,22
 1078 868 1078 868 1090 856 c 128,-1,23
 1102 844 1102 844 1102 825 c 0,24,25
 1102 809 1102 809 1080 784 c 2,26,-1
 767 434 l 1,27,-1
 1080 85 l 2,28,29
 1102 60 1102 60 1102 43 c 0,30,31
 1102 25 1102 25 1090 13 c 128,-1,32
 1078 1 1078 1 1060 1 c 256,33,34
 1042 1 1042 1 1016 24 c 2,35,-1
 568 434 l 1,18,-1
EndSplineSet
EndChar

StartChar: R
Encoding: 82 82 48
Width: 1229
GlyphClass: 2
Flags: W
LayerCount: 2
Fore
SplineSet
661 434 m 1,0,-1
 212 24 l 2,1,2
 187 1 187 1 169 1 c 256,3,4
 151 1 151 1 139 13 c 128,-1,5
 127 25 127 25 127 43 c 0,6,7
 127 60 127 60 149 85 c 2,8,-1
 462 434 l 1,9,-1
 149 784 l 2,10,11
 127 809 127 809 127 826 c 0,12,13
 127 844 127 844 139 856 c 128,-1,14
 151 868 151 868 169 868 c 256,15,16
 187 868 187 868 212 844 c 2,17,-1
 661 434 l 1,0,-1
1130 434 m 1,18,-1
 682 24 l 2,19,20
 656 1 656 1 638 1 c 256,21,22
 620 1 620 1 608 13 c 128,-1,23
 596 25 596 25 596 43 c 0,24,25
 596 60 596 60 618 85 c 2,26,-1
 931 434 l 1,27,-1
 618 784 l 2,28,29
 596 809 596 809 596 826 c 0,30,31
 596 844 596 844 608 856 c 128,-1,32
 620 868 620 868 638 868 c 256,33,34
 656 868 656 868 682 844 c 2,35,-1
 1130 434 l 1,18,-1
EndSplineSet
EndChar

StartChar: S
Encoding: 83 83 49
Width: 1229
GlyphClass: 2
Flags: W
LayerCount: 2
Fore
SplineSet
1016 -302 m 1,0,-1
 1016 -37 l 2,1,2
 1016 -7 1016 -7 1028 6 c 128,-1,3
 1040 19 1040 19 1059 19 c 0,4,5
 1077 19 1077 19 1089 6 c 128,-1,6
 1101 -7 1101 -7 1101 -37 c 2,7,-1
 1101 -386 l 1,8,-1
 43 -386 l 1,9,-1
 43 -296 l 1,10,-1
 566 448 l 1,11,-1
 60 1176 l 1,12,-1
 60 1255 l 1,13,-1
 1095 1255 l 1,14,-1
 1095 936 l 2,15,16
 1095 906 1095 906 1083.5 893 c 128,-1,17
 1072 880 1072 880 1053 880 c 256,18,19
 1034 880 1034 880 1022.5 893 c 128,-1,20
 1011 906 1011 906 1011 936 c 2,21,-1
 1011 1170 l 1,22,-1
 156 1170 l 1,23,-1
 663 456 l 1,24,-1
 140 -302 l 1,25,-1
 1016 -302 l 1,0,-1
EndSplineSet
EndChar

StartChar: T
Encoding: 84 84 50
Width: 1229
GlyphClass: 2
Flags: W
LayerCount: 2
Fore
SplineSet
381 600 m 1,0,1
 547 753 547 753 597 868 c 1,2,-1
 627 868 l 1,3,4
 658 804 658 804 706 743.5 c 128,-1,5
 754 683 754 683 847 600 c 1,6,-1
 847 549 l 1,7,8
 716 611 716 611 647 677 c 1,9,-1
 647 -278 l 1,10,-1
 581 -278 l 1,11,-1
 581 678 l 1,12,13
 521 629 521 629 489.5 609 c 128,-1,14
 458 589 458 589 381 551 c 1,15,-1
 381 600 l 1,0,1
EndSplineSet
EndChar

StartChar: V
Encoding: 86 86 51
Width: 1229
GlyphClass: 2
Flags: W
LayerCount: 2
Fore
SplineSet
381 -11 m 1,0,-1
 381 39 l 1,1,2
 458 1 458 1 489.5 -19 c 128,-1,3
 521 -39 521 -39 581 -88 c 1,4,-1
 581 868 l 1,5,-1
 647 868 l 1,6,-1
 647 -87 l 1,7,8
 716 -21 716 -21 847 41 c 1,9,-1
 847 -10 l 1,10,11
 754 -93 754 -93 706 -153.5 c 128,-1,12
 658 -214 658 -214 627 -278 c 1,13,-1
 597 -278 l 1,14,15
 546 -160 546 -160 381 -11 c 1,0,-1
EndSplineSet
EndChar

StartChar: Z
Encoding: 90 90 52
Width: 1229
GlyphClass: 2
Flags: W
LayerCount: 2
Fore
SplineSet
1003 837 m 0,0,1
 1019 837 1019 837 1031 825 c 128,-1,2
 1043 813 1043 813 1043 797 c 0,3,4
 1043 762 1043 762 956 681.5 c 128,-1,5
 869 601 869 601 796 601 c 0,6,7
 751 601 751 601 705 626.5 c 128,-1,8
 659 652 659 652 574 732 c 0,9,10
 517 786 517 786 487.5 803 c 128,-1,11
 458 820 458 820 434 820 c 0,12,13
 405 820 405 820 379 804 c 0,14,15
 344 784 344 784 283 713 c 0,16,17
 254 680 254 680 245.5 674.5 c 128,-1,18
 237 669 237 669 227 669 c 0,19,20
 210 669 210 669 198.5 681 c 128,-1,21
 187 693 187 693 187 710 c 0,22,23
 187 726 187 726 213 759 c 0,24,25
 279 841 279 841 331 872.5 c 128,-1,26
 383 904 383 904 432 904 c 0,27,28
 473 904 473 904 513 884.5 c 128,-1,29
 553 865 553 865 616 808 c 0,30,31
 717 715 717 715 741.5 700.5 c 128,-1,32
 766 686 766 686 790 686 c 0,33,34
 861 686 861 686 941 788 c 0,35,36
 970 825 970 825 980 831 c 128,-1,37
 990 837 990 837 1003 837 c 0,0,1
1003 499 m 0,38,39
 1019 499 1019 499 1031 487 c 128,-1,40
 1043 475 1043 475 1043 459 c 0,41,42
 1043 424 1043 424 956 343.5 c 128,-1,43
 869 263 869 263 796 263 c 0,44,45
 751 263 751 263 705 288.5 c 128,-1,46
 659 314 659 314 574 394 c 0,47,48
 517 448 517 448 487.5 465 c 128,-1,49
 458 482 458 482 434 482 c 0,50,51
 405 482 405 482 379 466 c 0,52,53
 344 446 344 446 283 375 c 0,54,55
 254 342 254 342 245.5 337 c 128,-1,56
 237 332 237 332 227 332 c 0,57,58
 210 332 210 332 198.5 343.5 c 128,-1,59
 187 355 187 355 187 372 c 0,60,61
 187 388 187 388 213 421 c 0,62,63
 279 503 279 503 331 534.5 c 128,-1,64
 383 566 383 566 432 566 c 0,65,66
 473 566 473 566 513 546.5 c 128,-1,67
 553 527 553 527 616 470 c 0,68,69
 717 377 717 377 741.5 362.5 c 128,-1,70
 766 348 766 348 790 348 c 0,71,72
 861 348 861 348 941 450 c 0,73,74
 970 487 970 487 980 493 c 128,-1,75
 990 499 990 499 1003 499 c 0,38,39
EndSplineSet
EndChar

StartChar: bracketleft
Encoding: 91 91 53
Width: 1229
GlyphClass: 2
Flags: W
LayerCount: 2
Fore
SplineSet
657 1170 m 1,0,-1
 657 -175 l 1,1,-1
 861 -175 l 2,2,3
 891 -175 891 -175 904 -186.5 c 128,-1,4
 917 -198 917 -198 917 -217 c 256,5,6
 917 -236 917 -236 904 -247.5 c 128,-1,7
 891 -259 891 -259 861 -259 c 2,8,-1
 573 -259 l 1,9,-1
 573 1255 l 1,10,-1
 861 1255 l 2,11,12
 891 1255 891 1255 904 1243 c 128,-1,13
 917 1231 917 1231 917 1212 c 0,14,15
 917 1194 917 1194 904 1182 c 128,-1,16
 891 1170 891 1170 861 1170 c 2,17,-1
 657 1170 l 1,0,-1
EndSplineSet
EndChar

StartChar: backslash
Encoding: 92 92 54
Width: 1229
GlyphClass: 2
Flags: W
LayerCount: 2
Fore
SplineSet
314 1346 m 2,0,-1
 989 -102 l 2,1,2
 999 -124 999 -124 999 -134 c 0,3,4
 999 -150 999 -150 986.5 -162.5 c 128,-1,5
 974 -175 974 -175 957 -175 c 0,6,7
 929 -175 929 -175 912 -138 c 2,8,-1
 237 1311 l 2,9,10
 227 1332 227 1332 227 1343 c 0,11,12
 227 1359 227 1359 239.5 1371 c 128,-1,13
 252 1383 252 1383 269 1383 c 0,14,15
 296 1383 296 1383 314 1346 c 2,0,-1
EndSplineSet
EndChar

StartChar: bracketright
Encoding: 93 93 55
Width: 1229
GlyphClass: 2
Flags: W
LayerCount: 2
Fore
SplineSet
575 -175 m 1,0,-1
 575 1170 l 1,1,-1
 372 1170 l 2,2,3
 342 1170 342 1170 329 1182 c 128,-1,4
 316 1194 316 1194 316 1212 c 0,5,6
 316 1231 316 1231 329 1243 c 128,-1,7
 342 1255 342 1255 372 1255 c 2,8,-1
 660 1255 l 1,9,-1
 660 -259 l 1,10,-1
 372 -259 l 2,11,12
 342 -259 342 -259 329 -247.5 c 128,-1,13
 316 -236 316 -236 316 -217 c 0,14,15
 316 -199 316 -199 329 -187 c 128,-1,16
 342 -175 342 -175 372 -175 c 2,17,-1
 575 -175 l 1,0,-1
EndSplineSet
EndChar

StartChar: asciicircum
Encoding: 94 94 56
Width: 1229
GlyphClass: 2
Flags: W
LayerCount: 2
Fore
SplineSet
614 1279 m 1,0,-1
 983 816 l 2,1,2
 1001 793 1001 793 1001 779 c 0,3,4
 1001 761 1001 761 988.5 749 c 128,-1,5
 976 737 976 737 958 737 c 0,6,7
 938 737 938 737 916 763 c 2,8,-1
 614 1147 l 1,9,-1
 312 763 l 2,10,11
 291 736 291 736 271 736 c 0,12,13
 253 736 253 736 240.5 748.5 c 128,-1,14
 228 761 228 761 228 779 c 0,15,16
 228 793 228 793 246 816 c 2,17,-1
 614 1279 l 1,0,-1
EndSplineSet
EndChar

StartChar: underscore
Encoding: 95 95 57
Width: 1229
GlyphClass: 2
Flags: W
LayerCount: 2
Fore
SplineSet
1043 131 m 5,0,-1
 1043 11 l 5,1,-1
 186 11 l 5,2,-1
 186 131 l 5,3,-1
 1043 131 l 5,0,-1
EndSplineSet
EndChar

StartChar: grave
Encoding: 96 96 58
Width: 1229
GlyphClass: 2
Flags: W
LayerCount: 2
Fore
SplineSet
525 1309 m 2,0,-1
 761 1105 l 1,1,-1
 783 1080 l 2,2,3
 786 1075 786 1075 786 1064 c 0,4,5
 786 1046 786 1046 773.5 1033.5 c 128,-1,6
 761 1021 761 1021 743 1021 c 0,7,8
 728 1021 728 1021 705 1041 c 2,9,-1
 469 1245 l 2,10,11
 444 1267 444 1267 444 1286 c 0,12,13
 444 1304 444 1304 456.5 1316.5 c 128,-1,14
 469 1329 469 1329 487 1329 c 0,15,16
 502 1329 502 1329 525 1309 c 2,0,-1
EndSplineSet
EndChar

StartChar: a
Encoding: 97 97 59
Width: 1229
GlyphClass: 2
Flags: W
LayerCount: 2
Fore
SplineSet
856 0 m 1,0,-1
 856 121 l 1,1,2
 673 -33 673 -33 465 -33 c 0,3,4
 314 -33 314 -33 229 43.5 c 0,5,6
 144 120 144 120 144 231 c 0,7,8
 144 353 144 353 256 444 c 0,9,10
 368 535 368 535 583 535 c 0,11,12
 641 535 641 535 709 527.5 c 0,13,14
 777 520 777 520 856 504 c 1,15,-1
 856 640 l 2,16,17
 856 709 856 709 792 760 c 0,18,19
 728 811 728 811 600 811 c 0,20,21
 502 811 502 811 325 754 c 0,22,23
 293 744 293 744 284 744 c 0,24,25
 268 744 268 744 256.5 756 c 0,26,27
 245 768 245 768 245 786 c 0,28,29
 245 803 245 803 255 813 c 0,30,31
 269 828 269 828 368 854 c 0,32,33
 524 896 524 896 604 896 c 0,34,35
 763 896 763 896 852 817.5 c 0,36,37
 941 739 941 739 941 640 c 2,38,-1
 941 84 l 1,39,-1
 1053 84 l 2,40,41
 1084 84 1084 84 1097 72.5 c 0,42,43
 1110 61 1110 61 1110 42 c 0,44,45
 1110 24 1110 24 1097 12 c 0,46,47
 1084 0 1084 0 1053 0 c 2,48,-1
 856 0 l 1,0,-1
856 418 m 1,49,50
 797 435 797 435 731 443 c 0,51,52
 665 451 665 451 592 451 c 0,53,54
 409 451 409 451 306 372 c 0,55,56
 228 313 228 313 228 231 c 0,57,58
 228 155 228 155 287.5 103 c 0,59,60
 347 51 347 51 461 51 c 0,61,62
 570 51 570 51 663.5 94.5 c 0,63,64
 757 138 757 138 856 233 c 1,65,-1
 856 418 l 1,49,50
EndSplineSet
Refer: 141 730 S 1 0 0 1 0 0 2
EndChar

StartChar: c
Encoding: 99 99 61
Width: 1229
GlyphClass: 2
Flags: W
LayerCount: 2
Fore
SplineSet
586 -163 m 1,0,-1
 586 -10 l 2,1,2
 586 12 586 12 594.5 21 c 0,3,4
 603 30 603 30 616 30 c 0,5,6
 630 30 630 30 638 20.5 c 0,7,8
 646 11 646 11 646 -10 c 2,9,-1
 646 -106 l 1,10,11
 702 -114 702 -114 733 -144.5 c 0,12,13
 764 -175 764 -175 764 -216 c 0,14,15
 764 -265 764 -265 726.5 -299 c 0,16,17
 689 -333 689 -333 620 -333 c 0,18,19
 573 -333 573 -333 519 -314.5 c 0,20,21
 465 -296 465 -296 452 -281 c 0,22,23
 442 -270 442 -270 442 -258 c 0,24,25
 442 -245 442 -245 450.5 -236.5 c 0,26,27
 459 -228 459 -228 472 -228 c 0,28,29
 482 -228 482 -228 495 -235 c 0,30,31
 563 -273 563 -273 620 -273 c 0,32,33
 659 -273 659 -273 681 -254.5 c 0,34,35
 703 -236 703 -236 703 -214 c 0,36,37
 703 -195 703 -195 686 -181 c 0,38,39
 663 -163 663 -163 627 -163 c 2,40,-1
 586 -163 l 1,0,-1
965 781 m 1,41,-1
 965 809 l 2,42,43
 965 840 965 840 977 853 c 0,44,45
 989 866 989 866 1007 866 c 0,46,47
 1026 866 1026 866 1038 853 c 0,48,49
 1050 840 1050 840 1050 809 c 2,50,-1
 1050 619 l 2,51,52
 1049 588 1049 588 1037.5 575 c 0,53,54
 1026 562 1026 562 1007 562 c 0,55,56
 990 562 990 562 978.5 573.5 c 0,57,58
 967 585 967 585 965 612 c 0,59,60
 959 683 959 683 871.5 747 c 0,61,62
 784 811 784 811 636 811 c 0,63,64
 449 811 449 811 352 694 c 0,65,66
 255 577 255 577 255 426 c 0,67,68
 255 263 255 263 362 157 c 0,69,70
 469 51 469 51 639 51 c 0,71,72
 737 51 737 51 838.5 87 c 0,73,74
 940 123 940 123 1022 203 c 0,75,76
 1043 223 1043 223 1059 223 c 0,77,78
 1076 223 1076 223 1087.5 211.5 c 0,79,80
 1099 200 1099 200 1099 183 c 0,81,82
 1099 140 1099 140 998 74 c 0,83,84
 835 -33 835 -33 635 -33 c 0,85,86
 432 -33 432 -33 301.5 96.5 c 0,87,88
 171 226 171 226 171 425 c 0,89,90
 171 628 171 628 304.5 762 c 0,91,92
 438 896 438 896 641 896 c 0,93,94
 834 896 834 896 965 781 c 1,41,-1
EndSplineSet
EndChar

StartChar: d
Encoding: 100 100 62
Width: 1229
GlyphClass: 2
Flags: W
LayerCount: 2
Fore
SplineSet
1026 1255 m 1,0,-1
 1026 84 l 1,1,-1
 1138 84 l 2,2,3
 1169 84 1169 84 1182 72.5 c 128,-1,4
 1195 61 1195 61 1195 42 c 0,5,6
 1195 24 1195 24 1182 12 c 128,-1,7
 1169 0 1169 0 1138 0 c 2,8,-1
 941 0 l 1,9,-1
 941 167 l 1,10,11
 795 -33 795 -33 570 -33 c 0,12,13
 456 -33 456 -33 351.5 27.5 c 128,-1,14
 247 88 247 88 186.5 200 c 128,-1,15
 126 312 126 312 126 431 c 0,16,17
 126 551 126 551 186.5 662.5 c 128,-1,18
 247 774 247 774 351.5 835 c 128,-1,19
 456 896 456 896 571 896 c 0,20,21
 791 896 791 896 941 696 c 1,22,-1
 941 1170 l 1,23,-1
 829 1170 l 2,24,25
 798 1170 798 1170 785 1182 c 128,-1,26
 772 1194 772 1194 772 1213 c 0,27,28
 772 1231 772 1231 785 1243 c 128,-1,29
 798 1255 798 1255 829 1255 c 2,30,-1
 1026 1255 l 1,0,-1
941 431 m 0,31,32
 941 591 941 591 833 701 c 128,-1,33
 725 811 725 811 576 811 c 0,34,35
 426 811 426 811 318 701 c 128,-1,36
 210 591 210 591 210 431 c 0,37,38
 210 272 210 272 318 161.5 c 128,-1,39
 426 51 426 51 576 51 c 0,40,41
 725 51 725 51 833 161.5 c 128,-1,42
 941 272 941 272 941 431 c 0,31,32
EndSplineSet
EndChar

StartChar: e
Encoding: 101 101 63
Width: 1229
GlyphClass: 2
Flags: W
LayerCount: 2
Fore
SplineSet
931 0 m 1,0,-1
 262 0 l 2,1,2
 207 0 207 0 207 42 c 256,3,4
 207 84 207 84 263 84 c 2,5,-1
 305 84 l 1,6,-1
 305 781 l 1,7,-1
 248 781 l 2,8,9
 207 782 207 782 207 825 c 0,10,11
 207 866 207 866 248 866 c 2,12,-1
 931 866 l 1,13,-1
 931 717 l 2,14,15
 931 661 931 661 888 661 c 0,16,17
 846 661 846 661 846 717 c 2,18,-1
 846 781 l 1,19,-1
 389 781 l 1,20,-1
 389 515 l 1,21,-1
 616 515 l 1,22,-1
 616 570 l 2,23,24
 616 626 616 626 658 626 c 0,25,26
 701 626 701 626 701 570 c 2,27,-1
 701 376 l 2,28,29
 701 320 701 320 658 320 c 0,30,31
 616 320 616 320 616 376 c 2,32,-1
 616 431 l 1,33,-1
 389 431 l 1,34,-1
 389 84 l 1,35,-1
 846 84 l 1,36,-1
 846 189 l 2,37,38
 846 245 846 245 888 245 c 0,39,40
 931 245 931 245 931 189 c 2,41,-1
 931 0 l 1,0,-1
EndSplineSet
EndChar

StartChar: f
Encoding: 102 102 64
Width: 1229
GlyphClass: 2
Flags: W
LayerCount: 2
Fore
SplineSet
1171 824 m 256,0,1
 1171 782 1171 782 1115 782 c 2,2,-1
 1002 782 l 1,3,-1
 1002 0 l 1,4,-1
 904 0 l 1,5,-1
 299 745 l 1,6,-1
 299 85 l 1,7,-1
 412 85 l 2,8,9
 468 85 468 85 468 43 c 0,10,11
 468 0 468 0 412 0 c 2,12,-1
 114 0 l 2,13,14
 58 0 58 0 58 43 c 0,15,16
 58 85 58 85 114 85 c 2,17,-1
 215 85 l 1,18,-1
 215 782 l 1,19,-1
 114 782 l 2,20,21
 58 782 58 782 58 824 c 256,22,23
 58 866 58 866 114 866 c 2,24,-1
 314 866 l 1,25,-1
 918 123 l 1,26,-1
 918 782 l 1,27,-1
 805 782 l 2,28,29
 749 782 749 782 749 824 c 256,30,31
 749 866 749 866 805 866 c 2,32,-1
 1115 866 l 2,33,34
 1171 866 1171 866 1171 824 c 256,0,1
EndSplineSet
Refer: 141 730 S 1 0 0 1 0 0 2
EndChar

StartChar: g
Encoding: 103 103 65
Width: 1229
GlyphClass: 2
Flags: W
LayerCount: 2
Fore
SplineSet
1123 368 m 0,0,1
 1123 329 1123 329 1067 326 c 2,2,-1
 1050 325 l 1,3,4
 1050 154 1050 154 941 60.5 c 128,-1,5
 832 -33 832 -33 635 -33 c 0,6,7
 434 -33 434 -33 302.5 95.5 c 128,-1,8
 171 224 171 224 171 425 c 0,9,10
 171 629 171 629 304 762.5 c 128,-1,11
 437 896 437 896 641 896 c 0,12,13
 834 896 834 896 965 781 c 1,14,-1
 965 809 l 2,15,16
 965 866 965 866 1007 866 c 0,17,18
 1050 866 1050 866 1050 809 c 2,19,-1
 1050 619 l 2,20,21
 1050 562 1050 562 1007 562 c 0,22,23
 969 562 969 562 965 612 c 0,24,25
 957 709 957 709 840 765 c 0,26,27
 745 811 745 811 636 811 c 0,28,29
 466 811 466 811 360.5 704 c 128,-1,30
 255 597 255 597 255 426 c 0,31,32
 255 259 255 259 363 155 c 128,-1,33
 471 51 471 51 639 51 c 0,34,35
 966 51 966 51 966 325 c 1,36,-1
 674 325 l 2,37,38
 618 325 618 325 618 367 c 0,39,40
 618 410 618 410 674 410 c 2,41,-1
 1067 410 l 2,42,43
 1123 410 1123 410 1123 368 c 0,0,1
EndSplineSet
EndChar

StartChar: h
Encoding: 104 104 66
Width: 1229
GlyphClass: 2
Flags: W
LayerCount: 2
Fore
SplineSet
338 1255 m 1,0,-1
 338 738 l 1,1,2
 418 825 418 825 491.5 860.5 c 128,-1,3
 565 896 565 896 656 896 c 0,4,5
 754 896 754 896 822.5 861.5 c 128,-1,6
 891 827 891 827 937 755.5 c 128,-1,7
 983 684 983 684 983 605 c 2,8,-1
 983 84 l 1,9,-1
 1077 84 l 2,10,11
 1108 84 1108 84 1120.5 72.5 c 128,-1,12
 1133 61 1133 61 1133 42 c 0,13,14
 1133 24 1133 24 1120.5 12 c 128,-1,15
 1108 0 1108 0 1077 0 c 2,16,-1
 804 0 l 2,17,18
 773 0 773 0 760 12 c 128,-1,19
 747 24 747 24 747 42 c 0,20,21
 747 61 747 61 760 72.5 c 128,-1,22
 773 84 773 84 804 84 c 2,23,-1
 898 84 l 1,24,-1
 898 599 l 2,25,26
 898 690 898 690 832.5 751 c 128,-1,27
 767 812 767 812 650 812 c 0,28,29
 558 812 558 812 493 767 c 0,30,31
 446 735 446 735 338 616 c 1,32,-1
 338 84 l 1,33,-1
 433 84 l 2,34,35
 463 84 463 84 476 72.5 c 128,-1,36
 489 61 489 61 489 42 c 0,37,38
 489 24 489 24 476 12 c 128,-1,39
 463 0 463 0 433 0 c 2,40,-1
 159 0 l 2,41,42
 129 0 129 0 116 12 c 128,-1,43
 103 24 103 24 103 42 c 0,44,45
 103 61 103 61 116 72.5 c 128,-1,46
 129 84 129 84 159 84 c 2,47,-1
 254 84 l 1,48,-1
 254 1170 l 1,49,-1
 141 1170 l 2,50,51
 111 1170 111 1170 98 1182 c 128,-1,52
 85 1194 85 1194 85 1213 c 0,53,54
 85 1231 85 1231 98 1243 c 128,-1,55
 111 1255 111 1255 141 1255 c 2,56,-1
 338 1255 l 1,0,-1
EndSplineSet
EndChar

StartChar: i
Encoding: 105 105 67
Width: 1229
GlyphClass: 2
Flags: W
LayerCount: 2
Fore
SplineSet
656 1297 m 1,0,-1
 656 1080 l 1,1,-1
 532 1080 l 1,2,-1
 532 1297 l 1,3,-1
 656 1297 l 1,0,-1
659 866 m 1,4,-1
 659 84 l 1,5,-1
 989 84 l 2,6,7
 1020 84 1020 84 1033 72.5 c 128,-1,8
 1046 61 1046 61 1046 42 c 0,9,10
 1046 24 1046 24 1033 12 c 128,-1,11
 1020 0 1020 0 989 0 c 2,12,-1
 245 0 l 2,13,14
 215 0 215 0 202 12 c 128,-1,15
 189 24 189 24 189 42 c 0,16,17
 189 61 189 61 202 72.5 c 128,-1,18
 215 84 215 84 245 84 c 2,19,-1
 575 84 l 1,20,-1
 575 781 l 1,21,-1
 330 781 l 2,22,23
 300 781 300 781 286.5 793 c 128,-1,24
 273 805 273 805 273 823 c 0,25,26
 273 842 273 842 286 854 c 128,-1,27
 299 866 299 866 330 866 c 2,28,-1
 659 866 l 1,4,-1
EndSplineSet
EndChar

StartChar: j
Encoding: 106 106 68
Width: 1229
GlyphClass: 2
Flags: W
LayerCount: 2
Fore
SplineSet
982 866 m 1,0,-1
 982 791 l 1,1,-1
 353 84 l 1,2,-1
 921 84 l 1,3,-1
 921 200 l 2,4,5
 921 230 921 230 932.5 243 c 128,-1,6
 944 256 944 256 963 256 c 256,7,8
 982 256 982 256 994 243 c 128,-1,9
 1006 230 1006 230 1006 200 c 2,10,-1
 1005 0 l 1,11,-1
 237 0 l 1,12,-1
 237 75 l 1,13,-1
 863 781 l 1,14,-1
 341 781 l 1,15,-1
 341 667 l 2,16,17
 341 637 341 637 329 624 c 128,-1,18
 317 611 317 611 299 611 c 0,19,20
 280 611 280 611 268 624 c 128,-1,21
 256 637 256 637 256 667 c 2,22,-1
 256 866 l 1,23,-1
 982 866 l 1,0,-1
EndSplineSet
EndChar

StartChar: k
Encoding: 107 107 69
Width: 1229
GlyphClass: 2
Flags: W
LayerCount: 2
Fore
SplineSet
411 486 m 1,0,-1
 509 486 l 1,1,-1
 833 781 l 1,2,-1
 786 781 l 2,3,4
 730 781 730 781 730 823 c 0,5,6
 730 866 730 866 786 866 c 2,7,-1
 991 866 l 2,8,9
 1047 866 1047 866 1047 823 c 0,10,11
 1047 781 1047 781 991 781 c 2,12,-1
 955 781 l 1,13,-1
 607 468 l 1,14,15
 784 410 784 410 955 84 c 1,16,-1
 1071 84 l 2,17,18
 1128 84 1128 84 1128 42 c 256,19,20
 1128 0 1128 0 1071 0 c 2,21,-1
 900 0 l 1,22,23
 821 179 821 179 718 290 c 128,-1,24
 615 401 615 401 474 401 c 2,25,-1
 411 401 l 1,26,-1
 411 84 l 1,27,-1
 523 84 l 2,28,29
 579 84 579 84 579 42 c 256,30,31
 579 0 579 0 523 0 c 2,32,-1
 214 0 l 2,33,34
 158 0 158 0 158 42 c 256,35,36
 158 84 158 84 214 84 c 2,37,-1
 326 84 l 1,38,-1
 326 781 l 1,39,-1
 214 781 l 2,40,41
 158 781 158 781 158 823 c 0,42,43
 158 866 158 866 214 866 c 2,44,-1
 411 866 l 1,45,-1
 411 486 l 1,0,-1
EndSplineSet
EndChar

StartChar: l
Encoding: 108 108 70
Width: 1229
GlyphClass: 2
Flags: W
LayerCount: 2
Fore
SplineSet
1088 0 m 1,0,-1
 208 0 l 2,1,2
 152 0 152 0 152 43 c 0,3,4
 152 85 152 85 208 85 c 2,5,-1
 408 85 l 1,6,-1
 408 782 l 1,7,-1
 208 782 l 2,8,9
 152 782 152 782 152 824 c 256,10,11
 152 866 152 866 208 866 c 2,12,-1
 693 866 l 2,13,14
 749 866 749 866 749 824 c 256,15,16
 749 782 749 782 693 782 c 2,17,-1
 493 782 l 1,18,-1
 493 85 l 1,19,-1
 1003 85 l 1,20,-1
 1003 319 l 2,21,22
 1003 375 1003 375 1045 375 c 0,23,24
 1088 375 1088 375 1088 319 c 2,25,-1
 1088 0 l 1,0,-1
EndSplineSet
EndChar

StartChar: m
Encoding: 109 109 71
Width: 1229
GlyphClass: 2
Flags: W
LayerCount: 2
Fore
SplineSet
665 84 m 1,0,-1
 569 84 l 1,1,-1
 246 781 l 1,2,-1
 242 781 l 1,3,-1
 242 84 l 1,4,-1
 397 84 l 2,5,6
 453 84 453 84 453 42 c 256,7,8
 453 0 453 0 397 0 c 2,9,-1
 87 0 l 2,10,11
 31 0 31 0 31 42 c 256,12,13
 31 84 31 84 87 84 c 2,14,-1
 158 84 l 1,15,-1
 158 781 l 1,16,-1
 105 781 l 2,17,18
 49 781 49 781 49 823 c 0,19,20
 49 866 49 866 105 866 c 2,21,-1
 299 866 l 1,22,-1
 617 179 l 1,23,-1
 930 866 l 1,24,-1
 1124 866 l 2,25,26
 1181 866 1181 866 1181 823 c 0,27,28
 1181 781 1181 781 1124 781 c 2,29,-1
 1072 781 l 1,30,-1
 1072 84 l 1,31,-1
 1142 84 l 2,32,33
 1199 84 1199 84 1199 42 c 256,34,35
 1199 0 1199 0 1142 0 c 2,36,-1
 833 0 l 2,37,38
 776 0 776 0 776 42 c 256,39,40
 776 84 776 84 833 84 c 2,41,-1
 987 84 l 1,42,-1
 987 781 l 1,43,-1
 982 781 l 1,44,-1
 665 84 l 1,0,-1
EndSplineSet
EndChar

StartChar: n
Encoding: 110 110 72
Width: 1229
GlyphClass: 2
Flags: W
LayerCount: 2
Fore
SplineSet
343 866 m 1,0,-1
 343 739 l 1,1,2
 431 828 431 828 502 862 c 128,-1,3
 573 896 573 896 662 896 c 0,4,5
 758 896 758 896 837 855 c 0,6,7
 893 825 893 825 938.5 755.5 c 128,-1,8
 984 686 984 686 984 613 c 2,9,-1
 984 84 l 1,10,-1
 1055 84 l 2,11,12
 1085 84 1085 84 1098 72.5 c 128,-1,13
 1111 61 1111 61 1111 42 c 0,14,15
 1111 24 1111 24 1098 12 c 128,-1,16
 1085 0 1085 0 1055 0 c 2,17,-1
 830 0 l 2,18,19
 799 0 799 0 786 12 c 128,-1,20
 773 24 773 24 773 42 c 0,21,22
 773 61 773 61 786 72.5 c 128,-1,23
 799 84 799 84 830 84 c 2,24,-1
 900 84 l 1,25,-1
 900 599 l 2,26,27
 900 688 900 688 835 749.5 c 128,-1,28
 770 811 770 811 661 811 c 0,29,30
 578 811 578 811 517 777.5 c 128,-1,31
 456 744 456 744 343 611 c 1,32,-1
 343 84 l 1,33,-1
 438 84 l 2,34,35
 468 84 468 84 481 72.5 c 128,-1,36
 494 61 494 61 494 42 c 0,37,38
 494 24 494 24 481 12 c 128,-1,39
 468 0 468 0 438 0 c 2,40,-1
 164 0 l 2,41,42
 134 0 134 0 121 12 c 128,-1,43
 108 24 108 24 108 42 c 0,44,45
 108 61 108 61 121 72.5 c 128,-1,46
 134 84 134 84 164 84 c 2,47,-1
 259 84 l 1,48,-1
 259 781 l 1,49,-1
 188 781 l 2,50,51
 158 781 158 781 145 793 c 128,-1,52
 132 805 132 805 132 824 c 0,53,54
 132 842 132 842 145 854 c 128,-1,55
 158 866 158 866 188 866 c 2,56,-1
 343 866 l 1,0,-1
EndSplineSet
EndChar

StartChar: o
Encoding: 111 111 73
Width: 1229
GlyphClass: 2
Flags: W
LayerCount: 2
Fore
SplineSet
1084 431 m 0,0,1
 1084 239 1084 239 946.5 103 c 128,-1,2
 809 -33 809 -33 615 -33 c 0,3,4
 419 -33 419 -33 282 103.5 c 128,-1,5
 145 240 145 240 145 431 c 0,6,7
 145 623 145 623 282 759.5 c 128,-1,8
 419 896 419 896 615 896 c 0,9,10
 809 896 809 896 946.5 760 c 128,-1,11
 1084 624 1084 624 1084 431 c 0,0,1
999 431 m 0,12,13
 999 589 999 589 886.5 700 c 128,-1,14
 774 811 774 811 614 811 c 256,15,16
 454 811 454 811 341.5 699.5 c 128,-1,17
 229 588 229 588 229 431 c 0,18,19
 229 275 229 275 341.5 163 c 128,-1,20
 454 51 454 51 614 51 c 256,21,22
 774 51 774 51 886.5 162.5 c 128,-1,23
 999 274 999 274 999 431 c 0,12,13
EndSplineSet
EndChar

StartChar: p
Encoding: 112 112 74
Width: 1229
GlyphClass: 2
Flags: W
LayerCount: 2
Fore
SplineSet
994 606 m 0,0,1
 994 368 994 368 606 368 c 2,2,-1
 355 368 l 1,3,-1
 355 85 l 1,4,-1
 468 85 l 2,5,6
 524 85 524 85 524 43 c 0,7,8
 524 0 524 0 468 0 c 2,9,-1
 226 0 l 2,10,11
 169 0 169 0 169 43 c 0,12,13
 169 85 169 85 226 85 c 2,14,-1
 271 85 l 1,15,-1
 271 782 l 1,16,-1
 222 782 l 2,17,18
 166 782 166 782 166 824 c 256,19,20
 166 866 166 866 222 866 c 2,21,-1
 606 866 l 2,22,23
 789 866 789 866 873 825 c 0,24,25
 994 767 994 767 994 606 c 0,0,1
907 610 m 0,26,27
 907 722 907 722 802 760 c 0,28,29
 741 782 741 782 602 782 c 2,30,-1
 355 782 l 1,31,-1
 355 453 l 1,32,-1
 598 453 l 2,33,34
 737 453 737 453 796 471 c 0,35,36
 907 505 907 505 907 610 c 0,26,27
EndSplineSet
EndChar

StartChar: q
Encoding: 113 113 75
Width: 1229
GlyphClass: 2
Flags: W
LayerCount: 2
Fore
SplineSet
1170 43 m 0,0,1
 1170 0 1170 0 1114 0 c 2,2,-1
 798 0 l 2,3,4
 742 0 742 0 742 42 c 0,5,6
 742 85 742 85 798 85 c 2,7,-1
 938 85 l 1,8,-1
 841 309 l 1,9,-1
 390 309 l 1,10,-1
 291 85 l 1,11,-1
 430 85 l 2,12,13
 486 85 486 85 486 43 c 0,14,15
 486 0 486 0 430 0 c 2,16,-1
 115 0 l 2,17,18
 59 0 59 0 59 42 c 0,19,20
 59 85 59 85 115 85 c 2,21,-1
 201 85 l 1,22,-1
 509 782 l 1,23,-1
 353 782 l 2,24,25
 312 782 312 782 312 825 c 0,26,27
 312 866 312 866 353 866 c 2,28,-1
 688 866 l 1,29,-1
 1029 85 l 1,30,-1
 1114 85 l 2,31,32
 1170 85 1170 85 1170 43 c 0,0,1
804 394 m 1,33,-1
 636 782 l 1,34,-1
 599 782 l 1,35,-1
 428 394 l 1,36,-1
 804 394 l 1,33,-1
EndSplineSet
EndChar

StartChar: r
Encoding: 114 114 76
Width: 1229
GlyphClass: 2
Flags: W
LayerCount: 2
Fore
SplineSet
514 866 m 1,0,-1
 514 654 l 1,1,2
 678 802 678 802 759.5 844.5 c 128,-1,3
 841 887 841 887 910 887 c 0,4,5
 985 887 985 887 1049.5 836.5 c 128,-1,6
 1114 786 1114 786 1114 760 c 0,7,8
 1114 741 1114 741 1101.5 728.5 c 128,-1,9
 1089 716 1089 716 1070 716 c 0,10,11
 1060 716 1060 716 1053 719.5 c 128,-1,12
 1046 723 1046 723 1027 742 c 0,13,14
 992 777 992 777 966 790 c 128,-1,15
 940 803 940 803 915 803 c 0,16,17
 860 803 860 803 782.5 759 c 128,-1,18
 705 715 705 715 514 544 c 1,19,-1
 514 84 l 1,20,-1
 886 84 l 2,21,22
 917 84 917 84 930 72.5 c 128,-1,23
 943 61 943 61 943 42 c 0,24,25
 943 24 943 24 930 12 c 128,-1,26
 917 0 917 0 886 0 c 2,27,-1
 227 0 l 2,28,29
 197 0 197 0 184 11.5 c 128,-1,30
 171 23 171 23 171 41 c 0,31,32
 171 58 171 58 183.5 69.5 c 128,-1,33
 196 81 196 81 227 81 c 2,34,-1
 430 81 l 1,35,-1
 430 781 l 1,36,-1
 275 781 l 2,37,38
 245 781 245 781 232 793 c 128,-1,39
 219 805 219 805 219 824 c 0,40,41
 219 842 219 842 231.5 854 c 128,-1,42
 244 866 244 866 275 866 c 2,43,-1
 514 866 l 1,0,-1
EndSplineSet
EndChar

StartChar: s
Encoding: 115 115 77
Width: 1229
GlyphClass: 2
Flags: W
LayerCount: 2
Fore
SplineSet
892 811 m 1,0,1
 892 840 892 840 904 853 c 128,-1,2
 916 866 916 866 934 866 c 0,3,4
 953 866 953 866 965 853 c 128,-1,5
 977 840 977 840 977 809 c 2,6,-1
 977 665 l 2,7,8
 977 635 977 635 965 622 c 128,-1,9
 953 609 953 609 934 609 c 0,10,11
 917 609 917 609 905.5 620 c 128,-1,12
 894 631 894 631 892 656 c 0,13,14
 886 716 886 716 830 755 c 0,15,16
 748 811 748 811 613 811 c 0,17,18
 472 811 472 811 394 754 c 0,19,20
 335 711 335 711 335 658 c 0,21,22
 335 598 335 598 405 558 c 0,23,24
 453 530 453 530 587 515 c 0,25,26
 762 496 762 496 830 472 c 0,27,28
 927 437 927 437 974.5 375 c 128,-1,29
 1022 313 1022 313 1022 241 c 0,30,31
 1022 134 1022 134 919 50.5 c 128,-1,32
 816 -33 816 -33 617 -33 c 256,33,34
 418 -33 418 -33 291 68 c 1,35,36
 291 34 291 34 287 24 c 128,-1,37
 283 14 283 14 272.5 7 c 128,-1,38
 262 0 262 0 249 0 c 0,39,40
 231 0 231 0 219 13 c 128,-1,41
 207 26 207 26 207 56 c 2,42,-1
 207 229 l 2,43,44
 207 259 207 259 218.5 272 c 128,-1,45
 230 285 230 285 249 285 c 0,46,47
 267 285 267 285 279.5 272.5 c 128,-1,48
 292 260 292 260 292 239 c 0,49,50
 292 193 292 193 315 162 c 0,51,52
 350 114 350 114 426.5 82.5 c 128,-1,53
 503 51 503 51 614 51 c 0,54,55
 778 51 778 51 858 112 c 128,-1,56
 938 173 938 173 938 241 c 0,57,58
 938 319 938 319 857 366 c 0,59,60
 775 413 775 413 618.5 429 c 128,-1,61
 462 445 462 445 394 471 c 128,-1,62
 326 497 326 497 288 549 c 128,-1,63
 250 601 250 601 250 661 c 0,64,65
 250 769 250 769 356 832.5 c 128,-1,66
 462 896 462 896 609 896 c 0,67,68
 783 896 783 896 892 811 c 1,0,1
EndSplineSet
EndChar

StartChar: t
Encoding: 116 116 78
Width: 1229
GlyphClass: 2
Flags: W
LayerCount: 2
Fore
SplineSet
442 866 m 1,0,-1
 898 866 l 2,1,2
 928 866 928 866 941 854 c 128,-1,3
 954 842 954 842 954 823 c 0,4,5
 954 805 954 805 941 793 c 128,-1,6
 928 781 928 781 898 781 c 2,7,-1
 442 781 l 1,8,-1
 442 222 l 2,9,10
 442 149 442 149 500.5 100 c 128,-1,11
 559 51 559 51 672 51 c 0,12,13
 757 51 757 51 856 76.5 c 128,-1,14
 955 102 955 102 1010 134 c 0,15,16
 1030 147 1030 147 1043 147 c 0,17,18
 1059 147 1059 147 1071 134.5 c 128,-1,19
 1083 122 1083 122 1083 105 c 0,20,21
 1083 90 1083 90 1070 77 c 0,22,23
 1038 44 1038 44 914.5 5.5 c 128,-1,24
 791 -33 791 -33 678 -33 c 0,25,26
 531 -33 531 -33 444 36 c 128,-1,27
 357 105 357 105 357 222 c 2,28,-1
 357 781 l 1,29,-1
 202 781 l 2,30,31
 172 781 172 781 159 793 c 128,-1,32
 146 805 146 805 146 824 c 0,33,34
 146 842 146 842 159 854 c 128,-1,35
 172 866 172 866 202 866 c 2,36,-1
 357 866 l 1,37,-1
 357 1114 l 2,38,39
 357 1144 357 1144 369 1157 c 128,-1,40
 381 1170 381 1170 399 1170 c 0,41,42
 418 1170 418 1170 430 1157 c 128,-1,43
 442 1144 442 1144 442 1114 c 2,44,-1
 442 866 l 1,0,-1
EndSplineSet
EndChar

StartChar: u
Encoding: 117 117 79
Width: 1229
GlyphClass: 2
Flags: W
LayerCount: 2
Fore
SplineSet
1142 823 m 0,0,1
 1142 781 1142 781 1086 781 c 2,2,-1
 974 781 l 1,3,-1
 974 459 l 2,4,5
 974 300 974 300 952 218 c 0,6,7
 919 90 919 90 820 24 c 0,8,9
 735 -33 735 -33 611 -33 c 0,10,11
 361 -33 361 -33 287 185 c 0,12,13
 255 280 255 280 255 449 c 2,14,-1
 255 781 l 1,15,-1
 143 781 l 2,16,17
 86 781 86 781 86 823 c 0,18,19
 86 866 86 866 143 866 c 2,20,-1
 451 866 l 2,21,22
 507 866 507 866 507 823 c 0,23,24
 507 781 507 781 451 781 c 2,25,-1
 340 781 l 1,26,-1
 340 459 l 2,27,28
 340 329 340 329 356 264 c 0,29,30
 381 158 381 158 456 102 c 0,31,32
 524 51 524 51 614 51 c 0,33,34
 806 51 806 51 864 226 c 0,35,36
 890 305 890 305 890 459 c 2,37,-1
 890 781 l 1,38,-1
 778 781 l 2,39,40
 721 781 721 781 721 823 c 0,41,42
 721 866 721 866 778 866 c 2,43,-1
 1086 866 l 2,44,45
 1142 866 1142 866 1142 823 c 0,0,1
EndSplineSet
EndChar

StartChar: v
Encoding: 118 118 80
Width: 1229
GlyphClass: 2
Flags: W
LayerCount: 2
Fore
SplineSet
688 0 m 1,0,-1
 546 0 l 1,1,-1
 201 781 l 1,2,-1
 115 781 l 2,3,4
 85 781 85 781 72 793 c 128,-1,5
 59 805 59 805 59 824 c 0,6,7
 59 842 59 842 72 854 c 128,-1,8
 85 866 85 866 115 866 c 2,9,-1
 430 866 l 2,10,11
 460 866 460 866 473 854 c 128,-1,12
 486 842 486 842 486 823 c 0,13,14
 486 805 486 805 473 793 c 128,-1,15
 460 781 460 781 430 781 c 2,16,-1
 291 781 l 1,17,-1
 599 84 l 1,18,-1
 636 84 l 1,19,-1
 938 781 l 1,20,-1
 798 781 l 2,21,22
 768 781 768 781 755 793 c 128,-1,23
 742 805 742 805 742 824 c 0,24,25
 742 842 742 842 755 854 c 128,-1,26
 768 866 768 866 798 866 c 2,27,-1
 1114 866 l 2,28,29
 1145 866 1145 866 1157.5 854 c 128,-1,30
 1170 842 1170 842 1170 823 c 0,31,32
 1170 805 1170 805 1157.5 793 c 128,-1,33
 1145 781 1145 781 1114 781 c 2,34,-1
 1029 781 l 1,35,-1
 688 0 l 1,0,-1
EndSplineSet
EndChar

StartChar: w
Encoding: 119 119 81
Width: 1229
GlyphClass: 2
Flags: W
LayerCount: 2
Fore
SplineSet
993 390 m 2,0,1
 993 237 993 237 889 121 c 0,2,3
 782 0 782 0 631 0 c 2,4,-1
 248 0 l 2,5,6
 207 0 207 0 207 41 c 0,7,8
 207 84 207 84 248 84 c 2,9,-1
 301 84 l 1,10,-1
 301 781 l 1,11,-1
 248 781 l 2,12,13
 207 781 207 781 207 824 c 0,14,15
 207 866 207 866 248 866 c 2,16,-1
 631 866 l 2,17,18
 784 866 784 866 891 745 c 0,19,20
 993 629 993 629 993 476 c 2,21,-1
 993 390 l 2,0,1
907 377 m 2,22,-1
 907 489 l 2,23,24
 907 598 907 598 825 687 c 0,25,26
 738 781 738 781 623 781 c 2,27,-1
 387 781 l 1,28,-1
 387 84 l 1,29,-1
 623 84 l 2,30,31
 739 84 739 84 825 177 c 0,32,33
 907 267 907 267 907 377 c 2,22,-1
EndSplineSet
EndChar

StartChar: x
Encoding: 120 120 82
Width: 1229
GlyphClass: 2
Flags: W
LayerCount: 2
Fore
SplineSet
656 781 m 1,0,-1
 656 84 l 1,1,-1
 874 84 l 2,2,3
 931 84 931 84 931 42 c 256,4,5
 931 0 931 0 874 0 c 2,6,-1
 354 0 l 2,7,8
 297 0 297 0 297 42 c 256,9,10
 297 84 297 84 354 84 c 2,11,-1
 572 84 l 1,12,-1
 572 781 l 1,13,-1
 250 781 l 1,14,-1
 250 490 l 2,15,16
 250 434 250 434 208 434 c 256,17,18
 166 434 166 434 166 490 c 2,19,-1
 166 866 l 1,20,-1
 1063 866 l 1,21,-1
 1063 490 l 2,22,23
 1063 434 1063 434 1021 434 c 0,24,25
 978 434 978 434 978 490 c 2,26,-1
 978 781 l 1,27,-1
 656 781 l 1,0,-1
EndSplineSet
EndChar

StartChar: y
Encoding: 121 121 83
Width: 1229
GlyphClass: 2
Flags: W
LayerCount: 2
Fore
SplineSet
620 0 m 1,0,-1
 230 781 l 1,1,-1
 205 781 l 2,2,3
 175 781 175 781 162 793 c 128,-1,4
 149 805 149 805 149 823 c 0,5,6
 149 836 149 836 155.5 846.5 c 128,-1,7
 162 857 162 857 172.5 861.5 c 128,-1,8
 183 866 183 866 205 866 c 2,9,-1
 435 866 l 2,10,11
 465 866 465 866 478 854 c 128,-1,12
 491 842 491 842 491 823 c 0,13,14
 491 805 491 805 478 793 c 128,-1,15
 465 781 465 781 435 781 c 2,16,-1
 322 781 l 1,17,-1
 665 92 l 1,18,-1
 1003 781 l 1,19,-1
 890 781 l 2,20,21
 860 781 860 781 847 793 c 128,-1,22
 834 805 834 805 834 824 c 0,23,24
 834 842 834 842 847 854 c 128,-1,25
 860 866 860 866 890 866 c 2,26,-1
 1119 866 l 2,27,28
 1150 866 1150 866 1163 854 c 128,-1,29
 1176 842 1176 842 1176 823 c 0,30,31
 1176 810 1176 810 1168 799 c 128,-1,32
 1160 788 1160 788 1150 784.5 c 128,-1,33
 1140 781 1140 781 1094 781 c 1,34,-1
 562 -302 l 1,35,-1
 693 -302 l 2,36,37
 723 -302 723 -302 736 -313.5 c 128,-1,38
 749 -325 749 -325 749 -344 c 0,39,40
 749 -362 749 -362 736 -374 c 128,-1,41
 723 -386 723 -386 693 -386 c 2,42,-1
 209 -386 l 2,43,44
 179 -386 179 -386 166 -374.5 c 128,-1,45
 153 -363 153 -363 153 -344 c 256,46,47
 153 -325 153 -325 166 -313.5 c 128,-1,48
 179 -302 179 -302 209 -302 c 2,49,-1
 472 -302 l 1,50,-1
 620 0 l 1,0,-1
EndSplineSet
EndChar

StartChar: z
Encoding: 122 122 84
Width: 1229
GlyphClass: 2
Flags: W
LayerCount: 2
Fore
SplineSet
887 413 m 1,0,-1
 342 413 l 1,1,-1
 342 84 l 1,2,-1
 437 84 l 2,3,4
 493 84 493 84 493 42 c 256,5,6
 493 0 493 0 437 0 c 2,7,-1
 163 0 l 2,8,9
 107 0 107 0 107 42 c 256,10,11
 107 84 107 84 163 84 c 2,12,-1
 258 84 l 1,13,-1
 258 781 l 1,14,-1
 193 781 l 2,15,16
 137 781 137 781 137 823 c 0,17,18
 137 866 137 866 193 866 c 2,19,-1
 407 866 l 2,20,21
 463 866 463 866 463 823 c 0,22,23
 463 781 463 781 407 781 c 2,24,-1
 342 781 l 1,25,-1
 342 498 l 1,26,-1
 887 498 l 1,27,-1
 887 781 l 1,28,-1
 823 781 l 2,29,30
 766 781 766 781 766 823 c 0,31,32
 766 866 766 866 823 866 c 2,33,-1
 1036 866 l 2,34,35
 1092 866 1092 866 1092 823 c 0,36,37
 1092 781 1092 781 1036 781 c 2,38,-1
 971 781 l 1,39,-1
 971 84 l 1,40,-1
 1066 84 l 2,41,42
 1122 84 1122 84 1122 42 c 256,43,44
 1122 0 1122 0 1066 0 c 2,45,-1
 792 0 l 2,46,47
 736 0 736 0 736 42 c 256,48,49
 736 84 736 84 792 84 c 2,50,-1
 887 84 l 1,51,-1
 887 413 l 1,0,-1
EndSplineSet
EndChar

StartChar: braceleft
Encoding: 123 123 85
Width: 1229
GlyphClass: 2
Flags: W
LayerCount: 2
Fore
SplineSet
566 498 m 1,0,1
 616 460 616 460 634 426 c 0,2,3
 657 381 657 381 657 319 c 2,4,-1
 657 -40 l 2,5,6
 657 -97 657 -97 690 -133.5 c 128,-1,7
 723 -170 723 -170 772 -175 c 0,8,9
 803 -178 803 -178 813 -187 c 0,10,11
 826 -199 826 -199 826 -217 c 0,12,13
 826 -236 826 -236 813 -247.5 c 128,-1,14
 800 -259 800 -259 775 -259 c 0,15,16
 696 -259 696 -259 643 -209 c 0,17,18
 572 -140 572 -140 572 -41 c 2,19,-1
 572 319 l 2,20,21
 572 374 572 374 539 411.5 c 128,-1,22
 506 449 506 449 455 453 c 0,23,24
 427 456 427 456 416 467 c 128,-1,25
 405 478 405 478 405 498 c 0,26,27
 405 517 405 517 416 528 c 128,-1,28
 427 539 427 539 455 542 c 0,29,30
 507 546 507 546 539.5 583.5 c 128,-1,31
 572 621 572 621 572 676 c 2,32,-1
 572 1036 l 2,33,34
 572 1130 572 1130 632 1192.5 c 128,-1,35
 692 1255 692 1255 776 1255 c 0,36,37
 800 1255 800 1255 813 1243 c 128,-1,38
 826 1231 826 1231 826 1213 c 256,39,40
 826 1195 826 1195 813 1183 c 0,41,42
 804 1173 804 1173 772 1170 c 0,43,44
 722 1165 722 1165 689.5 1128 c 128,-1,45
 657 1091 657 1091 657 1036 c 2,46,-1
 657 676 l 2,47,48
 657 613 657 613 637 574.5 c 128,-1,49
 617 536 617 536 566 498 c 1,0,1
EndSplineSet
EndChar

StartChar: bar
Encoding: 124 124 86
Width: 1229
GlyphClass: 2
Flags: W
LayerCount: 2
Fore
SplineSet
657 1198 m 2,0,-1
 656 -203 l 2,1,2
 656 -233 656 -233 644.5 -246 c 128,-1,3
 633 -259 633 -259 614 -259 c 0,4,5
 596 -259 596 -259 584 -246 c 128,-1,6
 572 -233 572 -233 572 -203 c 2,7,-1
 572 1198 l 2,8,9
 572 1229 572 1229 584 1242 c 128,-1,10
 596 1255 596 1255 614 1255 c 0,11,12
 633 1255 633 1255 645 1242 c 128,-1,13
 657 1229 657 1229 657 1198 c 2,0,-1
EndSplineSet
EndChar

StartChar: braceright
Encoding: 125 125 87
Width: 1229
GlyphClass: 2
Flags: W
LayerCount: 2
Fore
SplineSet
664 498 m 1,0,1
 613 536 613 536 596 570 c 0,2,3
 573 614 573 614 573 676 c 2,4,-1
 573 1036 l 2,5,6
 573 1092 573 1092 540 1129 c 128,-1,7
 507 1166 507 1166 458 1170 c 0,8,9
 426 1173 426 1173 417 1182 c 0,10,11
 404 1195 404 1195 404 1213 c 256,12,13
 404 1231 404 1231 416.5 1243 c 128,-1,14
 429 1255 429 1255 454 1255 c 0,15,16
 534 1255 534 1255 586 1204 c 0,17,18
 657 1136 657 1136 657 1036 c 2,19,-1
 657 676 l 2,20,21
 657 621 657 621 690.5 583.5 c 128,-1,22
 724 546 724 546 775 542 c 0,23,24
 802 539 802 539 813.5 528 c 128,-1,25
 825 517 825 517 825 498 c 0,26,27
 825 478 825 478 813.5 467 c 128,-1,28
 802 456 802 456 775 453 c 0,29,30
 723 449 723 449 690 411.5 c 128,-1,31
 657 374 657 374 657 319 c 2,32,-1
 657 -41 l 2,33,34
 657 -135 657 -135 597 -197.5 c 128,-1,35
 537 -260 537 -260 454 -260 c 0,36,37
 429 -260 429 -260 416.5 -248 c 128,-1,38
 404 -236 404 -236 404 -217 c 0,39,40
 404 -199 404 -199 416 -187 c 0,41,42
 426 -178 426 -178 458 -175 c 0,43,44
 508 -170 508 -170 540.5 -132.5 c 128,-1,45
 573 -95 573 -95 573 -40 c 2,46,-1
 573 319 l 2,47,48
 573 382 573 382 593 421 c 128,-1,49
 613 460 613 460 664 498 c 1,0,1
EndSplineSet
EndChar

StartChar: asciitilde
Encoding: 126 126 88
Width: 1229
GlyphClass: 2
Flags: W
LayerCount: 2
Fore
SplineSet
1003 668 m 0,0,1
 1019 668 1019 668 1031 656 c 128,-1,2
 1043 644 1043 644 1043 628 c 0,3,4
 1043 593 1043 593 956 512.5 c 128,-1,5
 869 432 869 432 796 432 c 0,6,7
 751 432 751 432 705 457.5 c 128,-1,8
 659 483 659 483 574 563 c 0,9,10
 517 617 517 617 487.5 634 c 128,-1,11
 458 651 458 651 434 651 c 0,12,13
 405 651 405 651 379 635 c 0,14,15
 344 615 344 615 283 544 c 0,16,17
 254 511 254 511 245.5 506 c 128,-1,18
 237 501 237 501 227 501 c 0,19,20
 210 501 210 501 198.5 512.5 c 128,-1,21
 187 524 187 524 187 541 c 0,22,23
 187 557 187 557 213 590 c 0,24,25
 279 672 279 672 331 703.5 c 128,-1,26
 383 735 383 735 432 735 c 0,27,28
 473 735 473 735 513 715.5 c 128,-1,29
 553 696 553 696 616 639 c 0,30,31
 717 546 717 546 741.5 531.5 c 128,-1,32
 766 517 766 517 790 517 c 0,33,34
 861 517 861 517 941 619 c 0,35,36
 970 656 970 656 980 662 c 128,-1,37
 990 668 990 668 1003 668 c 0,0,1
EndSplineSet
EndChar

StartChar: Udieresis
Encoding: 220 220 89
Width: 1229
GlyphClass: 2
Flags: W
LayerCount: 2
Fore
SplineSet
1026 0 m 1,0,-1
 918 0 l 1,1,-1
 299 1047 l 1,2,-1
 299 84 l 1,3,-1
 454 84 l 2,4,5
 485 84 485 84 498 72.5 c 128,-1,6
 511 61 511 61 511 42 c 0,7,8
 511 24 511 24 498 12 c 128,-1,9
 485 0 485 0 454 0 c 2,10,-1
 145 0 l 2,11,12
 114 0 114 0 101 12 c 128,-1,13
 88 24 88 24 88 42 c 0,14,15
 88 61 88 61 101 72.5 c 128,-1,16
 114 84 114 84 145 84 c 2,17,-1
 215 84 l 1,18,-1
 215 1086 l 1,19,-1
 102 1086 l 2,20,21
 72 1086 72 1086 59 1097.5 c 128,-1,22
 46 1109 46 1109 46 1128 c 256,23,24
 46 1147 46 1147 59 1158.5 c 128,-1,25
 72 1170 72 1170 102 1170 c 2,26,-1
 322 1170 l 1,27,-1
 942 121 l 1,28,-1
 942 1086 l 1,29,-1
 787 1086 l 2,30,31
 757 1086 757 1086 744 1097.5 c 128,-1,32
 731 1109 731 1109 731 1128 c 256,33,34
 731 1147 731 1147 743.5 1158.5 c 128,-1,35
 756 1170 756 1170 787 1170 c 2,36,-1
 1097 1170 l 2,37,38
 1127 1170 1127 1170 1140 1158.5 c 128,-1,39
 1153 1147 1153 1147 1153 1128 c 256,40,41
 1153 1109 1153 1109 1140 1097.5 c 128,-1,42
 1127 1086 1127 1086 1097 1086 c 2,43,-1
 1026 1086 l 1,44,-1
 1026 0 l 1,0,-1
EndSplineSet
EndChar

StartChar: aacute
Encoding: 225 225 90
Width: 1229
GlyphClass: 2
Flags: W
LayerCount: 2
Fore
SplineSet
298 1255 m 1,0,-1
 298 698 l 1,1,2
 450 896 450 896 665 896 c 0,3,4
 849 896 849 896 980 762.5 c 128,-1,5
 1111 629 1111 629 1111 435 c 0,6,7
 1111 239 1111 239 978.5 103 c 128,-1,8
 846 -33 846 -33 665 -33 c 0,9,10
 445 -33 445 -33 298 165 c 1,11,-1
 298 0 l 1,12,-1
 101 0 l 2,13,14
 71 0 71 0 58 12 c 128,-1,15
 45 24 45 24 45 42 c 0,16,17
 45 61 45 61 58 72.5 c 128,-1,18
 71 84 71 84 101 84 c 2,19,-1
 214 84 l 1,20,-1
 214 1170 l 1,21,-1
 101 1170 l 2,22,23
 71 1170 71 1170 58 1182 c 128,-1,24
 45 1194 45 1194 45 1213 c 0,25,26
 45 1231 45 1231 58 1243 c 128,-1,27
 71 1255 71 1255 101 1255 c 2,28,-1
 298 1255 l 1,0,-1
1027 431 m 256,29,30
 1027 590 1027 590 918 700.5 c 128,-1,31
 809 811 809 811 663 811 c 256,32,33
 517 811 517 811 408 700.5 c 128,-1,34
 299 590 299 590 299 431 c 256,35,36
 299 272 299 272 408 161.5 c 128,-1,37
 517 51 517 51 663 51 c 256,38,39
 809 51 809 51 918 161.5 c 128,-1,40
 1027 272 1027 272 1027 431 c 256,29,30
EndSplineSet
EndChar

StartChar: acircumflex
Encoding: 226 226 91
Width: 1229
GlyphClass: 2
Flags: W
LayerCount: 2
Fore
SplineSet
657 1255 m 1,0,-1
 657 84 l 1,1,-1
 987 84 l 2,2,3
 1018 84 1018 84 1031 72.5 c 128,-1,4
 1044 61 1044 61 1044 42 c 0,5,6
 1044 24 1044 24 1031 12 c 128,-1,7
 1018 0 1018 0 987 0 c 2,8,-1
 243 0 l 2,9,10
 213 0 213 0 200 12 c 128,-1,11
 187 24 187 24 187 42 c 0,12,13
 187 61 187 61 200 72.5 c 128,-1,14
 213 84 213 84 243 84 c 2,15,-1
 573 84 l 1,16,-1
 573 1170 l 1,17,-1
 331 1170 l 2,18,19
 301 1170 301 1170 287.5 1182 c 128,-1,20
 274 1194 274 1194 274 1213 c 0,21,22
 274 1231 274 1231 287 1243 c 128,-1,23
 300 1255 300 1255 331 1255 c 2,24,-1
 657 1255 l 1,0,-1
EndSplineSet
EndChar

StartChar: atilde
Encoding: 227 227 92
Width: 1229
GlyphClass: 2
Flags: W
LayerCount: 2
Fore
SplineSet
897 712 m 1,0,-1
 897 866 l 1,1,-1
 1094 866 l 2,2,3
 1124 866 1124 866 1137 854 c 128,-1,4
 1150 842 1150 842 1150 823 c 0,5,6
 1150 805 1150 805 1137 793 c 128,-1,7
 1124 781 1124 781 1094 781 c 2,8,-1
 981 781 l 1,9,-1
 981 -58 l 2,10,11
 981 -142 981 -142 945 -208 c 0,12,13
 921 -252 921 -252 865 -299 c 128,-1,14
 809 -346 809 -346 763 -366 c 128,-1,15
 717 -386 717 -386 640 -386 c 2,16,-1
 402 -386 l 2,17,18
 372 -386 372 -386 359 -374.5 c 128,-1,19
 346 -363 346 -363 346 -344 c 256,20,21
 346 -325 346 -325 359 -313 c 128,-1,22
 372 -301 372 -301 402 -301 c 2,23,-1
 643 -302 l 2,24,25
 717 -302 717 -302 776.5 -264 c 128,-1,26
 836 -226 836 -226 875 -153 c 0,27,28
 897 -111 897 -111 897 -46 c 2,29,-1
 897 206 l 1,30,31
 762 21 762 21 549 21 c 0,32,33
 376 21 376 21 250.5 149.5 c 128,-1,34
 125 278 125 278 125 459 c 256,35,36
 125 640 125 640 250.5 768 c 128,-1,37
 376 896 376 896 549 896 c 0,38,39
 762 896 762 896 897 712 c 1,0,-1
897 459 m 256,40,41
 897 607 897 607 795.5 709 c 128,-1,42
 694 811 694 811 553 811 c 256,43,44
 412 811 412 811 311 708.5 c 128,-1,45
 210 606 210 606 210 459 c 0,46,47
 210 311 210 311 311 208.5 c 128,-1,48
 412 106 412 106 553 106 c 256,49,50
 694 106 694 106 795.5 208.5 c 128,-1,51
 897 311 897 311 897 459 c 256,40,41
EndSplineSet
EndChar

StartChar: eacute
Encoding: 233 233 93
Width: 1229
GlyphClass: 2
Flags: W
LayerCount: 2
Fore
SplineSet
1021 1086 m 1,0,-1
 1021 384 l 2,1,2
 1021 207 1021 207 903 87 c 128,-1,3
 785 -33 785 -33 618 -33 c 0,4,5
 506 -33 506 -33 419 16 c 128,-1,6
 332 65 332 65 271 164.5 c 128,-1,7
 210 264 210 264 210 384 c 2,8,-1
 210 1086 l 1,9,-1
 139 1086 l 2,10,11
 109 1086 109 1086 96 1097.5 c 128,-1,12
 83 1109 83 1109 83 1128 c 256,13,14
 83 1147 83 1147 97 1160 c 0,15,16
 109 1170 109 1170 139 1170 c 2,17,-1
 449 1170 l 2,18,19
 479 1170 479 1170 492 1158.5 c 128,-1,20
 505 1147 505 1147 505 1128 c 256,21,22
 505 1109 505 1109 492 1097.5 c 128,-1,23
 479 1086 479 1086 449 1086 c 2,24,-1
 294 1086 l 1,25,-1
 294 384 l 2,26,27
 294 245 294 245 389 148 c 128,-1,28
 484 51 484 51 614 51 c 0,29,30
 697 51 697 51 765.5 89 c 128,-1,31
 834 127 834 127 885.5 206 c 128,-1,32
 937 285 937 285 937 384 c 2,33,-1
 937 1086 l 1,34,-1
 782 1086 l 2,35,36
 752 1086 752 1086 739 1097.5 c 128,-1,37
 726 1109 726 1109 726 1128 c 256,38,39
 726 1147 726 1147 739 1158.5 c 128,-1,40
 752 1170 752 1170 782 1170 c 2,41,-1
 1092 1170 l 2,42,43
 1122 1170 1122 1170 1135 1158.5 c 128,-1,44
 1148 1147 1148 1147 1148 1128 c 256,45,46
 1148 1109 1148 1109 1135 1097.5 c 128,-1,47
 1122 1086 1122 1086 1092 1086 c 2,48,-1
 1021 1086 l 1,0,-1
EndSplineSet
EndChar

StartChar: egrave
Encoding: 232 232 94
Width: 1229
GlyphClass: 2
Flags: W
LayerCount: 2
Fore
SplineSet
656 1086 m 1,0,-1
 656 84 l 1,1,-1
 874 84 l 2,2,3
 904 84 904 84 917 72.5 c 128,-1,4
 930 61 930 61 930 42 c 0,5,6
 930 24 930 24 917 12 c 128,-1,7
 904 0 904 0 874 0 c 2,8,-1
 353 0 l 2,9,10
 323 0 323 0 310 12 c 128,-1,11
 297 24 297 24 297 42 c 0,12,13
 297 61 297 61 310 72.5 c 128,-1,14
 323 84 323 84 353 84 c 2,15,-1
 571 84 l 1,16,-1
 571 1086 l 1,17,-1
 227 1086 l 1,18,-1
 227 795 l 2,19,20
 227 764 227 764 215.5 751 c 128,-1,21
 204 738 204 738 185 738 c 0,22,23
 167 738 167 738 155 751 c 128,-1,24
 143 764 143 764 143 795 c 2,25,-1
 143 1170 l 1,26,-1
 1084 1170 l 1,27,-1
 1084 795 l 2,28,29
 1084 764 1084 764 1072.5 751 c 128,-1,30
 1061 738 1061 738 1042 738 c 256,31,32
 1023 738 1023 738 1011.5 751 c 128,-1,33
 1000 764 1000 764 1000 795 c 2,34,-1
 1000 1086 l 1,35,-1
 656 1086 l 1,0,-1
EndSplineSet
EndChar

StartChar: ecircumflex
Encoding: 234 234 95
Width: 1229
GlyphClass: 2
Flags: W
LayerCount: 2
Fore
SplineSet
677 0 m 1,0,-1
 560 0 l 1,1,-1
 137 1086 l 1,2,-1
 72 1086 l 2,3,4
 49 1086 49 1086 39 1090.5 c 128,-1,5
 29 1095 29 1095 22.5 1105.5 c 128,-1,6
 16 1116 16 1116 16 1128 c 256,7,8
 16 1140 16 1140 22.5 1150.5 c 128,-1,9
 29 1161 29 1161 39 1165.5 c 128,-1,10
 49 1170 49 1170 72 1170 c 2,11,-1
 385 1170 l 2,12,13
 409 1170 409 1170 418.5 1165.5 c 128,-1,14
 428 1161 428 1161 434.5 1150.5 c 128,-1,15
 441 1140 441 1140 441 1128 c 256,16,17
 441 1116 441 1116 434 1105.5 c 128,-1,18
 427 1095 427 1095 417.5 1090.5 c 128,-1,19
 408 1086 408 1086 385 1086 c 2,20,-1
 224 1086 l 1,21,-1
 614 84 l 1,22,-1
 620 84 l 1,23,-1
 1005 1086 l 1,24,-1
 845 1086 l 2,25,26
 821 1086 821 1086 811 1090.5 c 128,-1,27
 801 1095 801 1095 794.5 1105.5 c 128,-1,28
 788 1116 788 1116 788 1128 c 256,29,30
 788 1140 788 1140 795 1150.5 c 128,-1,31
 802 1161 802 1161 811.5 1165.5 c 128,-1,32
 821 1170 821 1170 845 1170 c 2,33,-1
 1157 1170 l 2,34,35
 1181 1170 1181 1170 1191 1165.5 c 128,-1,36
 1201 1161 1201 1161 1207.5 1150.5 c 128,-1,37
 1214 1140 1214 1140 1214 1128 c 256,38,39
 1214 1116 1214 1116 1207 1105.5 c 128,-1,40
 1200 1095 1200 1095 1190.5 1090.5 c 128,-1,41
 1181 1086 1181 1086 1157 1086 c 2,42,-1
 1093 1086 l 1,43,-1
 677 0 l 1,0,-1
EndSplineSet
EndChar

StartChar: edieresis
Encoding: 235 235 96
Width: 1229
GlyphClass: 2
Flags: W
LayerCount: 2
Fore
SplineSet
983 0 m 1,0,-1
 851 0 l 1,1,-1
 613 831 l 1,2,-1
 380 0 l 1,3,-1
 248 0 l 1,4,-1
 124 1086 l 1,5,-1
 93 1086 l 2,6,7
 63 1086 63 1086 50 1097.5 c 128,-1,8
 37 1109 37 1109 37 1128 c 256,9,10
 37 1147 37 1147 50 1158.5 c 128,-1,11
 63 1170 63 1170 93 1170 c 2,12,-1
 405 1170 l 2,13,14
 436 1170 436 1170 449 1158.5 c 128,-1,15
 462 1147 462 1147 462 1128 c 256,16,17
 462 1109 462 1109 449 1097.5 c 128,-1,18
 436 1086 436 1086 405 1086 c 2,19,-1
 209 1086 l 1,20,-1
 320 96 l 1,21,-1
 547 911 l 1,22,-1
 676 911 l 1,23,-1
 909 96 l 1,24,-1
 1018 1086 l 1,25,-1
 821 1086 l 2,26,27
 791 1086 791 1086 778 1097.5 c 128,-1,28
 765 1109 765 1109 765 1128 c 256,29,30
 765 1147 765 1147 778 1158.5 c 128,-1,31
 791 1170 791 1170 821 1170 c 2,32,-1
 1131 1170 l 2,33,34
 1162 1170 1162 1170 1175 1158.5 c 128,-1,35
 1188 1147 1188 1147 1188 1128 c 256,36,37
 1188 1109 1188 1109 1175 1097.5 c 128,-1,38
 1162 1086 1162 1086 1131 1086 c 2,39,-1
 1100 1086 l 1,40,-1
 983 0 l 1,0,-1
EndSplineSet
EndChar

StartChar: iacute
Encoding: 237 237 97
Width: 1229
GlyphClass: 2
Flags: W
LayerCount: 2
Fore
SplineSet
659 528 m 1,0,-1
 659 84 l 1,1,-1
 877 84 l 2,2,3
 907 84 907 84 920 72.5 c 128,-1,4
 933 61 933 61 933 42 c 0,5,6
 933 24 933 24 920 12 c 128,-1,7
 907 0 907 0 877 0 c 2,8,-1
 356 0 l 2,9,10
 326 0 326 0 313 12 c 128,-1,11
 300 24 300 24 300 42 c 0,12,13
 300 61 300 61 312.5 72.5 c 128,-1,14
 325 84 325 84 356 84 c 2,15,-1
 574 84 l 1,16,-1
 574 528 l 1,17,-1
 205 1086 l 1,18,-1
 155 1086 l 2,19,20
 125 1086 125 1086 112 1097.5 c 128,-1,21
 99 1109 99 1109 99 1128 c 256,22,23
 99 1147 99 1147 112 1158.5 c 128,-1,24
 125 1170 125 1170 155 1170 c 2,25,-1
 386 1170 l 2,26,27
 416 1170 416 1170 429 1158.5 c 128,-1,28
 442 1147 442 1147 442 1128 c 256,29,30
 442 1109 442 1109 429 1097.5 c 128,-1,31
 416 1086 416 1086 386 1086 c 2,32,-1
 303 1086 l 1,33,-1
 617 613 l 1,34,-1
 924 1086 l 1,35,-1
 842 1086 l 2,36,37
 811 1086 811 1086 798 1097.5 c 128,-1,38
 785 1109 785 1109 785 1128 c 256,39,40
 785 1147 785 1147 798 1158.5 c 128,-1,41
 811 1170 811 1170 842 1170 c 2,42,-1
 1072 1170 l 2,43,44
 1102 1170 1102 1170 1115 1158.5 c 128,-1,45
 1128 1147 1128 1147 1128 1128 c 256,46,47
 1128 1109 1128 1109 1115 1097.5 c 128,-1,48
 1102 1086 1102 1086 1072 1086 c 2,49,-1
 1022 1086 l 1,50,-1
 659 528 l 1,0,-1
EndSplineSet
Substitution2: "'locl' Localized Forms in Latin lookup 0 subtable" glyph3150
EndChar

StartChar: igrave
Encoding: 236 236 98
Width: 1229
GlyphClass: 2
Flags: W
LayerCount: 2
Fore
SplineSet
665 599 m 1,0,-1
 1064 84 l 1,1,-1
 1096 84 l 2,2,3
 1126 84 1126 84 1139 72.5 c 128,-1,4
 1152 61 1152 61 1152 42 c 0,5,6
 1152 24 1152 24 1139 12 c 128,-1,7
 1126 0 1126 0 1096 0 c 2,8,-1
 826 0 l 2,9,10
 796 0 796 0 783 12 c 128,-1,11
 770 24 770 24 770 42 c 0,12,13
 770 61 770 61 783 72.5 c 128,-1,14
 796 84 796 84 826 84 c 2,15,-1
 960 84 l 1,16,-1
 613 530 l 1,17,-1
 270 84 l 1,18,-1
 404 84 l 2,19,20
 434 84 434 84 447 72.5 c 128,-1,21
 460 61 460 61 460 42 c 0,22,23
 460 24 460 24 447 12 c 128,-1,24
 434 0 434 0 404 0 c 2,25,-1
 136 0 l 2,26,27
 106 0 106 0 93 12 c 128,-1,28
 80 24 80 24 80 42 c 0,29,30
 80 56 80 56 88 67 c 128,-1,31
 96 78 96 78 106 81 c 128,-1,32
 116 84 116 84 167 84 c 1,33,-1
 561 599 l 1,34,-1
 185 1086 l 1,35,-1
 154 1086 l 2,36,37
 124 1086 124 1086 111 1097.5 c 128,-1,38
 98 1109 98 1109 98 1128 c 256,39,40
 98 1147 98 1147 111 1158.5 c 128,-1,41
 124 1170 124 1170 154 1170 c 2,42,-1
 383 1170 l 2,43,44
 414 1170 414 1170 427 1158.5 c 128,-1,45
 440 1147 440 1147 440 1128 c 256,46,47
 440 1109 440 1109 427 1097.5 c 128,-1,48
 414 1086 414 1086 383 1086 c 2,49,-1
 289 1086 l 1,50,-1
 613 667 l 1,51,-1
 935 1086 l 1,52,-1
 841 1086 l 2,53,54
 810 1086 810 1086 797 1097.5 c 128,-1,55
 784 1109 784 1109 784 1128 c 256,56,57
 784 1147 784 1147 797 1158.5 c 128,-1,58
 810 1170 810 1170 841 1170 c 2,59,-1
 1071 1170 l 2,60,61
 1101 1170 1101 1170 1114 1158.5 c 128,-1,62
 1127 1147 1127 1147 1127 1128 c 256,63,64
 1127 1109 1127 1109 1114 1097.5 c 128,-1,65
 1101 1086 1101 1086 1071 1086 c 2,66,-1
 1039 1086 l 1,67,-1
 665 599 l 1,0,-1
EndSplineSet
EndChar

StartChar: icircumflex
Encoding: 238 238 99
Width: 1229
GlyphClass: 2
Flags: W
LayerCount: 2
Fore
SplineSet
769 731 m 0,0,1
 769 673 769 673 730 633.5 c 128,-1,2
 691 594 691 594 633 594 c 2,3,-1
 597 594 l 2,4,5
 541 594 541 594 501 633.5 c 128,-1,6
 461 673 461 673 461 729 c 0,7,8
 461 786 461 786 500.5 826 c 128,-1,9
 540 866 540 866 597 866 c 2,10,-1
 633 866 l 2,11,12
 689 866 689 866 729 826.5 c 128,-1,13
 769 787 769 787 769 731 c 0,0,1
769 337 m 256,14,15
 769 280 769 280 729.5 240.5 c 128,-1,16
 690 201 690 201 633 201 c 2,17,-1
 597 201 l 2,18,19
 541 201 541 201 501 240.5 c 128,-1,20
 461 280 461 280 461 336 c 256,21,22
 461 392 461 392 501 432 c 128,-1,23
 541 472 541 472 597 472 c 2,24,-1
 633 472 l 2,25,26
 690 472 690 472 729.5 433 c 128,-1,27
 769 394 769 394 769 337 c 256,14,15
EndSplineSet
EndChar

StartChar: idieresis
Encoding: 239 239 100
Width: 1229
GlyphClass: 2
Flags: W
LayerCount: 2
Fore
SplineSet
929 737 m 0,0,1
 929 695 929 695 873 695 c 2,2,-1
 357 695 l 2,3,4
 301 695 301 695 301 738 c 0,5,6
 301 780 301 780 357 780 c 2,7,-1
 873 780 l 2,8,9
 929 780 929 780 929 737 c 0,0,1
929 436 m 256,10,11
 929 394 929 394 873 394 c 2,12,-1
 357 394 l 2,13,14
 301 394 301 394 301 436 c 256,15,16
 301 478 301 478 357 478 c 2,17,-1
 873 478 l 2,18,19
 929 478 929 478 929 436 c 256,10,11
EndSplineSet
EndChar

StartChar: oacute
Encoding: 243 243 101
Width: 1229
GlyphClass: 2
Flags: W
LayerCount: 2
Fore
SplineSet
49.263671875 825.389648438 m 260,0,1
 49.8720703125 867.384765625 49.8720703125 867.384765625 104.866210938 866.587890625 c 6,2,-1
 773.795898438 856.893554688 l 5,3,-1
 771.056640625 667.913085938 l 6,4,5
 770.24609375 611.918945312 770.24609375 611.918945312 727.25 612.541992188 c 4,6,7
 685.254882812 613.150390625 685.254882812 613.150390625 686.06640625 669.14453125 c 6,8,-1
 687.587890625 774.133789062 l 5,9,-1
 230.635742188 780.755859375 l 5,10,-1
 225.607421875 433.79296875 l 5,11,-1
 452.583007812 430.502929688 l 5,12,-1
 453.379882812 485.497070312 l 6,13,14
 454.19140625 541.491210938 454.19140625 541.491210938 496.1875 540.8828125 c 4,15,16
 539.182617188 540.259765625 539.182617188 540.259765625 538.37109375 484.265625 c 6,17,-1
 535.560546875 290.286132812 l 6,18,19
 534.749023438 234.291992188 534.749023438 234.291992188 491.752929688 234.915039062 c 4,20,21
 449.7578125 235.5234375 449.7578125 235.5234375 450.569335938 291.517578125 c 6,22,-1
 451.366210938 346.51171875 l 5,23,-1
 224.389648438 349.801757812 l 5,24,-1
 220.53515625 83.8291015625 l 5,25,-1
 275.529296875 83.0322265625 l 6,26,27
 316.525390625 82.4384765625 316.525390625 82.4384765625 315.887695312 38.4423828125 c 4,28,29
 315.29296875 -2.552734375 315.29296875 -2.552734375 274.297851562 -1.958984375 c 6,30,-1
 78.318359375 0.8818359375 l 6,31,32
 37.322265625 1.4755859375 37.322265625 1.4755859375 37.9169921875 42.4716796875 c 4,33,34
 38.5546875 86.466796875 38.5546875 86.466796875 79.5498046875 85.873046875 c 6,35,-1
 136.543945312 85.046875 l 5,36,-1
 146.64453125 781.973632812 l 5,37,-1
 104.6484375 782.58203125 l 6,38,39
 48.654296875 783.393554688 48.654296875 783.393554688 49.263671875 825.389648438 c 260,0,1
EndSplineSet
EndChar

StartChar: otilde
Encoding: 245 245 102
Width: 1229
GlyphClass: 2
Flags: W
LayerCount: 2
Fore
SplineSet
412 565 m 1,0,-1
 412 84 l 1,1,-1
 700 84 l 2,2,3
 730 84 730 84 743 72.5 c 128,-1,4
 756 61 756 61 756 42 c 0,5,6
 756 24 756 24 743 12 c 128,-1,7
 730 0 730 0 700 0 c 2,8,-1
 215 0 l 2,9,10
 185 0 185 0 172 12 c 128,-1,11
 159 24 159 24 159 42 c 0,12,13
 159 61 159 61 172 72.5 c 128,-1,14
 185 84 185 84 215 84 c 2,15,-1
 328 84 l 1,16,-1
 328 1086 l 1,17,-1
 215 1086 l 2,18,19
 185 1086 185 1086 172 1097.5 c 128,-1,20
 159 1109 159 1109 159 1128 c 256,21,22
 159 1147 159 1147 174 1160 c 0,23,24
 185 1170 185 1170 215 1170 c 2,25,-1
 1140 1170 l 1,26,-1
 1140 881 l 2,27,28
 1140 851 1140 851 1128 838 c 128,-1,29
 1116 825 1116 825 1098 825 c 0,30,31
 1079 825 1079 825 1067 838 c 128,-1,32
 1055 851 1055 851 1055 881 c 2,33,-1
 1055 1086 l 1,34,-1
 412 1086 l 1,35,-1
 412 649 l 1,36,-1
 713 649 l 1,37,-1
 713 744 l 2,38,39
 713 774 713 774 725 787 c 128,-1,40
 737 800 737 800 756 800 c 0,41,42
 774 800 774 800 786 787 c 128,-1,43
 798 774 798 774 798 744 c 2,44,-1
 798 470 l 2,45,46
 798 440 798 440 786 427 c 128,-1,47
 774 414 774 414 756 414 c 0,48,49
 737 414 737 414 725 427 c 128,-1,50
 713 440 713 440 713 470 c 2,51,-1
 713 565 l 1,52,-1
 412 565 l 1,0,-1
EndSplineSet
EndChar

StartChar: ugrave
Encoding: 249 249 103
Width: 1229
GlyphClass: 2
Flags: W
LayerCount: 2
Fore
SplineSet
965 781 m 1,0,-1
 965 809 l 2,1,2
 965 840 965 840 977 853 c 128,-1,3
 989 866 989 866 1007 866 c 0,4,5
 1026 866 1026 866 1038 853 c 128,-1,6
 1050 840 1050 840 1050 809 c 2,7,-1
 1050 619 l 2,8,9
 1049 588 1049 588 1037.5 575 c 128,-1,10
 1026 562 1026 562 1007 562 c 0,11,12
 990 562 990 562 978.5 573.5 c 128,-1,13
 967 585 967 585 965 612 c 0,14,15
 959 683 959 683 871.5 747 c 128,-1,16
 784 811 784 811 636 811 c 0,17,18
 449 811 449 811 352 694 c 128,-1,19
 255 577 255 577 255 426 c 0,20,21
 255 263 255 263 362 157 c 128,-1,22
 469 51 469 51 639 51 c 0,23,24
 737 51 737 51 838.5 87 c 128,-1,25
 940 123 940 123 1022 203 c 0,26,27
 1043 223 1043 223 1059 223 c 0,28,29
 1076 223 1076 223 1087.5 211.5 c 128,-1,30
 1099 200 1099 200 1099 183 c 0,31,32
 1099 140 1099 140 998 74 c 0,33,34
 835 -33 835 -33 635 -33 c 0,35,36
 432 -33 432 -33 301.5 96.5 c 128,-1,37
 171 226 171 226 171 425 c 0,38,39
 171 628 171 628 304.5 762 c 128,-1,40
 438 896 438 896 641 896 c 0,41,42
 834 896 834 896 965 781 c 1,0,-1
EndSplineSet
EndChar

StartChar: ucircumflex
Encoding: 251 251 104
Width: 1229
GlyphClass: 2
Flags: W
LayerCount: 2
Fore
SplineSet
993 390 m 2,0,1
 993 237 993 237 889 121 c 0,2,3
 782 0 782 0 631 0 c 2,4,-1
 248 0 l 2,5,6
 207 0 207 0 207 41 c 0,7,8
 207 84 207 84 248 84 c 2,9,-1
 301 84 l 1,10,-1
 301 399 l 1,11,-1
 274 399 l 2,12,13
 207 399 207 399 207 442 c 0,14,15
 207 484 207 484 277 484 c 2,16,-1
 301 484 l 1,17,-1
 301 781 l 1,18,-1
 248 781 l 2,19,20
 207 781 207 781 207 824 c 0,21,22
 207 866 207 866 248 866 c 2,23,-1
 631 866 l 2,24,25
 784 866 784 866 891 745 c 0,26,27
 993 629 993 629 993 476 c 2,28,-1
 993 390 l 2,0,1
907 377 m 2,29,-1
 907 489 l 2,30,31
 907 598 907 598 825 687 c 0,32,33
 738 781 738 781 623 781 c 2,34,-1
 387 781 l 1,35,-1
 387 484 l 1,36,-1
 560 484 l 2,37,38
 640 484 640 484 640 442 c 0,39,40
 640 399 640 399 561 399 c 2,41,-1
 387 399 l 1,42,-1
 387 84 l 1,43,-1
 623 84 l 2,44,45
 739 84 739 84 825 177 c 0,46,47
 907 267 907 267 907 377 c 2,29,-1
EndSplineSet
EndChar

StartChar: degree
Encoding: 176 176 105
Width: 1229
GlyphClass: 2
Flags: W
LayerCount: 2
Fore
SplineSet
337 1214 m 0,0,1
 337 1329 337 1329 418.5 1410 c 128,-1,2
 500 1491 500 1491 614 1491 c 0,3,4
 730 1491 730 1491 811 1410 c 128,-1,5
 892 1329 892 1329 892 1214 c 256,6,7
 892 1099 892 1099 810.5 1017.5 c 128,-1,8
 729 936 729 936 614 936 c 0,9,10
 500 936 500 936 418.5 1017 c 128,-1,11
 337 1098 337 1098 337 1214 c 0,0,1
446 1214 m 256,12,13
 446 1144 446 1144 495.5 1094.5 c 128,-1,14
 545 1045 545 1045 615 1045 c 0,15,16
 684 1045 684 1045 733.5 1094.5 c 128,-1,17
 783 1144 783 1144 783 1214 c 256,18,19
 783 1284 783 1284 733.5 1333.5 c 128,-1,20
 684 1383 684 1383 615 1383 c 0,21,22
 545 1383 545 1383 495.5 1333.5 c 128,-1,23
 446 1284 446 1284 446 1214 c 256,12,13
EndSplineSet
EndChar

StartChar: cent
Encoding: 162 162 106
Width: 1229
GlyphClass: 2
Flags: W
LayerCount: 2
Fore
SplineSet
856 0 m 1,0,-1
 856 121 l 1,1,2
 673 -33 673 -33 465 -33 c 0,3,4
 314 -33 314 -33 229 43.5 c 128,-1,5
 144 120 144 120 144 231 c 0,6,7
 144 353 144 353 256 444 c 128,-1,8
 368 535 368 535 583 535 c 0,9,10
 641 535 641 535 709 527.5 c 128,-1,11
 777 520 777 520 856 504 c 1,12,-1
 856 640 l 2,13,14
 856 709 856 709 792 760 c 128,-1,15
 728 811 728 811 600 811 c 0,16,17
 502 811 502 811 325 754 c 0,18,19
 293 744 293 744 284 744 c 0,20,21
 268 744 268 744 256.5 756 c 128,-1,22
 245 768 245 768 245 786 c 0,23,24
 245 803 245 803 255 813 c 0,25,26
 269 828 269 828 368 854 c 0,27,28
 524 896 524 896 604 896 c 0,29,30
 763 896 763 896 852 817.5 c 128,-1,31
 941 739 941 739 941 640 c 2,32,-1
 941 84 l 1,33,-1
 1053 84 l 2,34,35
 1084 84 1084 84 1097 72.5 c 128,-1,36
 1110 61 1110 61 1110 42 c 0,37,38
 1110 24 1110 24 1097 12 c 128,-1,39
 1084 0 1084 0 1053 0 c 2,40,-1
 856 0 l 1,0,-1
856 418 m 1,41,42
 797 435 797 435 731 443 c 128,-1,43
 665 451 665 451 592 451 c 0,44,45
 409 451 409 451 306 372 c 0,46,47
 228 313 228 313 228 231 c 0,48,49
 228 155 228 155 287.5 103 c 128,-1,50
 347 51 347 51 461 51 c 0,51,52
 570 51 570 51 663.5 94.5 c 128,-1,53
 757 138 757 138 856 233 c 1,54,-1
 856 418 l 1,41,42
EndSplineSet
EndChar

StartChar: sterling
Encoding: 163 163 107
Width: 1229
GlyphClass: 2
Flags: W
LayerCount: 2
Fore
SplineSet
965 781 m 1,0,-1
 965 809 l 2,1,2
 965 840 965 840 977 853 c 128,-1,3
 989 866 989 866 1007 866 c 0,4,5
 1026 866 1026 866 1038 853 c 128,-1,6
 1050 840 1050 840 1050 809 c 2,7,-1
 1050 619 l 2,8,9
 1049 588 1049 588 1037.5 575 c 128,-1,10
 1026 562 1026 562 1007 562 c 0,11,12
 990 562 990 562 978.5 573.5 c 128,-1,13
 967 585 967 585 965 612 c 0,14,15
 959 683 959 683 871.5 747 c 128,-1,16
 784 811 784 811 636 811 c 0,17,18
 449 811 449 811 352 694 c 128,-1,19
 255 577 255 577 255 426 c 0,20,21
 255 263 255 263 362 157 c 128,-1,22
 469 51 469 51 639 51 c 0,23,24
 737 51 737 51 838.5 87 c 128,-1,25
 940 123 940 123 1022 203 c 0,26,27
 1043 223 1043 223 1059 223 c 0,28,29
 1076 223 1076 223 1087.5 211.5 c 128,-1,30
 1099 200 1099 200 1099 183 c 0,31,32
 1099 140 1099 140 998 74 c 0,33,34
 835 -33 835 -33 635 -33 c 0,35,36
 432 -33 432 -33 301.5 96.5 c 128,-1,37
 171 226 171 226 171 425 c 0,38,39
 171 628 171 628 304.5 762 c 128,-1,40
 438 896 438 896 641 896 c 0,41,42
 834 896 834 896 965 781 c 1,0,-1
EndSplineSet
EndChar

StartChar: section
Encoding: 167 167 108
Width: 1229
GlyphClass: 2
Flags: W
LayerCount: 2
Fore
SplineSet
735 1297 m 1,0,-1
 735 1080 l 1,1,-1
 611 1080 l 1,2,-1
 611 1297 l 1,3,-1
 735 1297 l 1,0,-1
740 781 m 1,4,-1
 241 781 l 2,5,6
 211 781 211 781 198 793 c 128,-1,7
 185 805 185 805 185 824 c 0,8,9
 185 842 185 842 197.5 854 c 128,-1,10
 210 866 210 866 241 866 c 2,11,-1
 824 866 l 1,12,-1
 824 -59 l 2,13,14
 824 -166 824 -166 780 -238 c 128,-1,15
 736 -310 736 -310 648 -355 c 0,16,17
 587 -386 587 -386 503 -386 c 2,18,-1
 236 -386 l 2,19,20
 206 -386 206 -386 193 -374.5 c 128,-1,21
 180 -363 180 -363 180 -344 c 256,22,23
 180 -325 180 -325 193 -313 c 128,-1,24
 206 -301 206 -301 236 -301 c 2,25,-1
 501 -302 l 2,26,27
 608 -302 608 -302 674 -232 c 128,-1,28
 740 -162 740 -162 740 -59 c 2,29,-1
 740 781 l 1,4,-1
EndSplineSet
EndChar

StartChar: germandbls
Encoding: 223 223 109
Width: 1229
GlyphClass: 2
Flags: W
LayerCount: 2
Fore
SplineSet
902 0 m 1,0,-1
 902 123 l 1,1,2
 730 -33 730 -33 530 -33 c 0,3,4
 407 -33 407 -33 343 34 c 0,5,6
 260 122 260 122 260 239 c 2,7,-1
 260 781 l 1,8,-1
 147 781 l 2,9,10
 117 781 117 781 104 793 c 128,-1,11
 91 805 91 805 91 824 c 0,12,13
 91 842 91 842 104 854 c 128,-1,14
 117 866 117 866 147 866 c 2,15,-1
 344 866 l 1,16,-1
 344 239 l 2,17,18
 344 157 344 157 396 104 c 128,-1,19
 448 51 448 51 526 51 c 0,20,21
 731 51 731 51 902 239 c 1,22,-1
 902 781 l 1,23,-1
 747 781 l 2,24,25
 717 781 717 781 704 793 c 128,-1,26
 691 805 691 805 691 824 c 0,27,28
 691 842 691 842 704 854 c 128,-1,29
 717 866 717 866 747 866 c 2,30,-1
 986 866 l 1,31,-1
 986 84 l 1,32,-1
 1057 84 l 2,33,34
 1087 84 1087 84 1100 72.5 c 128,-1,35
 1113 61 1113 61 1113 42 c 0,36,37
 1113 24 1113 24 1100 12 c 128,-1,38
 1087 0 1087 0 1057 0 c 2,39,-1
 902 0 l 1,0,-1
EndSplineSet
EndChar

StartChar: trademark
Encoding: 8482 8482 110
Width: 1229
GlyphClass: 2
Flags: W
LayerCount: 2
Fore
SplineSet
297 1105 m 1,0,-1
 297 673 l 1,1,-1
 390 673 l 2,2,3
 431 673 431 673 431 640 c 0,4,5
 431 608 431 608 390 608 c 2,6,-1
 138 608 l 2,7,8
 97 608 97 608 97 640 c 0,9,10
 97 673 97 673 138 673 c 2,11,-1
 232 673 l 1,12,-1
 232 1105 l 1,13,-1
 69 1105 l 1,14,-1
 69 962 l 2,15,16
 69 921 69 921 37 921 c 0,17,18
 4 921 4 921 4 962 c 2,19,-1
 4 1170 l 1,20,-1
 524 1170 l 1,21,-1
 524 962 l 2,22,23
 524 921 524 921 492 921 c 0,24,25
 459 921 459 921 459 962 c 2,26,-1
 459 1105 l 1,27,-1
 297 1105 l 1,0,-1
914 776 m 1,28,-1
 846 776 l 1,29,-1
 680 1101 l 1,30,-1
 680 673 l 1,31,-1
 738 673 l 2,32,33
 780 673 780 673 780 640 c 0,34,35
 780 608 780 608 738 608 c 2,36,-1
 577 608 l 2,37,38
 535 608 535 608 535 640 c 0,39,40
 535 673 535 673 577 673 c 2,41,-1
 613 673 l 1,42,-1
 613 1170 l 1,43,-1
 720 1170 l 1,44,-1
 880 858 l 1,45,-1
 1040 1170 l 1,46,-1
 1147 1170 l 1,47,-1
 1147 673 l 1,48,-1
 1183 673 l 2,49,50
 1225 673 1225 673 1225 640 c 0,51,52
 1225 608 1225 608 1183 608 c 2,53,-1
 1022 608 l 2,54,55
 980 608 980 608 980 640 c 0,56,57
 980 673 980 673 1022 673 c 2,58,-1
 1080 673 l 1,59,-1
 1080 1103 l 1,60,-1
 914 776 l 1,28,-1
EndSplineSet
EndChar

StartChar: dieresis
Encoding: 168 168 111
Width: 1229
GlyphClass: 2
Flags: W
LayerCount: 2
Fore
SplineSet
1022 0 m 1,0,-1
 213 0 l 1,1,-1
 213 122 l 1,2,-1
 895 1079 l 1,3,-1
 895 1086 l 1,4,-1
 336 1086 l 1,5,-1
 336 839 l 2,6,7
 336 808 336 808 324 795 c 128,-1,8
 312 782 312 782 293 782 c 0,9,10
 275 782 275 782 263 795 c 128,-1,11
 251 808 251 808 251 839 c 2,12,-1
 251 1170 l 1,13,-1
 976 1170 l 1,14,-1
 976 1051 l 1,15,-1
 294 93 l 1,16,-1
 294 84 l 1,17,-1
 938 84 l 1,18,-1
 938 377 l 2,19,20
 938 408 938 408 949.5 421 c 128,-1,21
 961 434 961 434 980 434 c 256,22,23
 999 434 999 434 1010.5 421 c 128,-1,24
 1022 408 1022 408 1022 377 c 2,25,-1
 1022 0 l 1,0,-1
EndSplineSet
EndChar

StartChar: Oslash
Encoding: 216 216 112
Width: 1229
GlyphClass: 2
Flags: W
LayerCount: 2
Fore
SplineSet
232 866 m 1,0,-1
 232 781 l 1,1,2
 339 896 339 896 447 896 c 0,3,4
 512 896 512 896 561 861.5 c 128,-1,5
 610 827 610 827 643 757 c 1,6,7
 699 827 699 827 756.5 861.5 c 128,-1,8
 814 896 814 896 872 896 c 0,9,10
 963 896 963 896 1017 837 c 0,11,12
 1088 761 1088 761 1088 671 c 2,13,-1
 1088 84 l 1,14,-1
 1159 84 l 2,15,16
 1189 84 1189 84 1202 72.5 c 128,-1,17
 1215 61 1215 61 1215 42 c 0,18,19
 1215 24 1215 24 1202 12 c 128,-1,20
 1189 0 1189 0 1159 0 c 2,21,-1
 1004 0 l 1,22,-1
 1004 663 l 2,23,24
 1004 727 1004 727 965 769 c 128,-1,25
 926 811 926 811 875 811 c 0,26,27
 829 811 829 811 778 776.5 c 128,-1,28
 727 742 727 742 662 641 c 1,29,-1
 662 84 l 1,30,-1
 732 84 l 2,31,32
 762 84 762 84 775 72.5 c 128,-1,33
 788 61 788 61 788 42 c 0,34,35
 788 24 788 24 775 12 c 128,-1,36
 762 0 762 0 732 0 c 2,37,-1
 577 0 l 1,38,-1
 577 657 l 2,39,40
 577 724 577 724 537.5 767.5 c 128,-1,41
 498 811 498 811 449 811 c 0,42,43
 404 811 404 811 360 782 c 0,44,45
 299 741 299 741 232 641 c 1,46,-1
 232 84 l 1,47,-1
 303 84 l 2,48,49
 333 84 333 84 346 72.5 c 128,-1,50
 359 61 359 61 359 42 c 0,51,52
 359 24 359 24 346 12 c 128,-1,53
 333 0 333 0 303 0 c 2,54,-1
 77 0 l 2,55,56
 47 0 47 0 34 12 c 128,-1,57
 21 24 21 24 21 42 c 0,58,59
 21 61 21 61 34 72.5 c 128,-1,60
 47 84 47 84 77 84 c 2,61,-1
 148 84 l 1,62,-1
 148 781 l 1,63,-1
 77 781 l 2,64,65
 47 781 47 781 34 793 c 128,-1,66
 21 805 21 805 21 824 c 0,67,68
 21 842 21 842 34 854 c 128,-1,69
 47 866 47 866 77 866 c 2,70,-1
 232 866 l 1,0,-1
EndSplineSet
EndChar

StartChar: infinity
Encoding: 8734 8734 113
Width: 1229
GlyphClass: 2
Flags: W
LayerCount: 2
Fore
SplineSet
615 678 m 1,0,1
 741 846 741 846 896 846 c 0,2,3
 996 846 996 846 1058 785 c 128,-1,4
 1120 724 1120 724 1120 624 c 0,5,6
 1120 523 1120 523 1059.5 460.5 c 128,-1,7
 999 398 999 398 903 398 c 0,8,9
 755 398 755 398 615 568 c 1,10,11
 531 468 531 468 465 433.5 c 128,-1,12
 399 399 399 399 327 399 c 0,13,14
 233 399 233 399 171 460.5 c 128,-1,15
 109 522 109 522 109 620 c 256,16,17
 109 718 109 718 173 781.5 c 128,-1,18
 237 845 237 845 333 845 c 0,19,20
 482 845 482 845 615 678 c 1,0,1
665 622 m 1,21,22
 753 528 753 528 802.5 502.5 c 128,-1,23
 852 477 852 477 903 477 c 0,24,25
 969 477 969 477 1007.5 516.5 c 128,-1,26
 1046 556 1046 556 1046 623 c 0,27,28
 1046 687 1046 687 1004.5 728.5 c 128,-1,29
 963 770 963 770 899 770 c 0,30,31
 844 770 844 770 781 733.5 c 128,-1,32
 718 697 718 697 665 622 c 1,21,22
567 624 m 1,33,34
 480 716 480 716 429 742.5 c 128,-1,35
 378 769 378 769 326 769 c 0,36,37
 263 769 263 769 222.5 729 c 128,-1,38
 182 689 182 689 182 623 c 0,39,40
 182 555 182 555 221.5 515.5 c 128,-1,41
 261 476 261 476 323 476 c 0,42,43
 386 476 386 476 451.5 518 c 128,-1,44
 517 560 517 560 567 624 c 1,33,34
EndSplineSet
EndChar

StartChar: plusminus
Encoding: 177 177 114
Width: 1229
GlyphClass: 2
Flags: W
LayerCount: 2
Fore
SplineSet
657 676 m 1,0,-1
 657 256 l 2,1,2
 657 226 657 226 645 213 c 128,-1,3
 633 200 633 200 614 200 c 0,4,5
 596 200 596 200 584 213 c 128,-1,6
 572 226 572 226 572 256 c 2,7,-1
 572 676 l 1,8,-1
 200 676 l 2,9,10
 170 676 170 676 157 687.5 c 128,-1,11
 144 699 144 699 144 718 c 256,12,13
 144 737 144 737 157 748.5 c 128,-1,14
 170 760 170 760 200 760 c 2,15,-1
 572 760 l 1,16,-1
 572 1178 l 2,17,18
 572 1208 572 1208 584 1221 c 128,-1,19
 596 1234 596 1234 615 1234 c 0,20,21
 633 1234 633 1234 645 1221 c 128,-1,22
 657 1208 657 1208 657 1178 c 2,23,-1
 657 760 l 1,24,-1
 1029 760 l 2,25,26
 1059 760 1059 760 1072 748.5 c 128,-1,27
 1085 737 1085 737 1085 718 c 256,28,29
 1085 699 1085 699 1072 687.5 c 128,-1,30
 1059 676 1059 676 1029 676 c 2,31,-1
 657 676 l 1,0,-1
968 0 m 2,32,-1
 261 0 l 2,33,34
 182 0 182 0 174 2 c 0,35,36
 161 5 161 5 152.5 16.5 c 128,-1,37
 144 28 144 28 144 42 c 256,38,39
 144 56 144 56 152.5 67.5 c 128,-1,40
 161 79 161 79 174 82 c 0,41,42
 182 85 182 85 261 85 c 2,43,-1
 968 84 l 2,44,45
 1047 84 1047 84 1055 82 c 0,46,47
 1068 79 1068 79 1076.5 67.5 c 128,-1,48
 1085 56 1085 56 1085 42 c 256,49,50
 1085 28 1085 28 1076.5 16.5 c 128,-1,51
 1068 5 1068 5 1055 2 c 0,52,53
 1047 0 1047 0 968 0 c 2,32,-1
EndSplineSet
EndChar

StartChar: yen
Encoding: 165 165 115
Width: 1229
GlyphClass: 2
Flags: W
LayerCount: 2
Fore
SplineSet
341 522 m 1,0,-1
 341 84 l 1,1,-1
 496 84 l 2,2,3
 527 84 527 84 540 72.5 c 128,-1,4
 553 61 553 61 553 42 c 0,5,6
 553 24 553 24 540 12 c 128,-1,7
 527 0 527 0 496 0 c 2,8,-1
 144 0 l 2,9,10
 114 0 114 0 101 12 c 128,-1,11
 88 24 88 24 88 42 c 0,12,13
 88 61 88 61 101 72.5 c 128,-1,14
 114 84 114 84 144 84 c 2,15,-1
 257 84 l 1,16,-1
 257 1086 l 1,17,-1
 144 1086 l 2,18,19
 114 1086 114 1086 101 1097.5 c 128,-1,20
 88 1109 88 1109 88 1128 c 256,21,22
 88 1147 88 1147 101 1158.5 c 128,-1,23
 114 1170 114 1170 144 1170 c 2,24,-1
 652 1170 l 2,25,26
 809 1170 809 1170 916.5 1070.5 c 128,-1,27
 1024 971 1024 971 1024 846 c 0,28,29
 1024 756 1024 756 957.5 676.5 c 128,-1,30
 891 597 891 597 735 544 c 1,31,32
 825 482 825 482 889 404 c 128,-1,33
 953 326 953 326 1094 84 c 1,34,-1
 1158 84 l 2,35,36
 1188 84 1188 84 1201 72.5 c 128,-1,37
 1214 61 1214 61 1214 42 c 0,38,39
 1214 24 1214 24 1201 12 c 128,-1,40
 1188 0 1188 0 1158 0 c 2,41,-1
 1046 0 l 1,42,43
 890 279 890 279 804.5 374 c 128,-1,44
 719 469 719 469 608 522 c 1,45,-1
 341 522 l 1,0,-1
341 606 m 1,46,-1
 570 606 l 2,47,48
 680 606 680 606 769.5 646 c 128,-1,49
 859 686 859 686 899.5 740 c 128,-1,50
 940 794 940 794 940 850 c 0,51,52
 940 934 940 934 855.5 1010 c 128,-1,53
 771 1086 771 1086 650 1086 c 2,54,-1
 341 1086 l 1,55,-1
 341 606 l 1,46,-1
EndSplineSet
EndChar

StartChar: pi1
Encoding: 65539 -1 116
Width: 1229
GlyphClass: 2
Flags: W
LayerCount: 2
Fore
SplineSet
826 782 m 1,0,-1
 403 782 l 1,1,-1
 403 84 l 1,2,-1
 453 84 l 2,3,4
 497 84 497 84 503 82 c 0,5,6
 515 78 515 78 522 67.5 c 128,-1,7
 529 57 529 57 529 44 c 0,8,9
 529 30 529 30 521.5 19 c 128,-1,10
 514 8 514 8 501 3 c 0,11,12
 495 0 495 0 453 0 c 2,13,-1
 239 0 l 2,14,15
 199 0 199 0 192 3 c 0,16,17
 181 7 181 7 174 17.5 c 128,-1,18
 167 28 167 28 167 40 c 0,19,20
 167 53 167 53 175 64 c 128,-1,21
 183 75 183 75 195 79.5 c 128,-1,22
 207 84 207 84 247 84 c 2,23,-1
 319 84 l 1,24,-1
 319 782 l 1,25,-1
 264 782 l 2,26,27
 213 782 213 782 202 786 c 0,28,29
 185 792 185 792 176.5 803 c 128,-1,30
 168 814 168 814 168 825 c 256,31,32
 168 836 168 836 176 846.5 c 128,-1,33
 184 857 184 857 198 862 c 0,34,35
 209 866 209 866 256 866 c 2,36,-1
 970 866 l 2,37,38
 1025 866 1025 866 1035.5 862.5 c 128,-1,39
 1046 859 1046 859 1052 851 c 0,40,41
 1060 838 1060 838 1060 824 c 256,42,43
 1060 810 1060 810 1053 800.5 c 128,-1,44
 1046 791 1046 791 1033 786.5 c 128,-1,45
 1020 782 1020 782 970 782 c 2,46,-1
 910 782 l 1,47,-1
 910 84 l 1,48,-1
 984 84 l 2,49,50
 1024 84 1024 84 1035.5 80 c 128,-1,51
 1047 76 1047 76 1054 66 c 128,-1,52
 1061 56 1061 56 1061 44 c 0,53,54
 1061 29 1061 29 1049.5 15.5 c 128,-1,55
 1038 2 1038 2 1025 0 c 2,56,-1
 777 0 l 2,57,58
 736 0 736 0 724 4.5 c 128,-1,59
 712 9 712 9 706 19 c 0,60,61
 697 33 697 33 697 46 c 256,62,63
 697 59 697 59 710 70 c 0,64,65
 729 85 729 85 750 85 c 2,66,-1
 777 84 l 1,67,-1
 826 84 l 1,68,-1
 826 782 l 1,0,-1
EndSplineSet
EndChar

StartChar: ordfeminine
Encoding: 170 170 117
Width: 1229
GlyphClass: 2
Flags: W
LayerCount: 2
Fore
SplineSet
298 866 m 1,0,-1
 298 713 l 1,1,2
 373 804 373 804 459 850 c 128,-1,3
 545 896 545 896 662 896 c 0,4,5
 786 896 786 896 891 838 c 128,-1,6
 996 780 996 780 1053.5 676.5 c 128,-1,7
 1111 573 1111 573 1111 459 c 0,8,9
 1111 278 1111 278 981.5 149.5 c 128,-1,10
 852 21 852 21 663 21 c 0,11,12
 438 21 438 21 298 204 c 1,13,-1
 298 -302 l 1,14,-1
 502 -302 l 2,15,16
 532 -302 532 -302 545 -313.5 c 128,-1,17
 558 -325 558 -325 558 -344 c 0,18,19
 558 -362 558 -362 545 -374 c 128,-1,20
 532 -386 532 -386 502 -386 c 2,21,-1
 101 -386 l 2,22,23
 71 -386 71 -386 58 -374.5 c 128,-1,24
 45 -363 45 -363 45 -344 c 256,25,26
 45 -325 45 -325 58 -313.5 c 128,-1,27
 71 -302 71 -302 101 -302 c 2,28,-1
 214 -302 l 1,29,-1
 214 781 l 1,30,-1
 101 781 l 2,31,32
 71 781 71 781 58 793 c 128,-1,33
 45 805 45 805 45 824 c 0,34,35
 45 842 45 842 58 854 c 128,-1,36
 71 866 71 866 101 866 c 2,37,-1
 298 866 l 1,0,-1
1026 459 m 0,38,39
 1026 604 1026 604 920.5 707.5 c 128,-1,40
 815 811 815 811 663 811 c 0,41,42
 510 811 510 811 404 707 c 128,-1,43
 298 603 298 603 298 459 c 0,44,45
 298 314 298 314 404 210 c 128,-1,46
 510 106 510 106 663 106 c 0,47,48
 814 106 814 106 920 209.5 c 128,-1,49
 1026 313 1026 313 1026 459 c 0,38,39
EndSplineSet
EndChar

StartChar: ordmasculine
Encoding: 186 186 118
Width: 1229
GlyphClass: 2
Flags: W
LayerCount: 2
Fore
SplineSet
930 1019 m 256,0,1
 930 901 930 901 838.5 814 c 128,-1,2
 747 727 747 727 612 727 c 256,3,4
 477 727 477 727 385.5 814.5 c 128,-1,5
 294 902 294 902 294 1019 c 0,6,7
 294 1137 294 1137 385.5 1224 c 128,-1,8
 477 1311 477 1311 612 1311 c 256,9,10
 747 1311 747 1311 838.5 1224 c 128,-1,11
 930 1137 930 1137 930 1019 c 256,0,1
849 1019 m 0,12,13
 849 1106 849 1106 781 1170 c 128,-1,14
 713 1234 713 1234 612 1234 c 256,15,16
 511 1234 511 1234 443 1169.5 c 128,-1,17
 375 1105 375 1105 375 1019 c 256,18,19
 375 933 375 933 443 868.5 c 128,-1,20
 511 804 511 804 612 804 c 256,21,22
 713 804 713 804 781 868.5 c 128,-1,23
 849 933 849 933 849 1019 c 0,12,13
EndSplineSet
EndChar

StartChar: Ohm
Encoding: 8486 8486 119
Width: 1229
GlyphClass: 2
Flags: W
LayerCount: 2
Fore
SplineSet
146 84 m 1,0,-1
 427 84 l 1,1,-1
 427 179 l 1,2,3
 250 220 250 220 155.5 341 c 128,-1,4
 61 462 61 462 61 642 c 0,5,6
 61 890 61 890 230 1040 c 128,-1,7
 399 1190 399 1190 616 1190 c 0,8,9
 764 1190 764 1190 894 1119 c 128,-1,10
 1024 1048 1024 1048 1096 917.5 c 128,-1,11
 1168 787 1168 787 1168 640 c 0,12,13
 1168 468 1168 468 1075.5 349 c 128,-1,14
 983 230 983 230 798 179 c 1,15,-1
 798 84 l 1,16,-1
 1079 84 l 1,17,-1
 1079 134 l 2,18,19
 1079 181 1079 181 1090 194 c 128,-1,20
 1101 207 1101 207 1122 207 c 0,21,22
 1135 207 1135 207 1145 200 c 128,-1,23
 1155 193 1155 193 1158.5 183.5 c 128,-1,24
 1162 174 1162 174 1161 134 c 2,25,-1
 1161 0 l 1,26,-1
 716 0 l 1,27,-1
 716 245 l 1,28,29
 897 274 897 274 991.5 382 c 128,-1,30
 1086 490 1086 490 1086 653 c 0,31,32
 1086 870 1086 870 939.5 991.5 c 128,-1,33
 793 1113 793 1113 621 1113 c 0,34,35
 456 1113 456 1113 320 1009 c 0,36,37
 145 875 145 875 145 647 c 0,38,39
 145 474 145 474 240.5 370 c 128,-1,40
 336 266 336 266 509 245 c 1,41,-1
 509 0 l 1,42,-1
 66 0 l 1,43,-1
 66 134 l 2,44,45
 66 174 66 174 69 183 c 0,46,47
 73 194 73 194 83.5 201 c 128,-1,48
 94 208 94 208 106 208 c 256,49,50
 118 208 118 208 126 202 c 0,51,52
 138 194 138 194 142 183.5 c 128,-1,53
 146 173 146 173 146 134 c 2,54,-1
 146 84 l 1,0,-1
EndSplineSet
EndChar

StartChar: oslash
Encoding: 248 248 120
Width: 1229
GlyphClass: 2
Flags: W
LayerCount: 2
Fore
SplineSet
320 66 m 1,0,-1
 194 -63 l 2,1,2
 172 -86 172 -86 154 -86 c 256,3,4
 136 -86 136 -86 124 -73.5 c 128,-1,5
 112 -61 112 -61 112 -42 c 0,6,7
 112 -26 112 -26 134 -4 c 2,8,-1
 257 122 l 1,9,10
 134 255 134 255 134 432 c 0,11,12
 134 621 134 621 274.5 758.5 c 128,-1,13
 415 896 415 896 617 896 c 0,14,15
 784 896 784 896 915 797 c 1,16,-1
 1040 925 l 2,17,18
 1062 947 1062 947 1080 947 c 0,19,20
 1097 947 1097 947 1109.5 935 c 128,-1,21
 1122 923 1122 923 1122 904 c 0,22,23
 1122 888 1122 888 1100 865 c 2,24,-1
 978 740 l 1,25,26
 1100 608 1100 608 1100 431 c 0,27,28
 1100 241 1100 241 959.5 104 c 128,-1,29
 819 -33 819 -33 617 -33 c 0,30,31
 455 -33 455 -33 320 66 c 1,0,-1
855 736 m 1,32,33
 749 811 749 811 617 811 c 0,34,35
 450 811 450 811 334.5 698.5 c 128,-1,36
 219 586 219 586 219 431 c 0,37,38
 219 294 219 294 316 183 c 1,39,-1
 855 736 l 1,32,33
379 127 m 1,40,41
 485 51 485 51 618 51 c 0,42,43
 785 51 785 51 900 163.5 c 128,-1,44
 1015 276 1015 276 1015 431 c 0,45,46
 1015 572 1015 572 919 680 c 1,47,-1
 379 127 l 1,40,41
EndSplineSet
EndChar

StartChar: questiondown
Encoding: 191 191 121
Width: 1229
GlyphClass: 2
Flags: W
LayerCount: 2
Fore
SplineSet
1135 1603 m 1,0,-1
 865 -78 l 1,1,-1
 369 943 l 1,2,-1
 171 852 l 1,3,-1
 137 916 l 1,4,-1
 438 1067 l 1,5,-1
 843 244 l 1,6,-1
 1060 1603 l 1,7,-1
 1135 1603 l 1,0,-1
EndSplineSet
EndChar

StartChar: uni2206
Encoding: 8710 8710 122
Width: 1229
GlyphClass: 2
Flags: W
LayerCount: 2
Fore
SplineSet
83 0 m 1,0,-1
 527 1153 l 1,1,-1
 681 1153 l 1,2,-1
 1137 0 l 1,3,-1
 83 0 l 1,0,-1
187 71 m 1,4,-1
 1031 71 l 1,5,-1
 633 1097 l 1,6,-1
 575 1097 l 1,7,-1
 187 71 l 1,4,-1
EndSplineSet
EndChar

StartChar: Agrave
Encoding: 192 192 123
Width: 1229
GlyphClass: 2
Flags: W
LayerCount: 2
Fore
SplineSet
169 23 m 2,0,-1
 169 721 l 2,1,2
 169 891 169 891 221.5 987.5 c 128,-1,3
 274 1084 274 1084 372.5 1140.5 c 128,-1,4
 471 1197 471 1197 616 1197 c 0,5,6
 756 1197 756 1197 857.5 1138 c 128,-1,7
 959 1079 959 1079 1009.5 985 c 128,-1,8
 1060 891 1060 891 1060 721 c 2,9,-1
 1060 23 l 2,10,11
 1060 -7 1060 -7 1048 -20 c 128,-1,12
 1036 -33 1036 -33 1017 -33 c 0,13,14
 999 -33 999 -33 987 -20 c 128,-1,15
 975 -7 975 -7 975 23 c 2,16,-1
 975 682 l 2,17,18
 975 853 975 853 933.5 935 c 128,-1,19
 892 1017 892 1017 812 1065 c 128,-1,20
 732 1113 732 1113 613 1113 c 0,21,22
 497 1113 497 1113 415.5 1064 c 128,-1,23
 334 1015 334 1015 293.5 934.5 c 128,-1,24
 253 854 253 854 253 682 c 2,25,-1
 253 23 l 2,26,27
 253 -7 253 -7 241.5 -20 c 128,-1,28
 230 -33 230 -33 211 -33 c 256,29,30
 192 -33 192 -33 180.5 -20 c 128,-1,31
 169 -7 169 -7 169 23 c 2,0,-1
EndSplineSet
EndChar

StartChar: Atilde
Encoding: 195 195 124
Width: 1229
GlyphClass: 2
Flags: W
LayerCount: 2
Fore
SplineSet
1069 413 m 1,0,-1
 213 413 l 1,1,2
 235 250 235 250 349.5 150.5 c 128,-1,3
 464 51 464 51 633 51 c 0,4,5
 727 51 727 51 830 82 c 128,-1,6
 933 113 933 113 998 164 c 0,7,8
 1017 179 1017 179 1031 179 c 0,9,10
 1047 179 1047 179 1059 166.5 c 128,-1,11
 1071 154 1071 154 1071 137 c 256,12,13
 1071 120 1071 120 1055 104 c 0,14,15
 1007 54 1007 54 884.5 10.5 c 128,-1,16
 762 -33 762 -33 633 -33 c 0,17,18
 417 -33 417 -33 272.5 108.5 c 128,-1,19
 128 250 128 250 128 451 c 0,20,21
 128 634 128 634 263.5 765 c 128,-1,22
 399 896 399 896 599 896 c 0,23,24
 805 896 805 896 938 761.5 c 128,-1,25
 1071 627 1071 627 1069 413 c 1,0,-1
984 498 m 1,26,27
 959 637 959 637 852.5 724 c 128,-1,28
 746 811 746 811 599 811 c 256,29,30
 452 811 452 811 346 725 c 128,-1,31
 240 639 240 639 214 498 c 1,32,-1
 984 498 l 1,26,27
EndSplineSet
EndChar

StartChar: divide
Encoding: 247 247 125
Width: 1229
GlyphClass: 2
Flags: W
LayerCount: 2
Fore
SplineSet
665 84 m 1,0,-1
 569 84 l 1,1,-1
 246 781 l 1,2,-1
 242 781 l 1,3,-1
 242 84 l 1,4,-1
 397 84 l 2,5,6
 453 84 453 84 453 42 c 256,7,8
 453 0 453 0 397 0 c 2,9,-1
 87 0 l 2,10,11
 31 0 31 0 31 42 c 256,12,13
 31 84 31 84 87 84 c 2,14,-1
 158 84 l 1,15,-1
 158 781 l 1,16,-1
 105 781 l 2,17,18
 49 781 49 781 49 823 c 0,19,20
 49 866 49 866 105 866 c 2,21,-1
 299 866 l 1,22,-1
 617 179 l 1,23,-1
 930 866 l 1,24,-1
 1124 866 l 2,25,26
 1181 866 1181 866 1181 823 c 0,27,28
 1181 781 1181 781 1124 781 c 2,29,-1
 1072 781 l 1,30,-1
 1072 84 l 1,31,-1
 1142 84 l 2,32,33
 1199 84 1199 84 1199 42 c 256,34,35
 1199 0 1199 0 1142 0 c 2,36,-1
 833 0 l 2,37,38
 776 0 776 0 776 42 c 256,39,40
 776 84 776 84 833 84 c 2,41,-1
 987 84 l 1,42,-1
 987 781 l 1,43,-1
 982 781 l 1,44,-1
 665 84 l 1,0,-1
EndSplineSet
EndChar

StartChar: Acircumflex
Encoding: 194 194 126
Width: 1229
GlyphClass: 2
Flags: W
LayerCount: 2
Fore
SplineSet
915 1086 m 1,0,-1
 915 1114 l 2,1,2
 915 1144 915 1144 926.5 1157 c 128,-1,3
 938 1170 938 1170 957 1170 c 256,4,5
 976 1170 976 1170 987.5 1157 c 128,-1,6
 999 1144 999 1144 999 1114 c 2,7,-1
 999 900 l 2,8,9
 999 870 999 870 987.5 857 c 128,-1,10
 976 844 976 844 957 844 c 0,11,12
 939 844 939 844 927.5 856 c 128,-1,13
 916 868 916 868 915 895 c 0,14,15
 910 979 910 979 828.5 1046 c 128,-1,16
 747 1113 747 1113 615 1113 c 0,17,18
 476 1113 476 1113 394 1041.5 c 128,-1,19
 312 970 312 970 312 873 c 0,20,21
 312 823 312 823 335 782 c 128,-1,22
 358 741 358 741 396 715.5 c 128,-1,23
 434 690 434 690 482 674.5 c 128,-1,24
 530 659 530 659 632 642 c 0,25,26
 803 614 803 614 868 585 c 0,27,28
 955 546 955 546 999.5 477 c 128,-1,29
 1044 408 1044 408 1044 314 c 0,30,31
 1044 170 1044 170 929 68.5 c 128,-1,32
 814 -33 814 -33 619 -33 c 0,33,34
 400 -33 400 -33 269 104 c 1,35,-1
 269 56 l 2,36,37
 269 26 269 26 257.5 13 c 128,-1,38
 246 0 246 0 227 0 c 0,39,40
 209 0 209 0 197 13 c 128,-1,41
 185 26 185 26 185 56 c 2,42,-1
 185 288 l 2,43,44
 185 319 185 319 196.5 332 c 128,-1,45
 208 345 208 345 227 345 c 0,46,47
 245 345 245 345 256.5 333 c 128,-1,48
 268 321 268 321 269 294 c 0,49,50
 274 202 274 202 367.5 126.5 c 128,-1,51
 461 51 461 51 619 51 c 256,52,53
 777 51 777 51 868.5 130 c 128,-1,54
 960 209 960 209 960 317 c 0,55,56
 960 383 960 383 925 434.5 c 128,-1,57
 890 486 890 486 821 516 c 0,58,59
 773 537 773 537 621 563 c 0,60,61
 412 598 412 598 320 670 c 256,62,63
 228 742 228 742 228 875 c 0,64,65
 228 1007 228 1007 333.5 1102 c 128,-1,66
 439 1197 439 1197 612 1197 c 0,67,68
 788 1197 788 1197 915 1086 c 1,0,-1
EndSplineSet
EndChar

StartChar: Aacute
Encoding: 193 193 127
Width: 1229
GlyphClass: 2
Flags: W
LayerCount: 2
Fore
SplineSet
640 509 m 2,0,-1
 644 386 l 2,1,2
 646 341 646 341 646 296 c 0,3,4
 646 44 646 44 612.5 -60.5 c 128,-1,5
 579 -165 579 -165 512.5 -213.5 c 128,-1,6
 446 -262 446 -262 374 -262 c 0,7,8
 314 -262 314 -262 269.5 -219.5 c 128,-1,9
 225 -177 225 -177 225 -126 c 0,10,11
 225 -97 225 -97 238 -82.5 c 128,-1,12
 251 -68 251 -68 272 -68 c 256,13,14
 293 -68 293 -68 308.5 -84 c 128,-1,15
 324 -100 324 -100 333 -147 c 0,16,17
 340 -179 340 -179 353 -190 c 0,18,19
 371 -205 371 -205 397 -205 c 0,20,21
 455 -205 455 -205 507 -152 c 0,22,23
 545 -113 545 -113 568 -17.5 c 128,-1,24
 591 78 591 78 591 297 c 0,25,26
 591 349 591 349 589 402 c 2,27,-1
 585 524 l 2,28,29
 583 570 583 570 583 615 c 0,30,31
 583 867 583 867 616 971 c 128,-1,32
 649 1075 649 1075 715.5 1124 c 128,-1,33
 782 1173 782 1173 854 1173 c 0,34,35
 915 1173 915 1173 959.5 1130.5 c 128,-1,36
 1004 1088 1004 1088 1004 1036 c 0,37,38
 1004 1009 1004 1009 990.5 994 c 128,-1,39
 977 979 977 979 957 979 c 0,40,41
 936 979 936 979 920 995 c 128,-1,42
 904 1011 904 1011 896 1057 c 0,43,44
 890 1090 890 1090 876 1101 c 0,45,46
 858 1116 858 1116 832 1116 c 0,47,48
 774 1116 774 1116 722 1063 c 0,49,50
 683 1023 683 1023 660.5 927 c 128,-1,51
 638 831 638 831 638 615 c 0,52,53
 638 562 638 562 640 509 c 2,0,-1
EndSplineSet
EndChar

StartChar: Iacute
Encoding: 205 205 128
Width: 1229
GlyphClass: 2
Flags: W
LayerCount: 2
Fore
SplineSet
1088 0 m 1,0,-1
 208 0 l 2,1,2
 152 0 152 0 152 43 c 0,3,4
 152 85 152 85 208 85 c 2,5,-1
 408 85 l 1,6,-1
 408 782 l 1,7,-1
 208 782 l 2,8,9
 152 782 152 782 152 824 c 256,10,11
 152 866 152 866 208 866 c 2,12,-1
 693 866 l 2,13,14
 749 866 749 866 749 824 c 256,15,16
 749 782 749 782 693 782 c 2,17,-1
 493 782 l 1,18,-1
 493 85 l 1,19,-1
 1003 85 l 1,20,-1
 1003 319 l 2,21,22
 1003 375 1003 375 1045 375 c 0,23,24
 1088 375 1088 375 1088 319 c 2,25,-1
 1088 0 l 1,0,-1
EndSplineSet
EndChar

StartChar: Icircumflex
Encoding: 206 206 129
Width: 1534
GlyphClass: 2
Flags: W
LayerCount: 2
Fore
SplineSet
657 780 m 5,0,-1
 657 84 l 1,1,-1
 945 84 l 2,2,3
 975 84 975 84 988 72.5 c 128,-1,4
 1001 61 1001 61 1001 42 c 0,5,6
 1001 24 1001 24 988 12 c 128,-1,7
 975 0 975 0 945 0 c 2,8,-1
 285 0 l 2,9,10
 255 0 255 0 242 12 c 128,-1,11
 229 24 229 24 229 42 c 0,12,13
 229 61 229 61 242 72.5 c 128,-1,14
 255 84 255 84 285 84 c 2,15,-1
 573 84 l 1,16,-1
 573 780 l 5,17,-1
 285 780 l 6,18,19
 255 780 255 780 242 791.5 c 132,-1,20
 229 803 229 803 229 822 c 260,21,22
 229 841 229 841 242 852.5 c 132,-1,23
 255 864 255 864 285 864 c 6,24,-1
 945 864 l 6,25,26
 975 864 975 864 988 852.5 c 132,-1,27
 1001 841 1001 841 1001 822 c 260,28,29
 1001 803 1001 803 988 791.5 c 132,-1,30
 975 780 975 780 945 780 c 6,31,-1
 657 780 l 5,0,-1
EndSplineSet
EndChar

StartChar: Idieresis
Encoding: 207 207 130
Width: 1229
GlyphClass: 2
Flags: W
LayerCount: 2
Fore
SplineSet
957 781 m 1,0,-1
 957 84 l 1,1,-1
 1069 84 l 2,2,3
 1125 84 1125 84 1125 42 c 256,4,5
 1125 0 1125 0 1069 0 c 2,6,-1
 782 0 l 2,7,8
 726 0 726 0 726 42 c 256,9,10
 726 84 726 84 782 84 c 2,11,-1
 872 84 l 1,12,-1
 872 781 l 1,13,-1
 357 781 l 1,14,-1
 357 84 l 1,15,-1
 446 84 l 2,16,17
 503 84 503 84 503 42 c 256,18,19
 503 0 503 0 446 0 c 2,20,-1
 160 0 l 2,21,22
 104 0 104 0 104 42 c 256,23,24
 104 84 104 84 160 84 c 2,25,-1
 272 84 l 1,26,-1
 272 781 l 1,27,-1
 160 781 l 2,28,29
 104 781 104 781 104 823 c 0,30,31
 104 866 104 866 160 866 c 2,32,-1
 1069 866 l 2,33,34
 1125 866 1125 866 1125 823 c 0,35,36
 1125 781 1125 781 1069 781 c 2,37,-1
 957 781 l 1,0,-1
EndSplineSet
EndChar

StartChar: Igrave
Encoding: 204 204 131
Width: 1229
GlyphClass: 2
Flags: W
LayerCount: 2
Fore
SplineSet
522 456 m 1,0,1
 427 479 427 479 374 539.5 c 128,-1,2
 321 600 321 600 321 674 c 0,3,4
 321 761 321 761 398.5 828.5 c 128,-1,5
 476 896 476 896 630 896 c 0,6,7
 774 896 774 896 883 820 c 1,8,-1
 893 861 l 2,9,10
 902 896 902 896 935 896 c 0,11,12
 978 896 978 896 978 850 c 0,13,14
 978 834 978 834 974 800 c 0,15,16
 970 763 970 763 970 734 c 0,17,18
 970 692 970 692 973 665 c 0,19,20
 976 635 976 635 976 631 c 0,21,22
 976 602 976 602 938 602 c 0,23,24
 907 602 907 602 895 640 c 0,25,26
 873 710 873 710 845.5 741.5 c 128,-1,27
 818 773 818 773 758.5 792 c 128,-1,28
 699 811 699 811 621 811 c 0,29,30
 510 811 510 811 457.5 772 c 128,-1,31
 405 733 405 733 405 674 c 0,32,33
 405 511 405 511 723 496 c 1,34,-1
 723 412 l 1,35,36
 561 412 561 412 464 360 c 128,-1,37
 367 308 367 308 367 225 c 0,38,39
 367 157 367 157 434 104 c 128,-1,40
 501 51 501 51 635 51 c 0,41,42
 749 51 749 51 868 99 c 0,43,44
 888 107 888 107 896 107 c 0,45,46
 912 107 912 107 924.5 93.5 c 128,-1,47
 937 80 937 80 937 63 c 0,48,49
 937 31 937 31 845 -1 c 128,-1,50
 753 -33 753 -33 629 -33 c 0,51,52
 471 -33 471 -33 377 36 c 128,-1,53
 283 105 283 105 283 217 c 0,54,55
 283 306 283 306 345 371.5 c 128,-1,56
 407 437 407 437 522 456 c 1,0,1
EndSplineSet
EndChar

StartChar: Ucircumflex
Encoding: 219 219 133
Width: 1229
GlyphClass: 2
Flags: W
LayerCount: 2
Fore
SplineSet
670 351 m 1,0,-1
 574 351 l 1,1,-1
 251 1086 l 1,2,-1
 235 1086 l 1,3,-1
 235 84 l 1,4,-1
 390 84 l 2,5,6
 420 84 420 84 433 72.5 c 128,-1,7
 446 61 446 61 446 42 c 0,8,9
 446 24 446 24 433 12 c 128,-1,10
 420 0 420 0 390 0 c 2,11,-1
 80 0 l 2,12,13
 50 0 50 0 37 12 c 128,-1,14
 24 24 24 24 24 42 c 0,15,16
 24 61 24 61 37 72.5 c 128,-1,17
 50 84 50 84 80 84 c 2,18,-1
 151 84 l 1,19,-1
 151 1086 l 1,20,-1
 98 1086 l 2,21,22
 68 1086 68 1086 55 1097.5 c 128,-1,23
 42 1109 42 1109 42 1128 c 256,24,25
 42 1147 42 1147 55 1158.5 c 128,-1,26
 68 1170 68 1170 98 1170 c 2,27,-1
 304 1170 l 1,28,-1
 622 446 l 1,29,-1
 935 1170 l 1,30,-1
 1141 1170 l 2,31,32
 1172 1170 1172 1170 1185 1158.5 c 128,-1,33
 1198 1147 1198 1147 1198 1128 c 256,34,35
 1198 1109 1198 1109 1185 1097.5 c 128,-1,36
 1172 1086 1172 1086 1141 1086 c 2,37,-1
 1089 1086 l 1,38,-1
 1089 84 l 1,39,-1
 1159 84 l 2,40,41
 1190 84 1190 84 1203 72.5 c 128,-1,42
 1216 61 1216 61 1216 42 c 0,43,44
 1216 24 1216 24 1203 12 c 128,-1,45
 1190 0 1190 0 1159 0 c 2,46,-1
 850 0 l 2,47,48
 820 0 820 0 806.5 12 c 128,-1,49
 793 24 793 24 793 42 c 0,50,51
 793 61 793 61 806 72.5 c 128,-1,52
 819 84 819 84 850 84 c 2,53,-1
 1005 84 l 1,54,-1
 1005 1086 l 1,55,-1
 987 1086 l 1,56,-1
 670 351 l 1,0,-1
EndSplineSet
EndChar

StartChar: Ugrave
Encoding: 217 217 134
Width: 1229
GlyphClass: 2
Flags: W
LayerCount: 2
Fore
SplineSet
904 0 m 1,0,-1
 800 -1 l 1,1,-1
 615 539 l 1,2,-1
 431 -1 l 1,3,-1
 327 0 l 1,4,-1
 153 781 l 1,5,-1
 112 781 l 2,6,7
 82 781 82 781 69 793 c 128,-1,8
 56 805 56 805 56 824 c 0,9,10
 56 842 56 842 69 854 c 128,-1,11
 82 866 82 866 112 866 c 2,12,-1
 343 866 l 2,13,14
 373 866 373 866 386 854 c 128,-1,15
 399 842 399 842 399 823 c 0,16,17
 399 805 399 805 386 793 c 128,-1,18
 373 781 373 781 343 781 c 2,19,-1
 236 781 l 1,20,-1
 385 115 l 1,21,-1
 564 647 l 1,22,-1
 664 647 l 1,23,-1
 848 115 l 1,24,-1
 991 781 l 1,25,-1
 885 781 l 2,26,27
 855 781 855 781 841.5 793 c 128,-1,28
 828 805 828 805 828 824 c 0,29,30
 828 842 828 842 841 854 c 128,-1,31
 854 866 854 866 885 866 c 2,32,-1
 1115 866 l 2,33,34
 1146 866 1146 866 1159 854 c 128,-1,35
 1172 842 1172 842 1172 823 c 0,36,37
 1172 805 1172 805 1159 793 c 128,-1,38
 1146 781 1146 781 1115 781 c 2,39,-1
 1075 781 l 1,40,-1
 904 0 l 1,0,-1
EndSplineSet
EndChar

StartChar: dotlessi
Encoding: 305 305 135
Width: 1229
GlyphClass: 2
Flags: W
LayerCount: 2
Fore
SplineSet
950 502 m 1,0,-1
 314 502 l 2,1,2
 279 502 279 502 279 542 c 0,3,4
 279 581 279 581 314 581 c 2,5,-1
 385 581 l 1,6,-1
 385 1163 l 1,7,-1
 314 1163 l 2,8,9
 279 1163 279 1163 279 1202 c 0,10,11
 279 1240 279 1240 314 1240 c 2,12,-1
 922 1240 l 1,13,-1
 922 1033 l 2,14,15
 922 998 922 998 882 998 c 0,16,17
 844 998 844 998 844 1033 c 2,18,-1
 844 1163 l 1,19,-1
 464 1163 l 1,20,-1
 464 919 l 1,21,-1
 654 919 l 1,22,-1
 654 979 l 2,23,24
 654 1014 654 1014 693 1014 c 0,25,26
 733 1014 733 1014 733 979 c 2,27,-1
 733 783 l 2,28,29
 733 747 733 747 693 747 c 0,30,31
 654 747 654 747 654 783 c 2,32,-1
 654 842 l 1,33,-1
 464 842 l 1,34,-1
 464 581 l 1,35,-1
 871 581 l 1,36,-1
 871 738 l 2,37,38
 871 773 871 773 910 773 c 0,39,40
 950 773 950 773 950 738 c 2,41,-1
 950 502 l 1,0,-1
EndSplineSet
EndChar

StartChar: circumflex
Encoding: 710 710 136
Width: 1229
GlyphClass: 2
Flags: W
LayerCount: 2
Fore
SplineSet
614 1310 m 1,0,-1
 885 1104 l 2,1,2
 903 1090 903 1090 908 1081.5 c 128,-1,3
 913 1073 913 1073 913 1062 c 0,4,5
 913 1044 913 1044 900.5 1032 c 128,-1,6
 888 1020 888 1020 870 1020 c 0,7,8
 857 1020 857 1020 835 1037 c 2,9,-1
 614 1206 l 1,10,-1
 394 1037 l 2,11,12
 372 1020 372 1020 358 1020 c 0,13,14
 341 1020 341 1020 328.5 1032.5 c 128,-1,15
 316 1045 316 1045 316 1062 c 0,16,17
 316 1083 316 1083 344 1104 c 2,18,-1
 614 1310 l 1,0,-1
EndSplineSet
EndChar

StartChar: tilde
Encoding: 732 732 137
Width: 1229
GlyphClass: 4
Flags: W
LayerCount: 2
Fore
SplineSet
892 1167 m 0,0,1
 909 1167 909 1167 921.5 1155 c 128,-1,2
 934 1143 934 1143 934 1128 c 0,3,4
 934 1111 934 1111 921 1096 c 0,5,6
 881 1051 881 1051 826 1022 c 0,7,8
 788 1001 788 1001 747 1001 c 0,9,10
 683 1001 683 1001 574 1080 c 0,11,12
 516 1123 516 1123 484 1123 c 0,13,14
 444 1123 444 1123 383 1067 c 0,15,16
 356 1042 356 1042 337 1042 c 0,17,18
 319 1042 319 1042 307.5 1054 c 128,-1,19
 296 1066 296 1066 296 1082 c 0,20,21
 296 1108 296 1108 347 1148 c 0,22,23
 425 1207 425 1207 483 1207 c 0,24,25
 513 1207 513 1207 544 1194.5 c 128,-1,26
 575 1182 575 1182 645 1134 c 128,-1,27
 715 1086 715 1086 747 1086 c 0,28,29
 785 1086 785 1086 862 1154 c 0,30,31
 878 1167 878 1167 892 1167 c 0,0,1
EndSplineSet
EndChar

StartChar: macron
Encoding: 713 713 138
Width: 1229
GlyphClass: 2
Flags: W
LayerCount: 2
Fore
SplineSet
857 1076 m 2,0,-1
 372 1076 l 2,1,2
 342 1076 342 1076 329 1088 c 128,-1,3
 316 1100 316 1100 316 1118 c 0,4,5
 316 1137 316 1137 329 1149 c 128,-1,6
 342 1161 342 1161 372 1161 c 2,7,-1
 855 1161 l 2,8,9
 888 1160 888 1160 901 1148.5 c 128,-1,10
 914 1137 914 1137 914 1118 c 256,11,12
 914 1099 914 1099 901 1087.5 c 128,-1,13
 888 1076 888 1076 857 1076 c 2,0,-1
EndSplineSet
EndChar

StartChar: breve
Encoding: 728 728 139
Width: 1229
GlyphClass: 2
Flags: W
LayerCount: 2
Fore
SplineSet
356 1298 m 256,0,1
 374 1298 374 1298 385 1287.5 c 128,-1,2
 396 1277 396 1277 398 1250 c 0,3,4
 404 1193 404 1193 463 1148 c 0,5,6
 521 1103 521 1103 615 1103 c 0,7,8
 708 1103 708 1103 766.5 1148 c 128,-1,9
 825 1193 825 1193 831 1250 c 0,10,11
 834 1277 834 1277 843 1286 c 0,12,13
 856 1298 856 1298 873 1298 c 0,14,15
 891 1298 891 1298 903.5 1285.5 c 128,-1,16
 916 1273 916 1273 916 1252 c 0,17,18
 916 1162 916 1162 834.5 1090 c 128,-1,19
 753 1018 753 1018 615 1018 c 256,20,21
 477 1018 477 1018 395.5 1090 c 128,-1,22
 314 1162 314 1162 314 1252 c 0,23,24
 314 1273 314 1273 326 1285.5 c 128,-1,25
 338 1298 338 1298 356 1298 c 256,0,1
EndSplineSet
EndChar

StartChar: dotaccent
Encoding: 729 729 140
Width: 1229
GlyphClass: 2
Flags: W
LayerCount: 2
Fore
SplineSet
717 1147 m 0,0,1
 717 1105 717 1105 687 1075 c 128,-1,2
 657 1045 657 1045 615 1045 c 0,3,4
 572 1045 572 1045 542 1075 c 128,-1,5
 512 1105 512 1105 512 1147 c 0,6,7
 512 1190 512 1190 542 1220 c 128,-1,8
 572 1250 572 1250 615 1250 c 0,9,10
 657 1250 657 1250 687 1220 c 128,-1,11
 717 1190 717 1190 717 1147 c 0,0,1
EndSplineSet
EndChar

StartChar: ring
Encoding: 730 730 141
Width: 1229
GlyphClass: 2
Flags: W
LayerCount: 2
Fore
SplineSet
795 1186 m 256,0,1
 795 1113 795 1113 742 1060.5 c 128,-1,2
 689 1008 689 1008 614 1008 c 256,3,4
 539 1008 539 1008 486 1060.5 c 128,-1,5
 433 1113 433 1113 433 1186 c 256,6,7
 433 1259 433 1259 486 1311.5 c 128,-1,8
 539 1364 539 1364 614 1364 c 256,9,10
 689 1364 689 1364 742 1311.5 c 128,-1,11
 795 1259 795 1259 795 1186 c 256,0,1
735 1186 m 256,12,13
 735 1235 735 1235 699.5 1269.5 c 128,-1,14
 664 1304 664 1304 614 1304 c 0,15,16
 563 1304 563 1304 528 1269 c 128,-1,17
 493 1234 493 1234 493 1186 c 256,18,19
 493 1138 493 1138 528.5 1103 c 128,-1,20
 564 1068 564 1068 614 1068 c 256,21,22
 664 1068 664 1068 699.5 1102.5 c 128,-1,23
 735 1137 735 1137 735 1186 c 256,12,13
EndSplineSet
EndChar

StartChar: hungarumlaut
Encoding: 733 733 142
Width: 1229
GlyphClass: 2
Flags: W
LayerCount: 2
Fore
SplineSet
591 1247 m 2,0,-1
 398 1043 l 2,1,2
 375 1020 375 1020 357 1020 c 0,3,4
 340 1020 340 1020 327.5 1032 c 128,-1,5
 315 1044 315 1044 315 1063 c 0,6,7
 315 1079 315 1079 336 1101 c 2,8,-1
 529 1305 l 2,9,10
 552 1328 552 1328 570 1328 c 256,11,12
 588 1328 588 1328 600 1315.5 c 128,-1,13
 612 1303 612 1303 612 1285 c 0,14,15
 612 1269 612 1269 591 1247 c 2,0,-1
894 1247 m 2,16,-1
 701 1043 l 2,17,18
 679 1020 679 1020 660 1020 c 0,19,20
 643 1020 643 1020 630.5 1032 c 128,-1,21
 618 1044 618 1044 618 1063 c 0,22,23
 618 1079 618 1079 639 1101 c 2,24,-1
 833 1305 l 2,25,26
 855 1328 855 1328 873 1328 c 256,27,28
 891 1328 891 1328 903 1315.5 c 128,-1,29
 915 1303 915 1303 915 1285 c 0,30,31
 915 1269 915 1269 894 1247 c 2,16,-1
EndSplineSet
EndChar

StartChar: ogonek
Encoding: 731 731 143
Width: 1229
GlyphClass: 2
Flags: W
LayerCount: 2
Fore
SplineSet
661 -4 m 0,0,1
 661 -17 661 -17 652 -26 c 0,2,3
 645 -33 645 -33 622 -35 c 0,4,5
 586 -39 586 -39 557 -73 c 128,-1,6
 528 -107 528 -107 528 -152 c 0,7,8
 528 -187 528 -187 554.5 -210.5 c 128,-1,9
 581 -234 581 -234 629 -234 c 0,10,11
 675 -234 675 -234 707 -206 c 0,12,13
 722 -192 722 -192 733 -192 c 0,14,15
 745 -192 745 -192 754 -200.5 c 128,-1,16
 763 -209 763 -209 763 -223 c 0,17,18
 763 -243 763 -243 734 -262 c 0,19,20
 689 -294 689 -294 627 -294 c 0,21,22
 554 -294 554 -294 511 -253 c 128,-1,23
 468 -212 468 -212 468 -146 c 0,24,25
 468 -76 468 -76 518 -24.5 c 128,-1,26
 568 27 568 27 629 27 c 0,27,28
 643 27 643 27 652 18.5 c 128,-1,29
 661 10 661 10 661 -4 c 0,0,1
EndSplineSet
EndChar

StartChar: caron
Encoding: 711 711 144
Width: 1229
GlyphClass: 2
Flags: W
LayerCount: 2
Fore
SplineSet
615 1008 m 1,0,-1
 344 1214 l 2,1,2
 326 1228 326 1228 321 1236.5 c 128,-1,3
 316 1245 316 1245 316 1256 c 0,4,5
 316 1274 316 1274 328.5 1286.5 c 128,-1,6
 341 1299 341 1299 359 1299 c 0,7,8
 372 1299 372 1299 394 1282 c 2,9,-1
 615 1112 l 1,10,-1
 835 1281 l 2,11,12
 857 1298 857 1298 871 1298 c 0,13,14
 888 1298 888 1298 900.5 1285.5 c 128,-1,15
 913 1273 913 1273 913 1256 c 0,16,17
 913 1235 913 1235 885 1214 c 2,18,-1
 615 1008 l 1,0,-1
EndSplineSet
EndChar

StartChar: Lslash
Encoding: 321 321 145
Width: 1229
GlyphClass: 2
Flags: W
LayerCount: 2
Fore
SplineSet
865 502 m 1,0,-1
 259 502 l 2,1,2
 223 502 223 502 223 542 c 0,3,4
 223 580 223 580 259 580 c 2,5,-1
 385 580 l 1,6,-1
 385 973 l 1,7,-1
 259 973 l 2,8,9
 223 973 223 973 223 1011 c 0,10,11
 223 1050 223 1050 259 1050 c 2,12,-1
 589 1050 l 2,13,14
 625 1050 625 1050 625 1011 c 0,15,16
 625 973 625 973 589 973 c 2,17,-1
 463 973 l 1,18,-1
 463 580 l 1,19,-1
 785 580 l 1,20,-1
 785 704 l 2,21,22
 785 739 785 739 826 739 c 0,23,24
 865 739 865 739 865 704 c 2,25,-1
 865 502 l 1,0,-1
EndSplineSet
EndChar

StartChar: lslash
Encoding: 322 322 146
Width: 1229
GlyphClass: 2
Flags: W
LayerCount: 2
Fore
SplineSet
979 1011 m 0,0,1
 979 973 979 973 944 973 c 2,2,-1
 872 973 l 1,3,-1
 872 502 l 1,4,-1
 786 502 l 1,5,-1
 452 929 l 1,6,-1
 452 580 l 1,7,-1
 524 580 l 2,8,9
 559 580 559 580 559 542 c 0,10,11
 559 502 559 502 524 502 c 2,12,-1
 311 502 l 2,13,14
 276 502 276 502 276 542 c 0,15,16
 276 580 276 580 311 580 c 2,17,-1
 375 580 l 1,18,-1
 375 973 l 1,19,-1
 311 973 l 2,20,21
 276 973 276 973 276 1011 c 0,22,23
 276 1050 276 1050 311 1050 c 2,24,-1
 462 1050 l 1,25,-1
 795 612 l 1,26,-1
 795 973 l 1,27,-1
 724 973 l 2,28,29
 689 973 689 973 689 1011 c 0,30,31
 689 1050 689 1050 724 1050 c 2,32,-1
 944 1050 l 2,33,34
 979 1050 979 1050 979 1011 c 0,0,1
EndSplineSet
EndChar

StartChar: Scaron
Encoding: 352 352 147
Width: 1229
GlyphClass: 2
Flags: W
LayerCount: 2
Fore
SplineSet
665 84 m 1,0,-1
 569 84 l 1,1,-1
 246 781 l 1,2,-1
 242 781 l 1,3,-1
 242 84 l 1,4,-1
 397 84 l 2,5,6
 453 84 453 84 453 42 c 256,7,8
 453 0 453 0 397 0 c 2,9,-1
 87 0 l 2,10,11
 31 0 31 0 31 42 c 256,12,13
 31 84 31 84 87 84 c 2,14,-1
 158 84 l 1,15,-1
 158 781 l 1,16,-1
 105 781 l 2,17,18
 49 781 49 781 49 823 c 0,19,20
 49 866 49 866 105 866 c 2,21,-1
 299 866 l 1,22,-1
 617 179 l 1,23,-1
 930 866 l 1,24,-1
 1124 866 l 2,25,26
 1181 866 1181 866 1181 823 c 0,27,28
 1181 781 1181 781 1124 781 c 2,29,-1
 1072 781 l 1,30,-1
 1072 84 l 1,31,-1
 1142 84 l 2,32,33
 1199 84 1199 84 1199 42 c 256,34,35
 1199 0 1199 0 1142 0 c 2,36,-1
 833 0 l 2,37,38
 776 0 776 0 776 42 c 256,39,40
 776 84 776 84 833 84 c 2,41,-1
 987 84 l 1,42,-1
 987 781 l 1,43,-1
 982 781 l 1,44,-1
 665 84 l 1,0,-1
EndSplineSet
EndChar

StartChar: scaron
Encoding: 353 353 148
Width: 1229
GlyphClass: 2
Flags: W
LayerCount: 2
Fore
SplineSet
1014 541 m 256,0,1
 1014 502 1014 502 979 502 c 2,2,-1
 758 502 l 2,3,4
 722 502 722 502 722 541 c 256,5,6
 722 580 722 580 758 580 c 2,7,-1
 856 580 l 1,8,-1
 856 1161 l 1,9,-1
 844 1161 l 1,10,-1
 674 724 l 1,11,-1
 554 724 l 1,12,-1
 381 1161 l 1,13,-1
 370 1161 l 1,14,-1
 370 580 l 1,15,-1
 468 580 l 2,16,17
 503 580 503 580 503 541 c 256,18,19
 503 502 503 502 468 502 c 2,20,-1
 247 502 l 2,21,22
 212 502 212 502 212 541 c 256,23,24
 212 580 212 580 247 580 c 2,25,-1
 292 580 l 1,26,-1
 292 1161 l 1,27,-1
 258 1161 l 2,28,29
 223 1161 223 1161 223 1201 c 0,30,31
 223 1240 223 1240 258 1240 c 2,32,-1
 434 1240 l 1,33,-1
 614 788 l 1,34,-1
 791 1240 l 1,35,-1
 967 1240 l 2,36,37
 1003 1240 1003 1240 1003 1201 c 0,38,39
 1003 1161 1003 1161 967 1161 c 2,40,-1
 934 1161 l 1,41,-1
 934 580 l 1,42,-1
 979 580 l 2,43,44
 1014 580 1014 580 1014 541 c 256,0,1
EndSplineSet
EndChar

StartChar: zcaron
Encoding: 382 382 149
Width: 1229
GlyphClass: 2
Flags: W
LayerCount: 2
Fore
SplineSet
982 866 m 1,0,-1
 982 791 l 1,1,-1
 353 84 l 1,2,-1
 921 84 l 1,3,-1
 921 200 l 2,4,5
 921 230 921 230 932.5 243 c 0,6,7
 944 256 944 256 963 256 c 256,8,9
 982 256 982 256 994 243 c 0,10,11
 1006 230 1006 230 1006 200 c 2,12,-1
 1005 0 l 1,13,-1
 237 0 l 1,14,-1
 237 75 l 1,15,-1
 863 781 l 1,16,-1
 341 781 l 1,17,-1
 341 667 l 2,18,19
 341 637 341 637 329 624 c 0,20,21
 317 611 317 611 299 611 c 0,22,23
 280 611 280 611 268 624 c 0,24,25
 256 637 256 637 256 667 c 2,26,-1
 256 866 l 1,27,-1
 982 866 l 1,0,-1
EndSplineSet
Refer: 144 711 N 1 0 0 1 0 0 2
EndChar

StartChar: brokenbar
Encoding: 166 166 150
Width: 1229
GlyphClass: 2
Flags: W
LayerCount: 2
Fore
SplineSet
469 1086 m 1,0,-1
 469 84 l 1,1,-1
 1027 84 l 1,2,-1
 1027 418 l 2,3,4
 1027 448 1027 448 1039 461 c 128,-1,5
 1051 474 1051 474 1070 474 c 0,6,7
 1088 474 1088 474 1100 461.5 c 128,-1,8
 1112 449 1112 449 1112 418 c 2,9,-1
 1112 0 l 1,10,-1
 184 0 l 2,11,12
 154 0 154 0 141 12 c 128,-1,13
 128 24 128 24 128 42 c 0,14,15
 128 61 128 61 141 72.5 c 128,-1,16
 154 84 154 84 184 84 c 2,17,-1
 384 84 l 1,18,-1
 384 1086 l 1,19,-1
 184 1086 l 2,20,21
 154 1086 154 1086 141 1097.5 c 128,-1,22
 128 1109 128 1109 128 1128 c 256,23,24
 128 1147 128 1147 141 1158.5 c 128,-1,25
 154 1170 154 1170 184 1170 c 2,26,-1
 669 1170 l 2,27,28
 699 1170 699 1170 712 1158.5 c 128,-1,29
 725 1147 725 1147 725 1128 c 256,30,31
 725 1109 725 1109 712 1097.5 c 128,-1,32
 699 1086 699 1086 669 1086 c 2,33,-1
 469 1086 l 1,0,-1
EndSplineSet
EndChar

StartChar: Eth
Encoding: 208 208 151
Width: 1229
GlyphClass: 2
Flags: W
LayerCount: 2
Fore
SplineSet
444 374 m 1,0,-1
 444 0 l 1,1,-1
 247 0 l 2,2,3
 217 0 217 0 204 12 c 128,-1,4
 191 24 191 24 191 42 c 0,5,6
 191 61 191 61 204 72.5 c 128,-1,7
 217 84 217 84 247 84 c 2,8,-1
 360 84 l 1,9,-1
 360 1170 l 1,10,-1
 247 1170 l 2,11,12
 217 1170 217 1170 204 1182 c 128,-1,13
 191 1194 191 1194 191 1213 c 0,14,15
 191 1231 191 1231 204 1243 c 128,-1,16
 217 1255 217 1255 247 1255 c 2,17,-1
 444 1255 l 1,18,-1
 444 481 l 1,19,-1
 801 781 l 1,20,-1
 758 781 l 2,21,22
 728 781 728 781 715 793 c 128,-1,23
 702 805 702 805 702 823 c 0,24,25
 702 842 702 842 715 854 c 128,-1,26
 728 866 728 866 758 866 c 2,27,-1
 1027 866 l 2,28,29
 1058 866 1058 866 1071 854 c 128,-1,30
 1084 842 1084 842 1084 823 c 0,31,32
 1084 805 1084 805 1071 793 c 128,-1,33
 1058 781 1058 781 1027 781 c 2,34,-1
 930 781 l 1,35,-1
 602 507 l 1,36,-1
 1017 84 l 1,37,-1
 1114 84 l 2,38,39
 1145 84 1145 84 1158 72.5 c 128,-1,40
 1171 61 1171 61 1171 42 c 0,41,42
 1171 24 1171 24 1158 12 c 128,-1,43
 1145 0 1145 0 1114 0 c 2,44,-1
 842 0 l 2,45,46
 812 0 812 0 799 12 c 128,-1,47
 786 24 786 24 786 42 c 0,48,49
 786 61 786 61 799 72.5 c 128,-1,50
 812 84 812 84 842 84 c 2,51,-1
 901 84 l 1,52,-1
 540 455 l 1,53,-1
 444 374 l 1,0,-1
EndSplineSet
EndChar

StartChar: Yacute
Encoding: 221 221 152
Width: 1229
GlyphClass: 2
Flags: W
LayerCount: 2
Fore
SplineSet
1128 582 m 0,0,1
 1128 414 1128 414 1060 270.5 c 128,-1,2
 992 127 992 127 872.5 47 c 128,-1,3
 753 -33 753 -33 616 -33 c 0,4,5
 413 -33 413 -33 258.5 139.5 c 128,-1,6
 104 312 104 312 104 582 c 0,7,8
 104 853 104 853 258.5 1025 c 128,-1,9
 413 1197 413 1197 616 1197 c 0,10,11
 753 1197 753 1197 872 1117 c 128,-1,12
 991 1037 991 1037 1059.5 894 c 128,-1,13
 1128 751 1128 751 1128 582 c 0,0,1
1043 582 m 0,14,15
 1043 787 1043 787 924 950 c 128,-1,16
 805 1113 805 1113 616 1113 c 0,17,18
 439 1113 439 1113 313.5 957.5 c 128,-1,19
 188 802 188 802 188 582 c 0,20,21
 188 348 188 348 319.5 199.5 c 128,-1,22
 451 51 451 51 616 51 c 0,23,24
 805 51 805 51 924 213.5 c 128,-1,25
 1043 376 1043 376 1043 582 c 0,14,15
EndSplineSet
EndChar

StartChar: Thorn
Encoding: 222 222 153
Width: 1229
GlyphClass: 2
Flags: W
LayerCount: 2
Fore
SplineSet
432 480 m 1,0,-1
 432 84 l 1,1,-1
 720 84 l 2,2,3
 750 84 750 84 763 72.5 c 128,-1,4
 776 61 776 61 776 42 c 0,5,6
 776 24 776 24 763 12 c 128,-1,7
 750 0 750 0 720 0 c 2,8,-1
 235 0 l 2,9,10
 205 0 205 0 192 12 c 128,-1,11
 179 24 179 24 179 42 c 0,12,13
 179 61 179 61 192 72.5 c 128,-1,14
 205 84 205 84 235 84 c 2,15,-1
 348 84 l 1,16,-1
 348 1086 l 1,17,-1
 235 1086 l 2,18,19
 205 1086 205 1086 192 1097.5 c 128,-1,20
 179 1109 179 1109 179 1128 c 256,21,22
 179 1147 179 1147 192 1158.5 c 128,-1,23
 205 1170 205 1170 235 1170 c 2,24,-1
 723 1170 l 2,25,26
 896 1170 896 1170 1005.5 1068 c 128,-1,27
 1115 966 1115 966 1115 829 c 0,28,29
 1115 748 1115 748 1079.5 683 c 128,-1,30
 1044 618 1044 618 994 581 c 0,31,32
 919 525 919 525 839 499 c 0,33,34
 781 480 781 480 695 480 c 2,35,-1
 432 480 l 1,0,-1
432 564 m 1,36,-1
 700 564 l 2,37,38
 793 564 793 564 874.5 605.5 c 128,-1,39
 956 647 956 647 993.5 707 c 128,-1,40
 1031 767 1031 767 1031 829 c 0,41,42
 1031 928 1031 928 946 1007 c 128,-1,43
 861 1086 861 1086 731 1086 c 2,44,-1
 432 1086 l 1,45,-1
 432 564 l 1,36,-1
EndSplineSet
EndChar

StartChar: minus
Encoding: 8722 8722 154
Width: 1229
GlyphClass: 2
Flags: W
LayerCount: 2
Fore
SplineSet
968 543 m 2,0,-1
 261 543 l 2,1,2
 182 543 182 543 174 545 c 0,3,4
 161 548 161 548 152.5 559.5 c 128,-1,5
 144 571 144 571 144 585 c 256,6,7
 144 599 144 599 152.5 610.5 c 128,-1,8
 161 622 161 622 174 625 c 0,9,10
 182 627 182 627 261 627 c 2,11,-1
 968 627 l 2,12,13
 1047 627 1047 627 1055 625 c 0,14,15
 1068 622 1068 622 1076.5 610.5 c 128,-1,16
 1085 599 1085 599 1085 585 c 256,17,18
 1085 571 1085 571 1076.5 559.5 c 128,-1,19
 1068 548 1068 548 1055 545 c 0,20,21
 1047 543 1047 543 968 543 c 2,0,-1
EndSplineSet
EndChar

StartChar: onesuperior
Encoding: 185 185 155
Width: 1229
GlyphClass: 2
Flags: W
LayerCount: 2
Fore
SplineSet
651 1282 m 1,0,-1
 651 673 l 1,1,-1
 808 673 l 2,2,3
 833 673 833 673 843.5 664.5 c 128,-1,4
 854 656 854 656 854 644 c 0,5,6
 854 633 854 633 843.5 624.5 c 128,-1,7
 833 616 833 616 808 616 c 2,8,-1
 419 616 l 2,9,10
 395 616 395 616 384.5 624.5 c 128,-1,11
 374 633 374 633 374 645 c 0,12,13
 374 656 374 656 384.5 664.5 c 128,-1,14
 395 673 395 673 419 673 c 2,15,-1
 577 673 l 1,16,-1
 577 1202 l 1,17,-1
 429 1162 l 2,18,19
 418 1159 418 1159 410 1159 c 0,20,21
 395 1159 395 1159 385 1167.5 c 128,-1,22
 375 1176 375 1176 375 1187 c 0,23,24
 375 1196 375 1196 381.5 1203 c 128,-1,25
 388 1210 388 1210 410 1216 c 2,26,-1
 651 1282 l 1,0,-1
EndSplineSet
EndChar

StartChar: twosuperior
Encoding: 178 178 156
Width: 1229
GlyphClass: 2
Flags: W
LayerCount: 2
Fore
SplineSet
420 673 m 1,0,-1
 770 673 l 1,1,2
 770 700 770 700 777 706 c 0,3,4
 788 718 788 718 807 718 c 0,5,6
 825 718 825 718 837 707 c 0,7,8
 844 700 844 700 844 683 c 2,9,-1
 844 616 l 1,10,-1
 341 616 l 1,11,-1
 341 688 l 1,12,13
 694 965 694 965 742 1027 c 0,14,15
 770 1063 770 1063 770 1096 c 0,16,17
 770 1146 770 1146 723.5 1187.5 c 128,-1,18
 677 1229 677 1229 606 1229 c 0,19,20
 545 1229 545 1229 500 1199 c 128,-1,21
 455 1169 455 1169 437 1120 c 0,22,23
 433 1107 433 1107 427 1103 c 0,24,25
 415 1096 415 1096 401 1096 c 0,26,27
 384 1096 384 1096 373 1105 c 0,28,29
 365 1112 365 1112 365 1122 c 0,30,31
 365 1168 365 1168 432.5 1226.5 c 128,-1,32
 500 1285 500 1285 606 1285 c 0,33,34
 708 1285 708 1285 776 1225 c 128,-1,35
 844 1165 844 1165 844 1097 c 0,36,37
 844 1059 844 1059 826 1029 c 0,38,39
 797 981 797 981 664 869 c 0,40,41
 499 730 499 730 420 673 c 1,0,-1
EndSplineSet
EndChar

StartChar: threesuperior
Encoding: 179 179 157
Width: 1229
GlyphClass: 2
Flags: W
LayerCount: 2
Fore
SplineSet
736 972 m 1,0,1
 799 945 799 945 834 898 c 128,-1,2
 869 851 869 851 869 802 c 0,3,4
 869 727 869 727 796 664 c 128,-1,5
 723 601 723 601 604 601 c 0,6,7
 533 601 533 601 460 627.5 c 128,-1,8
 387 654 387 654 362 679 c 0,9,10
 355 687 355 687 355 696 c 0,11,12
 355 707 355 707 364.5 715 c 128,-1,13
 374 723 374 723 389 723 c 256,14,15
 404 723 404 723 433 706 c 0,16,17
 511 657 511 657 604 657 c 0,18,19
 689 657 689 657 742 702.5 c 128,-1,20
 795 748 795 748 795 801 c 0,21,22
 795 855 795 855 741 900.5 c 128,-1,23
 687 946 687 946 587 948 c 0,24,25
 562 949 562 949 552 957 c 128,-1,26
 542 965 542 965 542 977 c 0,27,28
 542 988 542 988 552.5 996 c 128,-1,29
 563 1004 563 1004 585 1004 c 0,30,31
 664 1004 664 1004 697 1017.5 c 128,-1,32
 730 1031 730 1031 749 1058 c 128,-1,33
 768 1085 768 1085 768 1114 c 0,34,35
 768 1158 768 1158 727.5 1193.5 c 128,-1,36
 687 1229 687 1229 616 1229 c 0,37,38
 513 1229 513 1229 459 1172 c 0,39,40
 446 1157 446 1157 426 1157 c 0,41,42
 410 1157 410 1157 400 1165 c 128,-1,43
 390 1173 390 1173 390 1183 c 0,44,45
 390 1192 390 1192 401 1204 c 0,46,47
 434 1240 434 1240 492 1262.5 c 128,-1,48
 550 1285 550 1285 616 1285 c 0,49,50
 719 1285 719 1285 780.5 1232.5 c 128,-1,51
 842 1180 842 1180 842 1114 c 0,52,53
 842 1070 842 1070 818 1037 c 0,54,55
 785 992 785 992 736 972 c 1,0,1
EndSplineSet
EndChar

StartChar: threequarters
Encoding: 190 190 158
Width: 1229
GlyphClass: 2
Flags: W
LayerCount: 2
Fore
SplineSet
597 772 m 2,0,-1
 633 772 l 2,1,2
 689 772 689 772 729 732.5 c 128,-1,3
 769 693 769 693 769 637 c 0,4,5
 769 579 769 579 728.5 540 c 128,-1,6
 688 501 688 501 633 501 c 2,7,-1
 597 501 l 2,8,9
 541 501 541 501 501 540.5 c 128,-1,10
 461 580 461 580 461 636 c 0,11,12
 461 694 461 694 501.5 733 c 128,-1,13
 542 772 542 772 597 772 c 2,0,-1
EndSplineSet
EndChar

StartChar: Idotaccent
Encoding: 304 304 159
Width: 1229
GlyphClass: 2
Flags: W
LayerCount: 2
Fore
SplineSet
950 844 m 2,0,1
 950 696 950 696 853 597 c 0,2,3
 758 502 758 502 624 502 c 2,4,-1
 313 502 l 2,5,6
 278 502 278 502 278 542 c 0,7,8
 278 580 278 580 313 580 c 2,9,-1
 358 580 l 1,10,-1
 358 1162 l 1,11,-1
 313 1162 l 2,12,13
 278 1162 278 1162 278 1200 c 0,14,15
 278 1240 278 1240 313 1240 c 2,16,-1
 624 1240 l 2,17,18
 759 1240 759 1240 854.5 1141.5 c 128,-1,19
 950 1043 950 1043 950 898 c 2,20,-1
 950 844 l 2,0,1
871 833 m 2,21,-1
 871 909 l 2,22,23
 871 1008 871 1008 800 1085 c 128,-1,24
 729 1162 729 1162 629 1162 c 2,25,-1
 437 1162 l 1,26,-1
 437 580 l 1,27,-1
 629 580 l 2,28,29
 728 580 728 580 800 659 c 0,30,31
 871 735 871 735 871 833 c 2,21,-1
EndSplineSet
EndChar

StartChar: dmacron
Encoding: 273 273 161
Width: 1229
GlyphClass: 2
Flags: W
LayerCount: 2
Fore
SplineSet
741 0 m 2,0,1
 741 -56 741 -56 699 -56 c 256,2,3
 657 -56 657 -56 657 0 c 2,4,-1
 657 1198 l 2,5,6
 657 1255 657 1255 699 1255 c 256,7,8
 741 1255 741 1255 741 1198 c 2,9,-1
 741 0 l 2,0,1
571 0 m 2,10,11
 571 -56 571 -56 529 -56 c 256,12,13
 487 -56 487 -56 487 0 c 2,14,-1
 487 1198 l 2,15,16
 487 1255 487 1255 529 1255 c 256,17,18
 571 1255 571 1255 571 1198 c 2,19,-1
 571 0 l 2,10,11
EndSplineSet
EndChar

StartChar: middot
Encoding: 183 183 162
Width: 1229
GlyphClass: 2
Flags: W
LayerCount: 2
Fore
SplineSet
913 683 m 0,0,1
 913 641 913 641 883 611 c 128,-1,2
 853 581 853 581 811 581 c 0,3,4
 768 581 768 581 738 611 c 128,-1,5
 708 641 708 641 708 683 c 0,6,7
 708 726 708 726 738 756 c 128,-1,8
 768 786 768 786 811 786 c 0,9,10
 853 786 853 786 883 756 c 128,-1,11
 913 726 913 726 913 683 c 0,0,1
EndSplineSet
EndChar

StartChar: Dslash
Encoding: 272 272 164
Width: 1229
GlyphClass: 2
Flags: W
LayerCount: 2
Fore
SplineSet
618 781 m 1,0,-1
 618 134 l 2,1,2
 618 51 618 51 698 51 c 0,3,4
 746 51 746 51 805 77 c 0,5,6
 836 91 836 91 847 91 c 0,7,8
 885 91 885 91 885 48 c 0,9,10
 885 9 885 9 819.5 -12 c 0,11,12
 754 -33 754 -33 687 -33 c 0,13,14
 533 -33 533 -33 533 113 c 2,15,-1
 533 781 l 1,16,-1
 397 781 l 2,17,18
 364 781 364 781 285 774 c 0,19,20
 267 772 267 772 256 772 c 0,21,22
 208 772 208 772 208 814 c 0,23,24
 208 845 208 845 242 855.5 c 0,25,26
 276 866 276 866 378 866 c 2,27,-1
 874 866 l 2,28,29
 930 866 930 866 930 823 c 0,30,31
 930 781 930 781 874 781 c 2,32,-1
 618 781 l 1,0,-1
EndSplineSet
EndChar

StartChar: lacute
Encoding: 314 314 165
Width: 1229
GlyphClass: 2
Flags: W
LayerCount: 2
Fore
SplineSet
962 1013 m 0,0,1
 962 898 962 898 870 835 c 0,2,3
 792 781 792 781 683 781 c 2,4,-1
 518 781 l 1,5,-1
 518 580 l 1,6,-1
 699 580 l 2,7,8
 734 580 734 580 734 541 c 256,9,10
 734 502 734 502 699 502 c 2,11,-1
 367 502 l 2,12,13
 332 502 332 502 332 541 c 256,14,15
 332 580 332 580 367 580 c 2,16,-1
 439 580 l 1,17,-1
 439 1162 l 1,18,-1
 367 1162 l 2,19,20
 332 1162 332 1162 332 1201 c 256,21,22
 332 1240 332 1240 367 1240 c 2,23,-1
 701 1240 l 2,24,25
 805 1240 805 1240 878 1186 c 0,26,27
 962 1124 962 1124 962 1013 c 0,0,1
881 1013 m 0,28,29
 881 1082 881 1082 827 1124 c 0,30,31
 778 1162 778 1162 706 1162 c 2,32,-1
 518 1162 l 1,33,-1
 518 858 l 1,34,-1
 686 858 l 2,35,36
 765 858 765 858 819 895 c 0,37,38
 881 937 881 937 881 1013 c 0,28,29
EndSplineSet
EndChar

StartChar: Lcaron
Encoding: 317 317 166
Width: 1229
GlyphClass: 2
Flags: W
LayerCount: 2
Fore
SplineSet
964 1202 m 0,0,1
 964 1162 964 1162 929 1162 c 2,2,-1
 884 1162 l 1,3,-1
 884 749 l 2,4,5
 884 640 884 640 805.5 561.5 c 128,-1,6
 727 483 727 483 617 483 c 0,7,8
 506 483 506 483 426.5 561.5 c 128,-1,9
 347 640 347 640 347 749 c 2,10,-1
 347 1162 l 1,11,-1
 302 1162 l 2,12,13
 267 1162 267 1162 267 1202 c 0,14,15
 267 1240 267 1240 302 1240 c 2,16,-1
 524 1240 l 2,17,18
 559 1240 559 1240 559 1202 c 0,19,20
 559 1162 559 1162 524 1162 c 2,21,-1
 426 1162 l 1,22,-1
 426 759 l 2,23,24
 426 674 426 674 478.5 616.5 c 128,-1,25
 531 559 531 559 615 559 c 0,26,27
 700 559 700 559 752.5 616.5 c 128,-1,28
 805 674 805 674 805 759 c 2,29,-1
 805 1162 l 1,30,-1
 707 1162 l 2,31,32
 672 1162 672 1162 672 1202 c 0,33,34
 672 1240 672 1240 707 1240 c 2,35,-1
 929 1240 l 2,36,37
 964 1240 964 1240 964 1202 c 0,0,1
EndSplineSet
EndChar

StartChar: lcaron
Encoding: 318 318 167
Width: 1229
GlyphClass: 2
Flags: W
LayerCount: 2
Fore
SplineSet
1002 1202 m 256,0,1
 1002 1164 1002 1164 966 1164 c 2,2,-1
 947 1164 l 1,3,-1
 873 502 l 1,4,-1
 734 502 l 1,5,-1
 612 1003 l 1,6,-1
 493 502 l 1,7,-1
 354 502 l 1,8,-1
 276 1164 l 1,9,-1
 256 1164 l 2,10,11
 221 1164 221 1164 221 1202 c 256,12,13
 221 1240 221 1240 256 1240 c 2,14,-1
 481 1240 l 2,15,16
 517 1240 517 1240 517 1202 c 256,17,18
 517 1164 517 1164 481 1164 c 2,19,-1
 357 1164 l 1,20,-1
 427 563 l 1,21,-1
 542 1053 l 1,22,-1
 680 1053 l 1,23,-1
 798 563 l 1,24,-1
 867 1164 l 1,25,-1
 743 1164 l 2,26,27
 708 1164 708 1164 708 1202 c 256,28,29
 708 1240 708 1240 743 1240 c 2,30,-1
 966 1240 l 2,31,32
 1002 1240 1002 1240 1002 1202 c 256,0,1
EndSplineSet
EndChar

StartChar: Ldot
Encoding: 319 319 168
Width: 1229
GlyphClass: 2
Flags: W
LayerCount: 2
Fore
SplineSet
921 588 m 0,0,1
 921 542 921 542 812 511 c 0,2,3
 709 482 709 482 608 482 c 0,4,5
 305 482 305 482 305 652 c 0,6,7
 305 752 305 752 443 789 c 1,8,9
 332 819 332 819 332 918 c 0,10,11
 332 997 332 997 428 1037 c 0,12,13
 501 1067 501 1067 594 1067 c 0,14,15
 747 1067 747 1067 828 984 c 1,16,-1
 828 1022 l 2,17,18
 828 1067 828 1067 868 1067 c 256,19,20
 908 1067 908 1067 908 1022 c 2,21,-1
 908 878 l 2,22,23
 908 850 908 850 871 850 c 0,24,25
 849 850 849 850 830 884 c 0,26,27
 771 991 771 991 606 991 c 0,28,29
 412 991 412 991 412 911 c 0,30,31
 412 847 412 847 517 829 c 0,32,33
 558 822 558 822 668 822 c 2,34,-1
 703 822 l 2,35,36
 747 822 747 822 747 783 c 0,37,38
 747 748 747 748 703 748 c 2,39,-1
 668 748 l 2,40,41
 541 748 541 748 499 741 c 0,42,43
 385 723 385 723 385 656 c 0,44,45
 385 606 385 606 467 579 c 0,46,47
 529 558 529 558 603 558 c 0,48,49
 748 558 748 558 866 616 c 0,50,51
 884 625 884 625 890 625 c 0,52,53
 921 625 921 625 921 588 c 0,0,1
EndSplineSet
EndChar

StartChar: nacute
Encoding: 324 324 169
Width: 1229
GlyphClass: 2
Flags: W
LayerCount: 2
Fore
SplineSet
990 1010 m 0,0,1
 990 972 990 972 954 972 c 2,2,-1
 884 972 l 1,3,-1
 884 792 l 2,4,5
 884 481 884 481 630 481 c 0,6,7
 381 481 381 481 381 786 c 2,8,-1
 381 972 l 1,9,-1
 311 972 l 2,10,11
 275 972 275 972 275 1010 c 0,12,13
 275 1050 275 1050 311 1050 c 2,14,-1
 530 1050 l 2,15,16
 565 1050 565 1050 565 1010 c 0,17,18
 565 972 565 972 530 972 c 2,19,-1
 459 972 l 1,20,-1
 459 792 l 2,21,22
 459 559 459 559 632 559 c 0,23,24
 739 559 739 559 778 629 c 0,25,26
 806 679 806 679 806 792 c 2,27,-1
 806 972 l 1,28,-1
 736 972 l 2,29,30
 700 972 700 972 700 1010 c 0,31,32
 700 1050 700 1050 736 1050 c 2,33,-1
 954 1050 l 2,34,35
 990 1050 990 1050 990 1010 c 0,0,1
EndSplineSet
EndChar

StartChar: zacute
Encoding: 378 378 170
Width: 1229
GlyphClass: 2
Flags: W
LayerCount: 2
Fore
SplineSet
894 752 m 0,0,1
 894 632 894 632 803 554 c 0,2,3
 720 483 720 483 613 483 c 256,4,5
 506 483 506 483 422 554 c 0,6,7
 331 632 331 632 331 752 c 0,8,9
 331 936 331 936 497 992 c 1,10,11
 430 1018 430 1018 387 1086.5 c 128,-1,12
 344 1155 344 1155 344 1240 c 1,13,-1
 427 1240 l 1,14,15
 427 1150 427 1150 477 1090 c 0,16,17
 529 1026 529 1026 612 1026 c 256,18,19
 695 1026 695 1026 748 1090 c 0,20,21
 798 1150 798 1150 798 1240 c 1,22,-1
 881 1240 l 1,23,24
 881 1155 881 1155 838 1086.5 c 128,-1,25
 795 1018 795 1018 728 992 c 1,26,27
 894 936 894 936 894 752 c 0,0,1
812 751 m 0,28,29
 812 844 812 844 759 897.5 c 128,-1,30
 706 951 706 951 613 951 c 256,31,32
 520 951 520 951 466.5 897.5 c 128,-1,33
 413 844 413 844 413 751 c 0,34,35
 413 667 413 667 473 612 c 0,36,37
 530 559 530 559 612 559 c 256,38,39
 694 559 694 559 753 613 c 128,-1,40
 812 667 812 667 812 751 c 0,28,29
EndSplineSet
EndChar

StartChar: Zdot
Encoding: 379 379 171
Width: 1229
GlyphClass: 2
Flags: W
LayerCount: 2
Fore
SplineSet
916 442 m 0,0,1
 916 399 916 399 837 399 c 2,2,-1
 611 399 l 1,3,-1
 611 134 l 2,4,5
 611 51 611 51 691 51 c 0,6,7
 751 51 751 51 799 76 c 0,8,9
 828 91 828 91 840 91 c 0,10,11
 879 91 879 91 879 48 c 0,12,13
 879 4 879 4 796 -18 c 0,14,15
 740 -33 740 -33 679 -33 c 0,16,17
 527 -33 527 -33 527 113 c 2,18,-1
 527 399 l 1,19,-1
 295 399 l 2,20,21
 228 399 228 399 228 442 c 0,22,23
 228 484 228 484 298 484 c 2,24,-1
 527 484 l 1,25,-1
 527 839 l 2,26,27
 527 896 527 896 569 896 c 256,28,29
 611 896 611 896 611 839 c 2,30,-1
 611 484 l 1,31,-1
 836 484 l 2,32,33
 916 484 916 484 916 442 c 0,0,1
EndSplineSet
EndChar

StartChar: zdot
Encoding: 380 380 172
Width: 1229
GlyphClass: 2
Flags: W
LayerCount: 2
Fore
SplineSet
913 1240 m 0,0,1
 913 1204 913 1204 877 1204 c 0,2,3
 870 1204 870 1204 842 1212 c 128,-1,4
 814 1220 814 1220 796 1220 c 0,5,6
 660 1220 660 1220 660 1086 c 2,7,-1
 660 454 l 2,8,9
 660 360 660 360 599 306 c 0,10,11
 543 256 543 256 456 256 c 0,12,13
 414 256 414 256 372 272 c 0,14,15
 334 287 334 287 334 315 c 0,16,17
 334 349 334 349 368 349 c 0,18,19
 375 349 375 349 387 345 c 0,20,21
 428 331 428 331 459 331 c 0,22,23
 582 331 582 331 582 463 c 2,24,-1
 582 1086 l 2,25,26
 582 1184 582 1184 643 1241 c 0,27,28
 700 1293 700 1293 791 1293 c 0,29,30
 838 1293 838 1293 878 1278 c 0,31,32
 913 1265 913 1265 913 1240 c 0,0,1
EndSplineSet
EndChar

StartChar: Gamma
Encoding: 915 915 173
Width: 1229
GlyphClass: 2
Flags: W
LayerCount: 2
Fore
SplineSet
468 84 m 1,0,-1
 668 84 l 2,1,2
 724 84 724 84 724 42 c 256,3,4
 724 0 724 0 668 0 c 2,5,-1
 183 0 l 2,6,7
 127 0 127 0 127 42 c 256,8,9
 127 84 127 84 183 84 c 2,10,-1
 383 84 l 1,11,-1
 383 1086 l 1,12,-1
 183 1086 l 2,13,14
 127 1086 127 1086 127 1128 c 256,15,16
 127 1170 127 1170 183 1170 c 2,17,-1
 1111 1170 l 1,18,-1
 1111 752 l 2,19,20
 1111 696 1111 696 1069 696 c 0,21,22
 1026 696 1026 696 1026 752 c 2,23,-1
 1026 1086 l 1,24,-1
 468 1086 l 1,25,-1
 468 84 l 1,0,-1
EndSplineSet
EndChar

StartChar: Theta
Encoding: 920 920 174
Width: 1229
GlyphClass: 2
Flags: W
LayerCount: 2
Fore
SplineSet
1127 582 m 0,0,1
 1127 326 1127 326 978.5 146.5 c 128,-1,2
 830 -33 830 -33 615 -33 c 0,3,4
 401 -33 401 -33 252 146 c 128,-1,5
 103 325 103 325 103 582 c 0,6,7
 103 837 103 837 251 1017 c 128,-1,8
 399 1197 399 1197 615 1197 c 0,9,10
 767 1197 767 1197 886.5 1105.5 c 128,-1,11
 1006 1014 1006 1014 1066.5 876.5 c 128,-1,12
 1127 739 1127 739 1127 582 c 0,0,1
1042 582 m 0,13,14
 1042 795 1042 795 920 954 c 128,-1,15
 798 1113 798 1113 615 1113 c 0,16,17
 439 1113 439 1113 313 956.5 c 128,-1,18
 187 800 187 800 187 582 c 0,19,20
 187 365 187 365 311.5 208 c 128,-1,21
 436 51 436 51 615 51 c 0,22,23
 798 51 798 51 920 210.5 c 128,-1,24
 1042 370 1042 370 1042 582 c 0,13,14
423 624 m 1,25,-1
 807 624 l 1,26,-1
 807 711 l 2,27,28
 807 767 807 767 849 767 c 0,29,30
 892 767 892 767 892 711 c 2,31,-1
 892 453 l 2,32,33
 892 397 892 397 849 397 c 0,34,35
 807 397 807 397 807 453 c 2,36,-1
 807 540 l 1,37,-1
 423 540 l 1,38,-1
 423 453 l 2,39,40
 423 397 423 397 380 397 c 0,41,42
 338 397 338 397 338 453 c 2,43,-1
 338 711 l 2,44,45
 338 767 338 767 380 767 c 0,46,47
 423 767 423 767 423 711 c 2,48,-1
 423 624 l 1,25,-1
EndSplineSet
EndChar

StartChar: Phi
Encoding: 934 934 175
Width: 1229
GlyphClass: 2
Flags: W
LayerCount: 2
Fore
SplineSet
656 1086 m 1,0,-1
 656 983 l 1,1,2
 893 981 893 981 1015.5 870 c 128,-1,3
 1138 759 1138 759 1138 585 c 256,4,5
 1138 411 1138 411 1015.5 300 c 128,-1,6
 893 189 893 189 656 187 c 1,7,-1
 656 84 l 1,8,-1
 778 84 l 2,9,10
 835 84 835 84 835 42 c 256,11,12
 835 0 835 0 778 0 c 2,13,-1
 450 0 l 2,14,15
 393 0 393 0 393 42 c 256,16,17
 393 84 393 84 450 84 c 2,18,-1
 572 84 l 1,19,-1
 572 187 l 1,20,21
 335 189 335 189 212.5 300.5 c 128,-1,22
 90 412 90 412 90 585 c 0,23,24
 90 705 90 705 149 796.5 c 128,-1,25
 208 888 208 888 313.5 935 c 128,-1,26
 419 982 419 982 572 983 c 1,27,-1
 572 1086 l 1,28,-1
 450 1086 l 2,29,30
 393 1086 393 1086 393 1128 c 256,31,32
 393 1170 393 1170 450 1170 c 2,33,-1
 778 1170 l 2,34,35
 835 1170 835 1170 835 1128 c 256,36,37
 835 1086 835 1086 778 1086 c 2,38,-1
 656 1086 l 1,0,-1
572 898 m 1,39,40
 372 894 372 894 273 814.5 c 128,-1,41
 174 735 174 735 174 585 c 0,42,43
 174 281 174 281 572 272 c 1,44,-1
 572 898 l 1,39,40
656 898 m 1,45,-1
 656 272 l 1,46,47
 869 273 869 273 961 361.5 c 128,-1,48
 1053 450 1053 450 1053 585 c 0,49,50
 1053 889 1053 889 656 898 c 1,45,-1
EndSplineSet
EndChar

StartChar: alpha
Encoding: 945 945 176
Width: 1229
GlyphClass: 2
Flags: W
LayerCount: 2
Fore
SplineSet
1001 84 m 1,0,-1
 1079 84 l 2,1,2
 1135 84 1135 84 1135 42 c 256,3,4
 1135 0 1135 0 1079 0 c 2,5,-1
 930 0 l 1,6,-1
 879 268 l 1,7,8
 762 90 762 90 670 28.5 c 128,-1,9
 578 -33 578 -33 475 -33 c 0,10,11
 323 -33 323 -33 210.5 98 c 128,-1,12
 98 229 98 229 98 435 c 0,13,14
 98 629 98 629 207.5 762.5 c 128,-1,15
 317 896 317 896 487 896 c 0,16,17
 621 896 621 896 735 794.5 c 128,-1,18
 849 693 849 693 907 499 c 1,19,20
 1010 700 1010 700 1048 842 c 0,21,22
 1062 896 1062 896 1095 896 c 0,23,24
 1137 896 1137 896 1137 856 c 0,25,26
 1137 757 1137 757 942 370 c 1,27,28
 996 122 996 122 1001 84 c 1,0,-1
848 385 m 1,29,30
 817 558 817 558 715 684.5 c 128,-1,31
 613 811 613 811 481 811 c 0,32,33
 355 811 355 811 268.5 706 c 128,-1,34
 182 601 182 601 182 435 c 0,35,36
 182 262 182 262 271.5 156.5 c 128,-1,37
 361 51 361 51 479 51 c 0,38,39
 669 51 669 51 848 385 c 1,29,30
EndSplineSet
EndChar

StartChar: delta
Encoding: 948 948 177
Width: 1229
GlyphClass: 2
Flags: W
LayerCount: 2
Fore
SplineSet
360 1170 m 1,0,-1
 762 866 l 2,1,2
 923 744 923 744 987.5 650 c 128,-1,3
 1052 556 1052 556 1052 414 c 0,4,5
 1052 230 1052 230 923 98.5 c 128,-1,6
 794 -33 794 -33 615 -33 c 0,7,8
 505 -33 505 -33 405 23 c 128,-1,9
 305 79 305 79 243 179.5 c 128,-1,10
 181 280 181 280 181 407 c 0,11,12
 181 567 181 567 295 704.5 c 128,-1,13
 409 842 409 842 655 842 c 1,14,-1
 387 1038 l 2,15,16
 332 1078 332 1078 285 1131 c 1,17,-1
 285 1255 l 1,18,-1
 899 1255 l 2,19,20
 955 1255 955 1255 955 1212 c 0,21,22
 955 1170 955 1170 899 1170 c 2,23,-1
 360 1170 l 1,0,-1
616 757 m 0,24,25
 462 757 462 757 363.5 656.5 c 128,-1,26
 265 556 265 556 265 407 c 256,27,28
 265 258 265 258 365.5 154.5 c 128,-1,29
 466 51 466 51 615 51 c 256,30,31
 764 51 764 51 865.5 155 c 128,-1,32
 967 259 967 259 967 413 c 0,33,34
 967 564 967 564 869.5 660.5 c 128,-1,35
 772 757 772 757 616 757 c 0,24,25
EndSplineSet
EndChar

StartChar: sigma
Encoding: 963 963 178
Width: 1229
GlyphClass: 2
Flags: W
LayerCount: 2
Fore
SplineSet
855 811 m 1,0,1
 962 752 962 752 1019.5 644 c 128,-1,2
 1077 536 1077 536 1077 419 c 0,3,4
 1077 241 1077 241 942.5 104 c 128,-1,5
 808 -33 808 -33 617 -33 c 0,6,7
 422 -33 422 -33 287 107 c 128,-1,8
 152 247 152 247 152 434 c 0,9,10
 152 582 152 582 239.5 701 c 128,-1,11
 327 820 327 820 448.5 858 c 128,-1,12
 570 896 570 896 769 896 c 2,13,-1
 1144 896 l 2,14,15
 1200 896 1200 896 1200 854 c 0,16,17
 1200 811 1200 811 1144 811 c 2,18,-1
 855 811 l 1,0,1
617 811 m 0,19,20
 554 811 554 811 453.5 769.5 c 128,-1,21
 353 728 353 728 294.5 631 c 128,-1,22
 236 534 236 534 236 427 c 0,23,24
 236 273 236 273 346 162 c 128,-1,25
 456 51 456 51 616 51 c 0,26,27
 769 51 769 51 881 162.5 c 128,-1,28
 993 274 993 274 993 430 c 0,29,30
 993 595 993 595 879.5 703 c 128,-1,31
 766 811 766 811 617 811 c 0,19,20
EndSplineSet
EndChar

StartChar: phi
Encoding: 966 966 179
Width: 1229
GlyphClass: 2
Flags: W
LayerCount: 2
Fore
SplineSet
516 -26 m 1,0,1
 331 5 331 5 227 133 c 128,-1,2
 123 261 123 261 123 459 c 0,3,4
 123 579 123 579 167.5 673.5 c 128,-1,5
 212 768 212 768 288 832 c 128,-1,6
 364 896 364 896 404 896 c 0,7,8
 440 896 440 896 440 851 c 0,9,10
 440 828 440 828 387 800 c 0,11,12
 304 757 304 757 255.5 665 c 128,-1,13
 207 573 207 573 207 454 c 0,14,15
 207 143 207 143 516 59 c 1,16,-1
 516 506 l 2,17,18
 516 663 516 663 537 733.5 c 128,-1,19
 558 804 558 804 614 850 c 128,-1,20
 670 896 670 896 751 896 c 0,21,22
 900 896 900 896 1006 761.5 c 128,-1,23
 1112 627 1112 627 1112 441 c 0,24,25
 1112 226 1112 226 974.5 96.5 c 128,-1,26
 837 -33 837 -33 652 -33 c 0,27,28
 632 -33 632 -33 600 -32 c 1,29,-1
 600 -316 l 2,30,31
 600 -386 600 -386 558 -386 c 256,32,33
 516 -386 516 -386 516 -316 c 2,34,-1
 516 -26 l 1,0,1
600 51 m 1,35,36
 808 51 808 51 917.5 162.5 c 128,-1,37
 1027 274 1027 274 1027 440 c 0,38,39
 1027 597 1027 597 943 704 c 128,-1,40
 859 811 859 811 754 811 c 0,41,42
 670 811 670 811 635 747 c 128,-1,43
 600 683 600 683 600 507 c 2,44,-1
 600 51 l 1,35,36
EndSplineSet
EndChar

StartChar: nsuperior
Encoding: 8319 8319 180
Width: 1229
GlyphClass: 2
Flags: W
LayerCount: 2
Fore
SplineSet
448 1050 m 1,0,-1
 448 971 l 1,1,2
 504 1026 504 1026 550.5 1048 c 128,-1,3
 597 1070 597 1070 656 1070 c 0,4,5
 718 1070 718 1070 765 1042 c 128,-1,6
 812 1014 812 1014 832.5 971.5 c 128,-1,7
 853 929 853 929 853 823 c 2,8,-1
 853 580 l 1,9,10
 884 581 884 581 894.5 576.5 c 128,-1,11
 905 572 905 572 911.5 563 c 128,-1,12
 918 554 918 554 918 541 c 0,13,14
 918 529 918 529 911.5 519.5 c 128,-1,15
 905 510 905 510 895 506 c 128,-1,16
 885 502 885 502 853 502 c 2,17,-1
 774 502 l 2,18,19
 743 502 743 502 732.5 506 c 128,-1,20
 722 510 722 510 715.5 519.5 c 128,-1,21
 709 529 709 529 709 541 c 0,22,23
 709 554 709 554 715.5 563 c 128,-1,24
 722 572 722 572 733 576.5 c 128,-1,25
 744 581 744 581 774 580 c 1,26,-1
 774 828 l 2,27,28
 774 906 774 906 763 931.5 c 128,-1,29
 752 957 752 957 723 974.5 c 128,-1,30
 694 992 694 992 653 992 c 0,31,32
 606 992 606 992 559 966.5 c 128,-1,33
 512 941 512 941 448 862 c 1,34,-1
 448 580 l 1,35,-1
 478 580 l 2,36,37
 509 580 509 580 521.5 569.5 c 128,-1,38
 534 559 534 559 534 542 c 0,39,40
 534 523 534 523 521.5 512.5 c 128,-1,41
 509 502 509 502 478 502 c 2,42,-1
 339 502 l 2,43,44
 308 502 308 502 295.5 512.5 c 128,-1,45
 283 523 283 523 283 542 c 0,46,47
 283 559 283 559 295.5 569.5 c 128,-1,48
 308 580 308 580 339 580 c 2,49,-1
 369 580 l 1,50,-1
 369 972 l 1,51,-1
 339 972 l 2,52,53
 308 972 308 972 295.5 982.5 c 128,-1,54
 283 993 283 993 283 1011 c 256,55,56
 283 1029 283 1029 295.5 1039.5 c 128,-1,57
 308 1050 308 1050 339 1050 c 2,58,-1
 448 1050 l 1,0,-1
EndSplineSet
EndChar

StartChar: arrowupdnbse
Encoding: 8616 8616 181
Width: 1229
GlyphClass: 2
Flags: W
LayerCount: 2
Fore
SplineSet
599 948 m 1,0,-1
 629 948 l 1,1,2
 685 826 685 826 847 685 c 1,3,-1
 847 633 l 1,4,5
 737 677 737 677 646 759 c 1,6,-1
 646 -87 l 1,7,8
 736 -6 736 -6 847 38 c 1,9,-1
 847 -13 l 1,10,11
 686 -154 686 -154 629 -277 c 1,12,-1
 599 -277 l 1,13,14
 571 -215 571 -215 523.5 -156 c 128,-1,15
 476 -97 476 -97 381 -13 c 1,16,-1
 381 38 l 1,17,18
 493 -7 493 -7 582 -87 c 1,19,-1
 582 759 l 1,20,21
 491 677 491 677 381 633 c 1,22,-1
 381 685 l 1,23,24
 477 769 477 769 524 828 c 128,-1,25
 571 887 571 887 599 948 c 1,0,-1
382 -339 m 1,26,-1
 847 -339 l 1,27,-1
 847 -402 l 1,28,-1
 382 -402 l 1,29,-1
 382 -339 l 1,26,-1
EndSplineSet
EndChar

StartChar: house
Encoding: 8962 8962 182
Width: 1229
GlyphClass: 2
Flags: W
LayerCount: 2
Fore
SplineSet
153 0 m 1,0,-1
 153 634 l 1,1,-1
 614 1153 l 1,2,-1
 1076 634 l 1,3,-1
 1076 0 l 1,4,-1
 153 0 l 1,0,-1
234 81 m 1,5,-1
 995 81 l 1,6,-1
 995 600 l 1,7,-1
 614 1027 l 1,8,-1
 234 600 l 1,9,-1
 234 81 l 1,5,-1
EndSplineSet
EndChar

StartChar: revlogicalnot
Encoding: 8976 8976 183
Width: 1229
GlyphClass: 2
Flags: W
LayerCount: 2
Fore
SplineSet
1148 543 m 2,0,-1
 228 543 l 1,1,-1
 228 123 l 2,2,3
 228 93 228 93 216.5 80 c 128,-1,4
 205 67 205 67 186 67 c 256,5,6
 167 67 167 67 155.5 79.5 c 128,-1,7
 144 92 144 92 144 123 c 2,8,-1
 144 627 l 1,9,-1
 1148 627 l 2,10,11
 1179 627 1179 627 1192 615.5 c 128,-1,12
 1205 604 1205 604 1205 585 c 256,13,14
 1205 566 1205 566 1192 554.5 c 128,-1,15
 1179 543 1179 543 1148 543 c 2,0,-1
EndSplineSet
EndChar

StartChar: integraltp
Encoding: 8992 8992 184
Width: 1229
GlyphClass: 2
Flags: W
LayerCount: 2
Fore
SplineSet
688 -615 m 1,0,-1
 541 -615 l 1,1,-1
 541 1264 l 2,2,3
 541 1461 541 1461 624 1583 c 128,-1,4
 707 1705 707 1705 835 1705 c 0,5,6
 898 1705 898 1705 935.5 1674 c 128,-1,7
 973 1643 973 1643 973 1596 c 0,8,9
 973 1556 973 1556 947.5 1530 c 128,-1,10
 922 1504 922 1504 885 1504 c 0,11,12
 854 1504 854 1504 841 1513 c 0,13,14
 828 1519 828 1519 789 1563 c 0,15,16
 754 1602 754 1602 740 1602 c 0,17,18
 703 1602 703 1602 695 1563 c 0,19,20
 688 1529 688 1529 688 1424 c 2,21,-1
 688 -615 l 1,0,-1
EndSplineSet
EndChar

StartChar: integralbt
Encoding: 8993 8993 185
Width: 1229
GlyphClass: 2
Flags: W
LayerCount: 2
Fore
SplineSet
541 1705 m 1,0,-1
 688 1705 l 1,1,-1
 688 -174 l 2,2,3
 688 -381 688 -381 598 -504 c 0,4,5
 517 -615 517 -615 394 -615 c 0,6,7
 333 -615 333 -615 294.5 -584.5 c 128,-1,8
 256 -554 256 -554 256 -506 c 0,9,10
 256 -466 256 -466 281.5 -440 c 128,-1,11
 307 -414 307 -414 343 -414 c 0,12,13
 375 -414 375 -414 402 -430 c 0,14,15
 410 -435 410 -435 443 -476 c 0,16,17
 472 -512 472 -512 489 -512 c 0,18,19
 526 -512 526 -512 534 -472 c 0,20,21
 541 -437 541 -437 541 -334 c 2,22,-1
 541 1705 l 1,0,-1
EndSplineSet
EndChar

StartChar: IJ
Encoding: 306 306 186
Width: 1229
GlyphClass: 2
Flags: W
LayerCount: 2
Fore
SplineSet
966 830 m 0,0,1
 966 790 966 790 911 790 c 1,2,-1
 911 550 l 1,3,4
 790 483 790 483 644 483 c 0,5,6
 481 483 481 483 374 574 c 0,7,8
 264 669 264 669 264 822 c 2,9,-1
 264 919 l 2,10,11
 264 1057 264 1057 369.5 1157 c 128,-1,12
 475 1257 475 1257 615 1257 c 0,13,14
 744 1257 744 1257 831 1188 c 1,15,16
 831 1240 831 1240 870 1240 c 0,17,18
 911 1240 911 1240 911 1195 c 2,19,-1
 911 1061 l 2,20,21
 911 1026 911 1026 870 1026 c 0,22,23
 834 1026 834 1026 832 1059 c 0,24,25
 828 1119 828 1119 750 1154 c 0,26,27
 688 1181 688 1181 619 1181 c 0,28,29
 504 1181 504 1181 423.5 1095.5 c 128,-1,30
 343 1010 343 1010 343 895 c 2,31,-1
 343 846 l 2,32,33
 343 710 343 710 426 634.5 c 128,-1,34
 509 559 509 559 646 559 c 0,35,36
 731 559 731 559 831 605 c 1,37,-1
 831 790 l 1,38,-1
 649 790 l 2,39,40
 614 790 614 790 614 827 c 0,41,42
 614 868 614 868 649 868 c 2,43,-1
 930 868 l 2,44,45
 966 868 966 868 966 830 c 0,0,1
EndSplineSet
EndChar

StartChar: ij
Encoding: 307 307 187
Width: 1229
GlyphClass: 2
Flags: W
LayerCount: 2
Fore
SplineSet
870 541 m 256,0,1
 870 502 870 502 835 502 c 2,2,-1
 393 502 l 2,3,4
 358 502 358 502 358 541 c 256,5,6
 358 580 358 580 393 580 c 2,7,-1
 575 580 l 1,8,-1
 575 1164 l 1,9,-1
 393 1164 l 2,10,11
 358 1164 358 1164 358 1201 c 0,12,13
 358 1240 358 1240 393 1240 c 2,14,-1
 835 1240 l 2,15,16
 870 1240 870 1240 870 1201 c 0,17,18
 870 1164 870 1164 835 1164 c 2,19,-1
 653 1164 l 1,20,-1
 653 580 l 1,21,-1
 835 580 l 2,22,23
 870 580 870 580 870 541 c 256,0,1
EndSplineSet
EndChar

StartChar: afii61248
Encoding: 8453 8453 188
Width: 1229
GlyphClass: 2
Flags: W
LayerCount: 2
Fore
SplineSet
671 1211 m 1,0,1
 671 1243 671 1243 675 1249 c 0,2,3
 683 1259 683 1259 694 1259 c 256,4,5
 705 1259 705 1259 712 1250 c 0,6,7
 718 1244 718 1244 718 1227 c 2,8,-1
 718 1121 l 2,9,10
 718 1103 718 1103 711.5 1096 c 128,-1,11
 705 1089 705 1089 694 1089 c 0,12,13
 685 1089 685 1089 678.5 1095.5 c 128,-1,14
 672 1102 672 1102 671 1117 c 0,15,16
 667 1157 667 1157 618.5 1192.5 c 128,-1,17
 570 1228 570 1228 487 1228 c 0,18,19
 393 1228 393 1228 333.5 1168 c 128,-1,20
 274 1108 274 1108 274 1013 c 0,21,22
 274 922 274 922 334 862.5 c 128,-1,23
 394 803 394 803 489 803 c 0,24,25
 616 803 616 803 702 888 c 0,26,27
 714 900 714 900 723 900 c 256,28,29
 732 900 732 900 738.5 893.5 c 128,-1,30
 745 887 745 887 745 877 c 0,31,32
 745 853 745 853 689 816 c 0,33,34
 598 756 598 756 486 756 c 0,35,36
 373 756 373 756 300 828.5 c 128,-1,37
 227 901 227 901 227 1012 c 0,38,39
 227 1126 227 1126 301.5 1200.5 c 128,-1,40
 376 1275 376 1275 490 1275 c 0,41,42
 598 1275 598 1275 671 1211 c 1,0,1
1014 725 m 2,43,-1
 236 472 l 2,44,45
 222 468 222 468 215 468 c 0,46,47
 204 468 204 468 195.5 477 c 128,-1,48
 187 486 187 486 187 498 c 0,49,50
 187 508 187 508 194 518 c 0,51,52
 199 524 199 524 217 530 c 2,53,-1
 995 783 l 2,54,55
 1009 787 1009 787 1017 787 c 0,56,57
 1027 787 1027 787 1035.5 778 c 128,-1,58
 1044 769 1044 769 1044 757 c 0,59,60
 1044 747 1044 747 1037 737 c 0,61,62
 1032 731 1032 731 1014 725 c 2,43,-1
1006 235 m 0,63,64
 1006 128 1006 128 929.5 52 c 128,-1,65
 853 -24 853 -24 744 -24 c 256,66,67
 635 -24 635 -24 558.5 52 c 128,-1,68
 482 128 482 128 482 235 c 256,69,70
 482 342 482 342 558.5 418.5 c 128,-1,71
 635 495 635 495 744 495 c 256,72,73
 853 495 853 495 929.5 419 c 128,-1,74
 1006 343 1006 343 1006 235 c 0,63,64
959 235 m 256,75,76
 959 323 959 323 896.5 385.5 c 128,-1,77
 834 448 834 448 744 448 c 0,78,79
 655 448 655 448 592 385.5 c 128,-1,80
 529 323 529 323 529 235 c 0,81,82
 529 148 529 148 592 85.5 c 128,-1,83
 655 23 655 23 744 23 c 256,84,85
 833 23 833 23 896 85 c 128,-1,86
 959 147 959 147 959 235 c 256,75,76
EndSplineSet
EndChar

StartChar: afii61289
Encoding: 8467 8467 189
Width: 1229
GlyphClass: 2
Flags: W
LayerCount: 2
Fore
SplineSet
439 446 m 1,0,-1
 439 487 l 2,1,2
 439 680 439 680 471.5 866.5 c 128,-1,3
 504 1053 504 1053 580 1144 c 0,4,5
 625 1197 625 1197 680 1197 c 0,6,7
 728 1197 728 1197 755 1162 c 0,8,9
 792 1112 792 1112 792 1013 c 0,10,11
 792 862 792 862 716 691 c 0,12,13
 667 578 667 578 529 410 c 1,14,15
 524 296 524 296 524 266 c 0,16,17
 524 117 524 117 546 74 c 0,18,19
 558 52 558 52 582 52 c 0,20,21
 614 52 614 52 634.5 96 c 128,-1,22
 655 140 655 140 685 140 c 0,23,24
 698 140 698 140 707.5 129.5 c 128,-1,25
 717 119 717 119 717 102 c 0,26,27
 717 53 717 53 676 10 c 128,-1,28
 635 -33 635 -33 581 -33 c 0,29,30
 502 -33 502 -33 471.5 36 c 128,-1,31
 441 105 441 105 439 305 c 1,32,33
 424 292 424 292 418 285 c 0,34,35
 389 255 389 255 383 251 c 0,36,37
 374 245 374 245 363 245 c 0,38,39
 345 245 345 245 333 256.5 c 128,-1,40
 321 268 321 268 321 283 c 0,41,42
 321 300 321 300 335 322 c 0,43,44
 354 352 354 352 439 446 c 1,0,-1
529 544 m 1,45,46
 618 666 618 666 655 760 c 0,47,48
 706 891 706 891 706 1006 c 0,49,50
 706 1078 706 1078 693 1102 c 0,51,52
 687 1114 687 1114 676 1114 c 0,53,54
 649 1114 649 1114 614 1048 c 0,55,56
 540 905 540 905 529 544 c 1,45,46
EndSplineSet
EndChar

StartChar: Amacron
Encoding: 256 256 190
Width: 1229
GlyphClass: 2
Flags: W
LayerCount: 2
Fore
SplineSet
411 486 m 1,0,-1
 509 486 l 1,1,-1
 833 781 l 1,2,-1
 786 781 l 2,3,4
 730 781 730 781 730 823 c 0,5,6
 730 866 730 866 786 866 c 2,7,-1
 991 866 l 2,8,9
 1047 866 1047 866 1047 823 c 0,10,11
 1047 781 1047 781 991 781 c 2,12,-1
 955 781 l 1,13,-1
 607 468 l 1,14,15
 784 410 784 410 955 84 c 1,16,-1
 1071 84 l 2,17,18
 1128 84 1128 84 1128 42 c 256,19,20
 1128 0 1128 0 1071 0 c 2,21,-1
 900 0 l 1,22,23
 821 179 821 179 718 290 c 128,-1,24
 615 401 615 401 474 401 c 2,25,-1
 411 401 l 1,26,-1
 411 84 l 1,27,-1
 523 84 l 2,28,29
 579 84 579 84 579 42 c 256,30,31
 579 0 579 0 523 0 c 2,32,-1
 214 0 l 2,33,34
 158 0 158 0 158 42 c 256,35,36
 158 84 158 84 214 84 c 2,37,-1
 326 84 l 1,38,-1
 326 781 l 1,39,-1
 214 781 l 2,40,41
 158 781 158 781 158 823 c 0,42,43
 158 866 158 866 214 866 c 2,44,-1
 411 866 l 1,45,-1
 411 486 l 1,0,-1
EndSplineSet
EndChar

StartChar: Emacron
Encoding: 274 274 191
Width: 1229
GlyphClass: 2
Flags: W
LayerCount: 2
Fore
SplineSet
1129 436 m 256,0,1
 1129 394 1129 394 1073 394 c 2,2,-1
 656 394 l 1,3,-1
 656 0 l 2,4,5
 656 -56 656 -56 614 -56 c 256,6,7
 572 -56 572 -56 572 0 c 2,8,-1
 572 394 l 1,9,-1
 157 394 l 2,10,11
 101 394 101 394 101 436 c 256,12,13
 101 478 101 478 157 478 c 2,14,-1
 572 478 l 1,15,-1
 572 695 l 1,16,-1
 157 695 l 2,17,18
 101 695 101 695 101 738 c 0,19,20
 101 780 101 780 157 780 c 2,21,-1
 572 780 l 1,22,-1
 572 1198 l 2,23,24
 572 1255 572 1255 614 1255 c 256,25,26
 656 1255 656 1255 656 1198 c 2,27,-1
 656 780 l 1,28,-1
 1073 780 l 2,29,30
 1129 780 1129 780 1129 737 c 0,31,32
 1129 695 1129 695 1073 695 c 2,33,-1
 656 695 l 1,34,-1
 656 478 l 1,35,-1
 1073 478 l 2,36,37
 1129 478 1129 478 1129 436 c 256,0,1
EndSplineSet
EndChar

StartChar: Imacron
Encoding: 298 298 193
Width: 1229
GlyphClass: 2
Flags: W
LayerCount: 2
Fore
SplineSet
982 866 m 1,0,-1
 982 791 l 1,1,-1
 353 84 l 1,2,-1
 921 84 l 1,3,-1
 921 200 l 2,4,5
 921 230 921 230 932.5 243 c 128,-1,6
 944 256 944 256 963 256 c 256,7,8
 982 256 982 256 994 243 c 128,-1,9
 1006 230 1006 230 1006 200 c 2,10,-1
 1005 0 l 1,11,-1
 237 0 l 1,12,-1
 237 75 l 1,13,-1
 863 781 l 1,14,-1
 341 781 l 1,15,-1
 341 667 l 2,16,17
 341 637 341 637 329 624 c 128,-1,18
 317 611 317 611 299 611 c 0,19,20
 280 611 280 611 268 624 c 128,-1,21
 256 637 256 637 256 667 c 2,22,-1
 256 866 l 1,23,-1
 982 866 l 1,0,-1
EndSplineSet
EndChar

StartChar: imacron
Encoding: 299 299 194
Width: 1229
GlyphClass: 2
Flags: W
LayerCount: 2
Fore
SplineSet
1094 237 m 0,0,1
 1094 -33 1094 -33 634 -33 c 0,2,3
 526 -33 526 -33 361 2 c 0,4,5
 144 47 144 47 144 112 c 0,6,7
 144 158 144 158 186 158 c 0,8,9
 199 158 199 158 221 147 c 0,10,11
 416 51 416 51 642 51 c 0,12,13
 773 51 773 51 865 83 c 0,14,15
 1003 131 1003 131 1003 237 c 0,16,17
 1003 339 1003 339 848 382 c 0,18,19
 757 406 757 406 639 406 c 2,20,-1
 597 406 l 2,21,22
 526 406 526 406 526 448 c 0,23,24
 526 462 526 462 534 470 c 2,25,-1
 842 781 l 1,26,-1
 320 781 l 1,27,-1
 320 667 l 2,28,29
 320 611 320 611 278 611 c 0,30,31
 235 611 235 611 235 667 c 2,32,-1
 235 866 l 1,33,-1
 961 866 l 1,34,-1
 961 791 l 1,35,-1
 659 486 l 1,36,37
 871 486 871 486 986 416 c 0,38,39
 1094 350 1094 350 1094 237 c 0,0,1
EndSplineSet
EndChar

StartChar: Ibreve
Encoding: 300 300 195
Width: 1229
GlyphClass: 2
Flags: W
LayerCount: 2
Fore
SplineSet
887 781 m 1,0,-1
 342 781 l 1,1,-1
 342 84 l 1,2,-1
 437 84 l 2,3,4
 493 84 493 84 493 42 c 256,5,6
 493 0 493 0 437 0 c 2,7,-1
 163 0 l 2,8,9
 107 0 107 0 107 42 c 256,10,11
 107 84 107 84 163 84 c 2,12,-1
 258 84 l 1,13,-1
 258 781 l 1,14,-1
 193 781 l 2,15,16
 137 781 137 781 137 823 c 0,17,18
 137 866 137 866 193 866 c 2,19,-1
 1036 866 l 2,20,21
 1092 866 1092 866 1092 823 c 0,22,23
 1092 781 1092 781 1036 781 c 2,24,-1
 971 781 l 1,25,-1
 971 84 l 1,26,-1
 1066 84 l 2,27,28
 1122 84 1122 84 1122 42 c 256,29,30
 1122 0 1122 0 1066 0 c 2,31,-1
 792 0 l 2,32,33
 736 0 736 0 736 42 c 256,34,35
 736 84 736 84 792 84 c 2,36,-1
 887 84 l 1,37,-1
 887 781 l 1,0,-1
EndSplineSet
EndChar

StartChar: ibreve
Encoding: 301 301 196
Width: 1229
GlyphClass: 2
Flags: W
LayerCount: 2
Fore
SplineSet
994 606 m 0,0,1
 994 368 994 368 606 368 c 2,2,-1
 355 368 l 1,3,-1
 355 85 l 1,4,-1
 468 85 l 2,5,6
 524 85 524 85 524 43 c 0,7,8
 524 0 524 0 468 0 c 2,9,-1
 226 0 l 2,10,11
 169 0 169 0 169 43 c 0,12,13
 169 85 169 85 226 85 c 2,14,-1
 271 85 l 1,15,-1
 271 782 l 1,16,-1
 222 782 l 2,17,18
 166 782 166 782 166 824 c 256,19,20
 166 866 166 866 222 866 c 2,21,-1
 606 866 l 2,22,23
 789 866 789 866 873 825 c 0,24,25
 994 767 994 767 994 606 c 0,0,1
907 610 m 0,26,27
 907 722 907 722 802 760 c 0,28,29
 741 782 741 782 602 782 c 2,30,-1
 355 782 l 1,31,-1
 355 453 l 1,32,-1
 598 453 l 2,33,34
 737 453 737 453 796 471 c 0,35,36
 907 505 907 505 907 610 c 0,26,27
EndSplineSet
EndChar

StartChar: Iogonek
Encoding: 302 302 197
Width: 1229
GlyphClass: 2
Flags: W
LayerCount: 2
Fore
SplineSet
1002 541 m 256,0,1
 1002 502 1002 502 967 502 c 2,2,-1
 740 502 l 2,3,4
 704 502 704 502 704 541 c 256,5,6
 704 580 704 580 740 580 c 2,7,-1
 841 580 l 1,8,-1
 792 711 l 1,9,-1
 434 711 l 1,10,-1
 386 580 l 1,11,-1
 488 580 l 2,12,13
 523 580 523 580 523 541 c 256,14,15
 523 502 523 502 488 502 c 2,16,-1
 260 502 l 2,17,18
 225 502 225 502 225 541 c 256,19,20
 225 580 225 580 260 580 c 2,21,-1
 301 580 l 1,22,-1
 517 1162 l 1,23,-1
 360 1162 l 2,24,25
 325 1162 325 1162 325 1200 c 0,26,27
 325 1240 325 1240 360 1240 c 2,28,-1
 677 1240 l 1,29,-1
 926 580 l 1,30,-1
 967 580 l 2,31,32
 1002 580 1002 580 1002 541 c 256,0,1
762 789 m 1,33,-1
 621 1162 l 1,34,-1
 601 1162 l 1,35,-1
 465 789 l 1,36,-1
 762 789 l 1,33,-1
EndSplineSet
EndChar

StartChar: iogonek
Encoding: 303 303 198
Width: 1229
GlyphClass: 2
Flags: W
LayerCount: 2
Fore
SplineSet
958 720 m 0,0,1
 958 619 958 619 886 557 c 0,2,3
 821 502 821 502 730 502 c 2,4,-1
 308 502 l 2,5,6
 273 502 273 502 273 541 c 256,7,8
 273 580 273 580 308 580 c 2,9,-1
 379 580 l 1,10,-1
 379 1162 l 1,11,-1
 308 1162 l 2,12,13
 273 1162 273 1162 273 1200 c 0,14,15
 273 1240 273 1240 308 1240 c 2,16,-1
 667 1240 l 2,17,18
 903 1240 903 1240 903 1044 c 0,19,20
 903 936 903 936 796 899 c 1,21,22
 958 858 958 858 958 720 c 0,0,1
821 1048 m 0,23,24
 821 1162 821 1162 668 1162 c 2,25,-1
 458 1162 l 1,26,-1
 458 931 l 1,27,-1
 645 931 l 2,28,29
 821 931 821 931 821 1048 c 0,23,24
877 718 m 0,30,31
 877 852 877 852 648 852 c 2,32,-1
 458 852 l 1,33,-1
 458 580 l 1,34,-1
 726 580 l 2,35,36
 791 580 791 580 832 614 c 0,37,38
 877 651 877 651 877 718 c 0,30,31
EndSplineSet
EndChar

StartChar: Jcircumflex
Encoding: 308 308 199
Width: 1229
GlyphClass: 2
Flags: W
LayerCount: 2
Fore
SplineSet
980 542 m 0,0,1
 980 502 980 502 944 502 c 2,2,-1
 820 502 l 1,3,-1
 700 784 l 2,4,5
 663 870 663 870 553 900 c 1,6,-1
 437 798 l 1,7,-1
 437 580 l 1,8,-1
 534 580 l 2,9,10
 570 580 570 580 570 542 c 0,11,12
 570 502 570 502 534 502 c 2,13,-1
 287 502 l 2,14,15
 251 502 251 502 251 542 c 0,16,17
 251 580 251 580 287 580 c 2,18,-1
 358 580 l 1,19,-1
 358 1164 l 1,20,-1
 287 1164 l 2,21,22
 251 1164 251 1164 251 1202 c 256,23,24
 251 1240 251 1240 287 1240 c 2,25,-1
 534 1240 l 2,26,27
 570 1240 570 1240 570 1202 c 256,28,29
 570 1164 570 1164 534 1164 c 2,30,-1
 437 1164 l 1,31,-1
 437 905 l 1,32,-1
 729 1164 l 1,33,-1
 671 1164 l 2,34,35
 635 1164 635 1164 635 1202 c 256,36,37
 635 1240 635 1240 671 1240 c 2,38,-1
 868 1240 l 2,39,40
 903 1240 903 1240 903 1202 c 256,41,42
 903 1164 903 1164 868 1164 c 2,43,-1
 846 1164 l 1,44,-1
 619 958 l 1,45,46
 738 917 738 917 791 790 c 2,47,-1
 878 580 l 1,48,-1
 944 580 l 2,49,50
 980 580 980 580 980 542 c 0,0,1
EndSplineSet
EndChar

StartChar: jcircumflex
Encoding: 309 309 200
Width: 1229
GlyphClass: 2
Flags: W
LayerCount: 2
Fore
SplineSet
950 502 m 1,0,-1
 314 502 l 2,1,2
 279 502 279 502 279 541 c 256,3,4
 279 580 279 580 314 580 c 2,5,-1
 440 580 l 1,6,-1
 440 1162 l 1,7,-1
 314 1162 l 2,8,9
 279 1162 279 1162 279 1201 c 256,10,11
 279 1240 279 1240 314 1240 c 2,12,-1
 645 1240 l 2,13,14
 680 1240 680 1240 680 1201 c 256,15,16
 680 1162 680 1162 645 1162 c 2,17,-1
 519 1162 l 1,18,-1
 519 580 l 1,19,-1
 870 580 l 1,20,-1
 870 763 l 2,21,22
 870 801 870 801 909 801 c 0,23,24
 950 801 950 801 950 763 c 2,25,-1
 950 502 l 1,0,-1
EndSplineSet
EndChar

StartChar: Kcedilla
Encoding: 310 310 201
Width: 1229
GlyphClass: 2
Flags: W
LayerCount: 2
Fore
SplineSet
1014 541 m 256,0,1
 1014 502 1014 502 979 502 c 2,2,-1
 758 502 l 2,3,4
 722 502 722 502 722 541 c 256,5,6
 722 580 722 580 758 580 c 2,7,-1
 856 580 l 1,8,-1
 856 1161 l 1,9,-1
 844 1161 l 1,10,-1
 674 724 l 1,11,-1
 554 724 l 1,12,-1
 381 1161 l 1,13,-1
 370 1161 l 1,14,-1
 370 580 l 1,15,-1
 468 580 l 2,16,17
 503 580 503 580 503 541 c 256,18,19
 503 502 503 502 468 502 c 2,20,-1
 247 502 l 2,21,22
 212 502 212 502 212 541 c 256,23,24
 212 580 212 580 247 580 c 2,25,-1
 292 580 l 1,26,-1
 292 1161 l 1,27,-1
 258 1161 l 2,28,29
 223 1161 223 1161 223 1201 c 0,30,31
 223 1240 223 1240 258 1240 c 2,32,-1
 434 1240 l 1,33,-1
 614 788 l 1,34,-1
 791 1240 l 1,35,-1
 967 1240 l 2,36,37
 1003 1240 1003 1240 1003 1201 c 0,38,39
 1003 1161 1003 1161 967 1161 c 2,40,-1
 934 1161 l 1,41,-1
 934 580 l 1,42,-1
 979 580 l 2,43,44
 1014 580 1014 580 1014 541 c 256,0,1
EndSplineSet
EndChar

StartChar: kcedilla
Encoding: 311 311 202
Width: 1229
GlyphClass: 2
Flags: W
LayerCount: 2
Fore
SplineSet
990 1201 m 0,0,1
 990 1163 990 1163 955 1163 c 2,2,-1
 910 1163 l 1,3,-1
 910 502 l 1,4,-1
 816 502 l 1,5,-1
 426 1110 l 1,6,-1
 426 580 l 1,7,-1
 524 580 l 2,8,9
 560 580 560 580 560 541 c 256,10,11
 560 502 560 502 524 502 c 2,12,-1
 303 502 l 2,13,14
 267 502 267 502 267 541 c 256,15,16
 267 580 267 580 303 580 c 2,17,-1
 347 580 l 1,18,-1
 347 1163 l 1,19,-1
 276 1163 l 2,20,21
 241 1163 241 1163 241 1201 c 0,22,23
 241 1240 241 1240 276 1240 c 2,24,-1
 438 1240 l 1,25,-1
 831 628 l 1,26,-1
 831 1163 l 1,27,-1
 734 1163 l 2,28,29
 698 1163 698 1163 698 1201 c 0,30,31
 698 1240 698 1240 734 1240 c 2,32,-1
 955 1240 l 2,33,34
 990 1240 990 1240 990 1201 c 0,0,1
EndSplineSet
EndChar

StartChar: kgreenlandic
Encoding: 312 312 203
Width: 1229
GlyphClass: 2
Flags: W
LayerCount: 2
Fore
SplineSet
955 870 m 256,0,1
 955 710 955 710 871 603 c 0,2,3
 777 483 777 483 615 483 c 256,4,5
 453 483 453 483 359 603 c 0,6,7
 274 710 274 710 274 870 c 256,8,9
 274 1030 274 1030 358 1137 c 0,10,11
 452 1257 452 1257 614 1257 c 256,12,13
 776 1257 776 1257 870 1137 c 0,14,15
 955 1030 955 1030 955 870 c 256,0,1
874 870 m 0,16,17
 874 999 874 999 814 1084 c 0,18,19
 744 1182 744 1182 614 1182 c 256,20,21
 484 1182 484 1182 415 1084 c 0,22,23
 355 1000 355 1000 355 870 c 0,24,25
 355 741 355 741 415 656 c 0,26,27
 485 558 485 558 615 558 c 256,28,29
 745 558 745 558 814 656 c 0,30,31
 874 740 874 740 874 870 c 0,16,17
EndSplineSet
EndChar

StartChar: Lcedilla
Encoding: 315 315 204
Width: 1229
GlyphClass: 2
Flags: W
LayerCount: 2
Fore
SplineSet
991 542 m 0,0,1
 991 502 991 502 955 502 c 2,2,-1
 831 502 l 1,3,-1
 754 681 l 2,4,5
 728 741 728 741 648 781 c 1,6,-1
 496 781 l 1,7,-1
 496 580 l 1,8,-1
 587 580 l 2,9,10
 622 580 622 580 622 541 c 256,11,12
 622 502 622 502 587 502 c 2,13,-1
 345 502 l 2,14,15
 310 502 310 502 310 541 c 256,16,17
 310 580 310 580 345 580 c 2,18,-1
 417 580 l 1,19,-1
 417 1162 l 1,20,-1
 345 1162 l 2,21,22
 310 1162 310 1162 310 1201 c 256,23,24
 310 1240 310 1240 345 1240 c 2,25,-1
 679 1240 l 2,26,27
 783 1240 783 1240 856 1186 c 0,28,29
 940 1124 940 1124 940 1013 c 0,30,31
 940 850 940 850 770 797 c 1,32,33
 816 759 816 759 845 687 c 2,34,-1
 889 580 l 1,35,-1
 955 580 l 2,36,37
 991 580 991 580 991 542 c 0,0,1
859 1013 m 0,38,39
 859 1082 859 1082 805 1124 c 0,40,41
 756 1162 756 1162 684 1162 c 2,42,-1
 496 1162 l 1,43,-1
 496 858 l 1,44,-1
 664 858 l 2,45,46
 743 858 743 858 797 895 c 0,47,48
 859 937 859 937 859 1013 c 0,38,39
EndSplineSet
EndChar

StartChar: lcedilla
Encoding: 316 316 205
Width: 1229
GlyphClass: 2
Flags: W
LayerCount: 2
Fore
SplineSet
936 1003 m 2,0,1
 936 967 936 967 896 967 c 0,2,3
 857 967 857 967 857 1003 c 2,4,-1
 857 1162 l 1,5,-1
 653 1162 l 1,6,-1
 653 580 l 1,7,-1
 778 580 l 2,8,9
 813 580 813 580 813 540 c 0,10,11
 813 502 813 502 778 502 c 2,12,-1
 449 502 l 2,13,14
 414 502 414 502 414 540 c 0,15,16
 414 580 414 580 449 580 c 2,17,-1
 574 580 l 1,18,-1
 574 1162 l 1,19,-1
 370 1162 l 1,20,-1
 370 1003 l 2,21,22
 370 967 370 967 331 967 c 0,23,24
 291 967 291 967 291 1003 c 2,25,-1
 291 1240 l 1,26,-1
 936 1240 l 1,27,-1
 936 1003 l 2,0,1
EndSplineSet
EndChar

StartChar: Ncedilla
Encoding: 325 325 206
Width: 1229
GlyphClass: 2
Flags: W
LayerCount: 2
Fore
SplineSet
907 511 m 0,0,1
 907 384 907 384 816 313 c 0,2,3
 733 248 733 248 604 248 c 256,4,5
 475 248 475 248 378 316 c 0,6,7
 308 365 308 365 308 405 c 0,8,9
 308 433 308 433 336 433 c 0,10,11
 353 433 353 433 373 414 c 0,12,13
 469 321 469 321 601 321 c 0,14,15
 830 321 830 321 830 511 c 0,16,17
 830 700 830 700 603 700 c 2,18,-1
 577 700 l 2,19,20
 529 700 529 700 529 736 c 0,21,22
 529 750 529 750 541 763 c 2,23,-1
 728 972 l 1,24,-1
 435 972 l 1,25,-1
 435 900 l 2,26,27
 435 864 435 864 398 864 c 256,28,29
 361 864 361 864 361 900 c 2,30,-1
 361 1050 l 1,31,-1
 830 1050 l 1,32,-1
 830 978 l 1,33,-1
 644 773 l 1,34,35
 763 766 763 766 833 700 c 0,36,37
 907 630 907 630 907 511 c 0,0,1
EndSplineSet
EndChar

StartChar: ncedilla
Encoding: 326 326 207
Width: 1229
GlyphClass: 2
Flags: W
LayerCount: 2
Fore
SplineSet
907 890 m 0,0,1
 907 739 907 739 842 624 c 0,2,3
 762 483 762 483 615 483 c 0,4,5
 469 483 469 483 388 624 c 0,6,7
 323 739 323 739 323 890 c 0,8,9
 323 1042 323 1042 388 1156 c 0,10,11
 469 1297 469 1297 615 1297 c 0,12,13
 764 1297 764 1297 843 1156 c 0,14,15
 907 1043 907 1043 907 890 c 0,0,1
825 929 m 1,16,17
 825 1033 825 1033 773 1119 c 0,18,19
 712 1219 712 1219 615 1219 c 0,20,21
 513 1219 513 1219 455 1120 c 0,22,23
 405 1036 405 1036 405 929 c 1,24,-1
 825 929 l 1,16,17
825 851 m 1,25,-1
 405 851 l 1,26,27
 405 744 405 744 453 661 c 0,28,29
 512 560 512 560 615 560 c 0,30,31
 717 560 717 560 776 661 c 0,32,33
 825 745 825 745 825 851 c 1,25,-1
EndSplineSet
EndChar

StartChar: Ygrave
Encoding: 7922 7922 208
Width: 1229
GlyphClass: 2
Flags: W
LayerCount: 2
Fore
SplineSet
659 528 m 1,0,-1
 659 84 l 1,1,-1
 877 84 l 2,2,3
 907 84 907 84 920 72 c 0,4,5
 933 60 933 60 933 42 c 0,6,7
 933 24 933 24 920 12 c 0,8,9
 907 0 907 0 877 0 c 2,10,-1
 356 0 l 2,11,12
 326 0 326 0 313 12 c 0,13,14
 300 24 300 24 300 42 c 0,15,16
 300 60 300 60 312 72 c 0,17,18
 324 84 324 84 356 84 c 2,19,-1
 574 84 l 1,20,-1
 574 528 l 1,21,-1
 205 1086 l 1,22,-1
 155 1086 l 2,23,24
 125 1086 125 1086 112 1098 c 0,25,26
 99 1110 99 1110 99 1128 c 256,27,28
 99 1146 99 1146 112 1158 c 0,29,30
 125 1170 125 1170 155 1170 c 2,31,-1
 386 1170 l 2,32,33
 416 1170 416 1170 429 1158 c 0,34,35
 442 1146 442 1146 442 1128 c 256,36,37
 442 1110 442 1110 429 1098 c 0,38,39
 416 1086 416 1086 386 1086 c 2,40,-1
 303 1086 l 1,41,-1
 617 613 l 1,42,-1
 924 1086 l 1,43,-1
 842 1086 l 2,44,45
 811 1086 811 1086 798 1098 c 0,46,47
 785 1110 785 1110 785 1128 c 256,48,49
 785 1146 785 1146 798 1158 c 0,50,51
 811 1170 811 1170 842 1170 c 2,52,-1
 1072 1170 l 2,53,54
 1102 1170 1102 1170 1115 1158 c 0,55,56
 1128 1146 1128 1146 1128 1128 c 256,57,58
 1128 1110 1128 1110 1115 1098 c 0,59,60
 1102 1086 1102 1086 1072 1086 c 2,61,-1
 1022 1086 l 1,62,-1
 659 528 l 1,0,-1
EndSplineSet
Refer: 58 96 N 1 0 0 1 -60 264 2
EndChar

StartChar: ygrave
Encoding: 7923 7923 209
Width: 1229
GlyphClass: 2
Flags: W
LayerCount: 2
Fore
SplineSet
716 -222 m 0,0,1
 716 -264 716 -264 686 -294 c 0,2,3
 656 -324 656 -324 614 -324 c 0,4,5
 571 -324 571 -324 541 -294 c 0,6,7
 511 -264 511 -264 511 -222 c 0,8,9
 511 -179 511 -179 541 -149 c 0,10,11
 571 -119 571 -119 614 -119 c 0,12,13
 656 -119 656 -119 686 -149 c 0,14,15
 716 -179 716 -179 716 -222 c 0,0,1
659 528 m 1,16,-1
 659 84 l 1,17,-1
 877 84 l 2,18,19
 907 84 907 84 920 72.5 c 0,20,21
 933 61 933 61 933 42 c 0,22,23
 933 24 933 24 920 12 c 0,24,25
 907 0 907 0 877 0 c 2,26,-1
 356 0 l 2,27,28
 326 0 326 0 313 12 c 0,29,30
 300 24 300 24 300 42 c 0,31,32
 300 61 300 61 312.5 72.5 c 0,33,34
 325 84 325 84 356 84 c 2,35,-1
 574 84 l 1,36,-1
 574 528 l 1,37,-1
 205 1086 l 1,38,-1
 155 1086 l 2,39,40
 125 1086 125 1086 112 1097.5 c 0,41,42
 99 1109 99 1109 99 1128 c 256,43,44
 99 1147 99 1147 112 1158.5 c 0,45,46
 125 1170 125 1170 155 1170 c 2,47,-1
 386 1170 l 2,48,49
 416 1170 416 1170 429 1158.5 c 0,50,51
 442 1147 442 1147 442 1128 c 256,52,53
 442 1109 442 1109 429 1097.5 c 0,54,55
 416 1086 416 1086 386 1086 c 2,56,-1
 303 1086 l 1,57,-1
 617 613 l 1,58,-1
 924 1086 l 1,59,-1
 842 1086 l 2,60,61
 811 1086 811 1086 798 1097.5 c 0,62,63
 785 1109 785 1109 785 1128 c 256,64,65
 785 1147 785 1147 798 1158.5 c 0,66,67
 811 1170 811 1170 842 1170 c 2,68,-1
 1072 1170 l 2,69,70
 1102 1170 1102 1170 1115 1158.5 c 0,71,72
 1128 1147 1128 1147 1128 1128 c 256,73,74
 1128 1109 1128 1109 1115 1097.5 c 0,75,76
 1102 1086 1102 1086 1072 1086 c 2,77,-1
 1022 1086 l 1,78,-1
 659 528 l 1,16,-1
EndSplineSet
EndChar

StartChar: estimated
Encoding: 8494 8494 210
Width: 1229
GlyphClass: 2
Flags: W
LayerCount: 2
Fore
SplineSet
321 531 m 1,0,-1
 321 160 l 1,1,2
 441 39 441 39 619 39 c 0,3,4
 759 39 759 39 850.5 103 c 128,-1,5
 942 167 942 167 1014 285 c 1,6,-1
 1086 242 l 1,7,8
 969 73 969 73 854.5 19.5 c 128,-1,9
 740 -34 740 -34 619 -34 c 0,10,11
 387 -34 387 -34 238.5 124.5 c 128,-1,12
 90 283 90 283 90 531 c 0,13,14
 90 780 90 780 239 938 c 128,-1,15
 388 1096 388 1096 619 1096 c 0,16,17
 833 1096 833 1096 985 954 c 128,-1,18
 1137 812 1137 812 1148 531 c 1,19,-1
 321 531 l 1,0,-1
917 605 m 1,20,-1
 917 902 l 1,21,22
 789 1023 789 1023 617 1023 c 0,23,24
 442 1023 442 1023 321 901 c 1,25,-1
 321 605 l 1,26,-1
 917 605 l 1,20,-1
EndSplineSet
EndChar

